<svg xmlns="http://www.w3.org/2000/svg" width="435.374" height="210.602" viewBox="0 0 435.374 210.602">
  <g id="Grupo_28643" data-name="Grupo 28643" transform="translate(-80.727 -260.97)">
    <path id="Trazado_71277" data-name="Trazado 71277" d="M630.826,470.446c-.133.313-23.3.686-23.462,1H567.891l-11.553-.031H452.894l-30.211-.032H343.042l-33.264-.031H249.623l-.3-.752-.033-.063a.3.3,0,0,1-.033-.093c-.133-.251-53.154-70.747,29.275-119.822,32.252-19.2-2.019-31.878,23.628-53.253,34.682-28.906,73.092,13.827,111.834-18.518,37.879-31.594,117.558-17.129,150.212,10.954,4.282,3.682,25.711,16.773,10.362,42.966-9.69,16.537,18.913,20.642,33.266,21.605C656.923,357.672,631.158,469.819,630.826,470.446Z" transform="translate(-129.567)" fill="#e2e7fc"/>
    <path id="Trazado_71278" data-name="Trazado 71278" d="M2082.8,479.581h0a.821.821,0,0,1-.821-.821V443.141a.821.821,0,0,1,.821-.821h0a.821.821,0,0,1,.821.821V478.76A.821.821,0,0,1,2082.8,479.581Z" transform="translate(-1710.131 -154.969)" fill="#94b0ed"/>
    <rect id="Rectángulo_29968" data-name="Rectángulo 29968" width="435.374" height="1.155" rx="0.577" transform="translate(80.727 470.417)" fill="#2e3552"/>
    <g id="Grupo_28632" data-name="Grupo 28632" transform="translate(185.008 275.095)">
      <g id="Grupo_28621" data-name="Grupo 28621" transform="translate(0 16.753)">
        <g id="Grupo_28611" data-name="Grupo 28611" transform="translate(39.165 123.171)">
          <path id="Trazado_71279" data-name="Trazado 71279" d="M1068.564,1324.444a2.033,2.033,0,0,1-1.142-.35,1.224,1.224,0,0,1-.4-1.731,6.749,6.749,0,0,0,.784-2.419l.24.016a6.787,6.787,0,0,1-.807,2.488,1.043,1.043,0,0,0,.338,1.5,1.674,1.674,0,0,0,1.714.122l.138.16A1.757,1.757,0,0,1,1068.564,1324.444Z" transform="translate(-1066.817 -1319.945)" fill="#f99746"/>
        </g>
        <path id="Trazado_71280" data-name="Trazado 71280" d="M1014.607,734.806V860.5a8.905,8.905,0,0,1-8.907,8.9H806.666a9.019,9.019,0,0,1-9.036-7.995c-.023-.224-.038-.451-.043-.68,0-.077,0-.153,0-.23V829.791c0-.239.011-.476.029-.711a9.129,9.129,0,0,1,6.914-3.135H926.586a11.179,11.179,0,0,0,11.133-9.47,10.847,10.847,0,0,0,.111-1.558V786.251a10.24,10.24,0,0,0-.607-3.483,10.644,10.644,0,0,0-10.045-6.966H883.738c-9.379,0-17.58,6.51-22.028,14.94a30.907,30.907,0,0,0-2.855,7.678,4.57,4.57,0,0,1-2.774.93H817.2a7.473,7.473,0,0,1-7.544-7.4V735.16a11.722,11.722,0,0,1,.17-2.005,12.461,12.461,0,0,1,10.1-5.1h184.773a12.1,12.1,0,0,1,9.77,4.9A11.781,11.781,0,0,1,1014.607,734.806Z" transform="translate(-797.583 -690.989)" fill="#9db0f4" opacity="0.3"/>
        <path id="Trazado_71281" data-name="Trazado 71281" d="M1014.607,705.066V830.759a8.905,8.905,0,0,1-8.907,8.9H806.491a8.907,8.907,0,0,1-8.862-7.995c-.023-.224-.038-.451-.043-.68,0-.077,0-.153,0-.23V800.051c0-.239.011-.476.029-.711a8.9,8.9,0,0,1,8.88-8.2H926.2a11.03,11.03,0,0,0,11.029-11.029V751.448A10.446,10.446,0,0,0,926.777,741h-42.6c-10.971,0-20.3,9.267-23.7,20a30.05,30.05,0,0,0-1.093,4.736,4.541,4.541,0,0,1-1.707,2.943,4.42,4.42,0,0,1-2.718.93H816.818a7.4,7.4,0,0,1-7.4-7.4V705.42a12.157,12.157,0,0,1,12.165-12.165H1002.8a11.8,11.8,0,0,1,11.811,11.811Z" transform="translate(-797.583 -661.248)" fill="#f8faff"/>
        <rect id="Rectángulo_29969" data-name="Rectángulo 29969" width="4.22" height="14.904" transform="translate(39.48 108.277)" fill="#2b478b"/>
        <rect id="Rectángulo_29970" data-name="Rectángulo 29970" width="4.943" height="2.652" transform="translate(43.7 111.858)" fill="#2b478b"/>
        <path id="Trazado_71282" data-name="Trazado 71282" d="M1128.51,1236.647a2.493,2.493,0,1,1,2.493,2.493A2.493,2.493,0,0,1,1128.51,1236.647Z" transform="translate(-1080.37 -1123.463)" fill="#2b478b"/>
        <rect id="Rectángulo_29971" data-name="Rectángulo 29971" width="2.773" height="2.185" transform="translate(37.31 118.293)" fill="#2b478b"/>
        <rect id="Rectángulo_29972" data-name="Rectángulo 29972" width="6.43" height="4.18" transform="translate(47.418 27.741)" fill="#2b478b"/>
        <path id="Trazado_71283" data-name="Trazado 71283" d="M2041.208,502.5h-14.222a2.435,2.435,0,0,1-2.433-2.575l.232-3.989,0-.038.156-2.689.432-7.5.138-2.361.33-5.729.122-2.093a2.434,2.434,0,0,1,2.429-2.294h11.154a2.407,2.407,0,0,1,1.1.262,2.443,2.443,0,0,1,1.332,2.007l.115,1.68.328,4.837.052.763.54,7.962.433,6.37.19,2.783A2.436,2.436,0,0,1,2041.208,502.5Z" transform="translate(-1846.062 -473.233)" fill="#f99746"/>
        <g id="Grupo_28612" data-name="Grupo 28612" transform="translate(41.389 31.846)" opacity="0.3">
          <path id="Trazado_71284" data-name="Trazado 71284" d="M1091.55,758.255h-9.444V692.223h.4v65.63h8.641V692.148h.4Z" transform="translate(-1082.105 -692.148)" fill="#9db0f4"/>
        </g>
        <path id="Rectángulo_29973" data-name="Rectángulo 29973" d="M0,0H0A9.082,9.082,0,0,1,9.082,9.082V26.477A9.082,9.082,0,0,1,0,35.559H0a0,0,0,0,1,0,0V0A0,0,0,0,1,0,0Z" transform="translate(217.024 50.52)" fill="#ffc74a"/>
        <rect id="Rectángulo_29974" data-name="Rectángulo 29974" width="30.062" height="0.71" transform="translate(26.017 129.099)" fill="#9db0f4"/>
        <path id="Trazado_71285" data-name="Trazado 71285" d="M1066.488,717.1l-2.894-3.376V692.666h2.894Z" transform="translate(-1024.897 -660.745)" fill="#2b478b"/>
        <g id="Grupo_28613" data-name="Grupo 28613" transform="translate(41.389 97.752)" opacity="0.3">
          <rect id="Rectángulo_29975" data-name="Rectángulo 29975" width="0.402" height="10.526" fill="#9db0f4"/>
        </g>
        <g id="Grupo_28614" data-name="Grupo 28614" transform="translate(0.001 169.223)" opacity="0.3">
          <rect id="Rectángulo_29976" data-name="Rectángulo 29976" width="217.024" height="0.402" fill="#9db0f4"/>
        </g>
        <g id="Grupo_28615" data-name="Grupo 28615" transform="translate(61.866 40.923)">
          <path id="Trazado_71286" data-name="Trazado 71286" d="M1222.866,756.159a1.608,1.608,0,1,1,1.608,1.608A1.608,1.608,0,0,1,1222.866,756.159Z" transform="translate(-1222.866 -754.551)" fill="#2b478b"/>
          <path id="Trazado_71287" data-name="Trazado 71287" d="M1266.241,756.159a1.608,1.608,0,1,1,1.608,1.608A1.608,1.608,0,0,1,1266.241,756.159Z" transform="translate(-1259.931 -754.551)" fill="#2b478b"/>
          <path id="Trazado_71288" data-name="Trazado 71288" d="M1309.616,756.159a1.608,1.608,0,1,1,1.608,1.608A1.608,1.608,0,0,1,1309.616,756.159Z" transform="translate(-1296.996 -754.551)" fill="#2b478b"/>
        </g>
        <rect id="Rectángulo_29977" data-name="Rectángulo 29977" width="1.045" height="5.627" transform="translate(50.131 23.602)" fill="#2b478b"/>
        <path id="Trazado_71289" data-name="Trazado 71289" d="M1082.081,1325.93h-.1l-.329-5.918h.772Z" transform="translate(-1040.33 -1196.831)" fill="#2b478b"/>
        <path id="Trazado_71290" data-name="Trazado 71290" d="M1090.425,1325.93h-.1l-.329-5.918h.772Z" transform="translate(-1047.46 -1196.831)" fill="#2b478b"/>
        <g id="Grupo_28616" data-name="Grupo 28616" transform="translate(40.403 128.024)">
          <path id="Trazado_71291" data-name="Trazado 71291" d="M1078.3,1354.377h-2.214a.8.8,0,0,1-.76-.828.229.229,0,1,1,.456,0,.319.319,0,0,0,.3.331h2.214a.319.319,0,0,0,.3-.331.229.229,0,1,1,.456,0A.8.8,0,0,1,1078.3,1354.377Z" transform="translate(-1075.325 -1353.301)" fill="#35488b"/>
        </g>
        <g id="Grupo_28620" data-name="Grupo 28620" transform="translate(176.166 119.388)">
          <g id="Grupo_28618" data-name="Grupo 28618" transform="translate(0 8.543)">
            <path id="Trazado_71292" data-name="Trazado 71292" d="M2020.018,1360.228h-6.955a3.1,3.1,0,0,1-3.09-3.089h0a3.1,3.1,0,0,1,3.09-3.09h6.955a3.1,3.1,0,0,1,3.09,3.09h0A3.1,3.1,0,0,1,2020.018,1360.228Z" transform="translate(-2009.772 -1353.848)" fill="#ffc74a"/>
            <g id="Grupo_28617" data-name="Grupo 28617">
              <path id="Trazado_71293" data-name="Trazado 71293" d="M2032.864,1359.248h-21.056a3.219,3.219,0,0,1-3.215-3.215v-.151a3.219,3.219,0,0,1,3.215-3.215h21.056a3.219,3.219,0,0,1,3.215,3.215v.151A3.219,3.219,0,0,1,2032.864,1359.248Zm-21.056-6.179a2.817,2.817,0,0,0-2.814,2.814v.151a2.817,2.817,0,0,0,2.814,2.813h21.056a2.816,2.816,0,0,0,2.813-2.813v-.151a2.816,2.816,0,0,0-2.813-2.814Z" transform="translate(-2008.593 -1352.667)" fill="#ed7d2b"/>
            </g>
          </g>
          <g id="Grupo_28619" data-name="Grupo 28619" transform="translate(2.081)">
            <path id="Trazado_71294" data-name="Trazado 71294" d="M2023.753,1298.458h0a.856.856,0,0,1-.854-.853v-2.811a.856.856,0,0,1,.854-.854h0a.856.856,0,0,1,.853.854v2.811A.856.856,0,0,1,2023.753,1298.458Z" transform="translate(-2022.899 -1293.94)" fill="#2b478b"/>
            <path id="Trazado_71295" data-name="Trazado 71295" d="M2101.741,1298.458h0a.856.856,0,0,1-.853-.853v-2.811a.856.856,0,0,1,.853-.854h0a.856.856,0,0,1,.854.854v2.811A.856.856,0,0,1,2101.741,1298.458Z" transform="translate(-2089.543 -1293.94)" fill="#2b478b"/>
            <path id="Trazado_71296" data-name="Trazado 71296" d="M2179.729,1298.458h0a.856.856,0,0,1-.854-.853v-2.811a.856.856,0,0,1,.854-.854h0a.856.856,0,0,1,.853.854v2.811A.856.856,0,0,1,2179.729,1298.458Z" transform="translate(-2156.185 -1293.94)" fill="#2b478b"/>
          </g>
        </g>
        <path id="Trazado_71297" data-name="Trazado 71297" d="M2027.687,537.328s7.551.874,17.047-3.69l.294,4.325s-4.537,5.615-17.775,6.86Z" transform="translate(-1848.373 -524.851)" fill="#ed7d2b" opacity="0.3"/>
        <path id="Trazado_71298" data-name="Trazado 71298" d="M2043.448,599.981a23.6,23.6,0,0,1-7.562,5.382h-8.9a2.435,2.435,0,0,1-2.433-2.574l.232-3.989,0-.038a55.355,55.355,0,0,0,18.229-5.151Z" transform="translate(-1846.062 -576.1)" fill="#ed7d2b" opacity="0.5"/>
        <path id="Trazado_71299" data-name="Trazado 71299" d="M2047.762,478.723c-1.6,1.476-6.474,5.1-16.582,6.167l.33-5.729a24.425,24.425,0,0,0,14.8-4.125,2.444,2.444,0,0,1,1.332,2.007Z" transform="translate(-1851.729 -474.773)" fill="#ed7d2b" opacity="0.5"/>
      </g>
      <g id="Grupo_28627" data-name="Grupo 28627" transform="translate(41.528 0)">
        <g id="Grupo_28622" data-name="Grupo 28622" transform="translate(0 31.077)">
          <path id="Trazado_71300" data-name="Trazado 71300" d="M1083.18,589.363l-.125-.129,8.565-8.343.034,0c29.855-1.468,58.081-9.111,58.362-9.188l.047.173c-.282.077-28.5,7.719-58.367,9.192Z" transform="translate(-1083.055 -571.702)" fill="#f99746"/>
        </g>
        <g id="Grupo_28624" data-name="Grupo 28624" transform="translate(50.22)">
          <g id="Grupo_28623" data-name="Grupo 28623">
            <path id="Trazado_71301" data-name="Trazado 71301" d="M1619.886,782.588a.86.86,0,0,1,.153.92.006.006,0,0,1,0,0,5.721,5.721,0,0,1-1.807,1.982c-.109.088-.206.168-.29.242l-.065.058-.05.045c-.794.732-.5.9-1.923,2.386-1.627,1.693-2.748,1.724-3.066,1.569-.27-.131.278-1.029.885-2.039.029-.049.058-.1.088-.147.081-.134.161-.27.241-.405.711-1.215.529-1.785.36-3.592-.137-1.469-2.285-8.207-2.285-8.207l3.118-.537s.939,5.365,1.974,6.192c.553.441,1.172.446,1.7.772q.056.034.111.07A4.093,4.093,0,0,1,1619.886,782.588Z" transform="translate(-1585.382 -714.237)" fill="#ffb27d"/>
            <path id="Trazado_71302" data-name="Trazado 71302" d="M1623.644,823.5a.86.86,0,0,1,.153.92.007.007,0,0,1,0,0,6.622,6.622,0,0,1-1.81,1.976c-.108.089-.2.171-.287.248l-.065.058-.05.045c-.794.732-.5.9-1.922,2.386-1.627,1.693-2.748,1.724-3.066,1.569-.27-.132.278-1.03.885-2.039a6.934,6.934,0,0,0,2.9-2.137c.98-1.25,1.633-2.857,2.3-3.787.038.023.075.046.111.07A4.086,4.086,0,0,1,1623.644,823.5Z" transform="translate(-1589.14 -755.145)" fill="#233862"/>
            <path id="Trazado_71303" data-name="Trazado 71303" d="M1437.642,775.066c-.193.963-1.565.8-3.1.427s-1.169.071-3.35-.171-2.843-1.055-2.909-1.379c-.06-.288,1.018-.389,2.175-.523.146-.016.292-.034.438-.052,1.306-.164,2.262-1.006,3.447-1.7,1.123-.655,2.8-3.325,2.8-3.325l2.992.237s-1.57,2.385-2.177,3.422a3.616,3.616,0,0,0-.294,2.039A3.84,3.84,0,0,1,1437.642,775.066Z" transform="translate(-1428.283 -708.663)" fill="#ffb27d"/>
            <path id="Trazado_71304" data-name="Trazado 71304" d="M1434.545,805.308c-1.533-.375-1.169.071-3.35-.171s-2.843-1.055-2.909-1.379c-.06-.288,1.018-.389,2.175-.523l.011.022a6.15,6.15,0,0,0,3.124.971c1.48.036,3.048-.388,4.07-.372a3.84,3.84,0,0,1-.023,1.023C1437.45,805.843,1436.078,805.682,1434.545,805.308Z" transform="translate(-1428.283 -738.477)" fill="#233862"/>
            <path id="Trazado_71305" data-name="Trazado 71305" d="M1571.441,654.858l2.8,7.526,3.651,9.827a5.917,5.917,0,0,0,1.94-.177,8.422,8.422,0,0,0,1.876-.913s-1.014-10.552-2.906-16.609a10.785,10.785,0,0,0-1.627-3.52C1574.241,647.527,1571.441,654.858,1571.441,654.858Z" transform="translate(-1550.616 -607.586)" fill="#ffc74a"/>
            <path id="Trazado_71306" data-name="Trazado 71306" d="M1493.833,592.036c1.832-.591,7.059.168,12.308,1.2l1.1-1.813,11.34-.886s3.742,8.3,1.694,13.585a1.918,1.918,0,0,1-1.919,1.292h-.166l-8.941,0c-5.639,0-11.935-3.876-12.749-4.039-1.333-.266-1.866,2.4-3.2,5.2s-12.53,12.4-12.53,12.4a9.858,9.858,0,0,1-2.432-.249,2.4,2.4,0,0,1-1.044-.659S1489.7,593.369,1493.833,592.036Z" transform="translate(-1470.163 -556.717)" fill="#ffc74a"/>
            <path id="Trazado_71307" data-name="Trazado 71307" d="M1657.015,375.986a123.957,123.957,0,0,0,11.809,8.556s2.67,1.8,4.593,1.084c3.205-1.186,5.86-5.788,1.8-11.246-2.026-2.722-3.774-3.675-3.171-7.121.653-3.734-.8-8.547-5.112-8.972a11.952,11.952,0,0,0-4.124-.034C1658.758,359.294,1651.32,373.759,1657.015,375.986Z" transform="translate(-1621.973 -358.072)" fill="#a9453d"/>
            <path id="Trazado_71308" data-name="Trazado 71308" d="M1703.78,436.618a5.662,5.662,0,0,0,3.335.951,5.5,5.5,0,0,0,2.65-2.019c-.552-.158-.956-.829-.672-4.143l-.258.029-4.336.495s-.013,1.351-.114,2.616C1704.3,435.609,1704.033,436.524,1703.78,436.618Z" transform="translate(-1663.703 -420.738)" fill="#ffb27d"/>
            <path id="Trazado_71309" data-name="Trazado 71309" d="M1708.045,432.1s-.013,1.351-.114,2.616c2.393.128,3.834-1.946,4.45-3.111Z" transform="translate(-1667.25 -420.91)" fill="#ed975d"/>
            <path id="Trazado_71310" data-name="Trazado 71310" d="M1694.308,387.6s5.642.556,5.934-2.962,1.218-5.817-2.372-6.321-4.4.78-4.785,1.931S1692.848,387.365,1694.308,387.6Z" transform="translate(-1654.41 -375.276)" fill="#ffb27d"/>
            <path id="Trazado_71311" data-name="Trazado 71311" d="M1706.712,371.887s.71,4.3,3.924,5.319c2.344.744,3.406.254,3.406.254a9.554,9.554,0,0,1-1.53-3.577,1.72,1.72,0,0,0-1.147-1.313C1709.7,372.022,1707.681,370.524,1706.712,371.887Z" transform="translate(-1666.209 -369.401)" fill="#a9453d"/>
            <path id="Trazado_71312" data-name="Trazado 71312" d="M1694.369,375.675a3.733,3.733,0,0,0-2.005,1.609,7.2,7.2,0,0,0-1.01,3.477s-.987-3.979.453-5.459A1.5,1.5,0,0,1,1694.369,375.675Z" transform="translate(-1652.803 -372.272)" fill="#a9453d"/>
            <path id="Trazado_71313" data-name="Trazado 71313" d="M1688.908,470.945c-.1.427-.187.821-.257,1.183-.115.585-.194,1.09-.25,1.535-.172,1.388-.12,2.21-.237,3.109a7.743,7.743,0,0,1-.422,1.693c-.233.644-6.364,1.219-9.853.987a4.781,4.781,0,0,1-2.251-.486c-1.244-1.081-1.12,1.3-1.291-10.077-.083-5.548,4.708-10.488,4.708-10.488s.382,2.37,5.133-.451c.169-.1,2.04,2.672,3.84,6.083C1690.012,467.8,1689.468,468.6,1688.908,470.945Z" transform="translate(-1638.552 -443.419)" fill="#58a5f8"/>
            <path id="Trazado_71314" data-name="Trazado 71314" d="M1590.669,688.528l3.652,9.827a5.914,5.914,0,0,0,1.94-.177,8.416,8.416,0,0,0,1.876-.913s-1.014-10.552-2.906-16.608Z" transform="translate(-1567.047 -633.73)" fill="#ffc74a"/>
            <path id="Trazado_71315" data-name="Trazado 71315" d="M1647.963,461.058s-4.888.829-5.462,2.933-4.539,13.874-4.539,13.874,3.073,1.048,4.22-.1,3.994-10.65,3.994-10.65Z" transform="translate(-1607.46 -446.077)" fill="#58a5f8"/>
            <path id="Trazado_71316" data-name="Trazado 71316" d="M1540.3,554.83l-1.158-.459a2.763,2.763,0,0,0-1.073-.036c-.376.118-1.317.106-1.322.26s1.073.635,1.073.635l.034-.013c-.409.927-2.456,1.456-2.555,1.8-.12.412.833.625,1.351.754a2.864,2.864,0,0,0,2.416-.545c.458-.483,1.233-1.147,1.233-1.147Z" transform="translate(-1519.727 -525.746)" fill="#ffb27d"/>
            <path id="Trazado_71317" data-name="Trazado 71317" d="M1699.71,427.851a.97.97,0,0,1-.861.579c-.625,0-.793-.093-.912-.226a1.956,1.956,0,0,1-.235-.387A5.306,5.306,0,0,1,1699.71,427.851Z" transform="translate(-1658.509 -417.601)" fill="#fff"/>
            <path id="Trazado_71318" data-name="Trazado 71318" d="M1577.591,538.535l-11.833.9a3.69,3.69,0,0,0,.516,2.449s10.675,2.087,13.462,1.021,2.472-6.093,2.472-6.093Z" transform="translate(-1545.727 -510.814)" fill="#58a5f8"/>
            <path id="Trazado_71319" data-name="Trazado 71319" d="M1665.719,538.515l-.786-.966a2.764,2.764,0,0,0-.918-.555c-.386-.081-1.2-.551-1.281-.419s.626,1.078.626,1.078l.036.005c-.81.609-2.854.071-3.107.32-.306.3.421.952.811,1.318a2.863,2.863,0,0,0,2.375.7c.636-.2,1.636-.4,1.636-.4Z" transform="translate(-1626.477 -510.588)" fill="#ffb27d"/>
            <path id="Trazado_71320" data-name="Trazado 71320" d="M1708.646,564.112c-.172,1.388-.12,2.21-.237,3.109-4.438.014-10.371-3.427-10.371-3.427Z" transform="translate(-1658.797 -533.867)" fill="#94b0ed"/>
            <path id="Trazado_71321" data-name="Trazado 71321" d="M1698.038,510.407s6.914-.206,8.079-4.136c1.28-4.317,2.714,1.775,2.714,1.775l-.763,3.889h-7.585Z" transform="translate(-1658.797 -483.391)" fill="#94b0ed"/>
            <path id="Trazado_71322" data-name="Trazado 71322" d="M1698.439,457.972s4.488.294,5.61,2.044,2.513,10.637,1.93,13.689-14.956-.583-14.956-.583l.458-2.648s8.294.048,8.767-1.032C1700.877,468.005,1698.439,457.972,1698.439,457.972Z" transform="translate(-1652.802 -443.439)" fill="#58a5f8"/>
          </g>
        </g>
        <g id="Grupo_28625" data-name="Grupo 28625" transform="translate(86.559 24.849)">
          <path id="Trazado_71323" data-name="Trazado 71323" d="M1693.385,532.956a62.745,62.745,0,0,1-15.233-1.541.09.09,0,1,1,.045-.174c4.933,1.291,14.517,2.43,32.158.524,10.554-1.14,19.1-2.856,19.187-2.873a.09.09,0,1,1,.036.176c-.085.017-8.641,1.735-19.2,2.876A162.251,162.251,0,0,1,1693.385,532.956Z" transform="translate(-1678.085 -528.891)" fill="#f99746"/>
        </g>
        <g id="Grupo_28626" data-name="Grupo 28626" transform="translate(67.488 28.618)">
          <path id="Trazado_71324" data-name="Trazado 71324" d="M1552.52,556.8a53.183,53.183,0,0,1-5.457-.288.09.09,0,1,1,.019-.179c11.116,1.147,17.161-1.5,17.22-1.528a.09.09,0,0,1,.074.164C1564.326,554.991,1560.2,556.8,1552.52,556.8Z" transform="translate(-1546.983 -554.797)" fill="#f99746"/>
        </g>
      </g>
      <g id="Grupo_28628" data-name="Grupo 28628" transform="translate(171.501 86.758)">
        <circle id="Elipse_971" data-name="Elipse 971" cx="16.334" cy="16.334" r="16.334" transform="translate(0 5.233) rotate(-9.217)" fill="#2a4e96"/>
        <path id="Trazado_71325" data-name="Trazado 71325" d="M2020.76,1012.779a12.3,12.3,0,1,1,12.3,12.3A12.3,12.3,0,0,1,2020.76,1012.779Z" transform="translate(-2014.325 -993.782)" fill="#fff"/>
      </g>
      <g id="Grupo_28629" data-name="Grupo 28629" transform="translate(176.081 60.085)">
        <circle id="Elipse_972" data-name="Elipse 972" cx="9.98" cy="9.98" r="9.98" transform="matrix(0.169, -0.986, 0.986, 0.169, 0, 19.673)" fill="#2a4e96"/>
        <path id="Trazado_71326" data-name="Trazado 71326" d="M2035.531,807.233a7.518,7.518,0,1,1,7.518,7.518A7.518,7.518,0,0,1,2035.531,807.233Z" transform="translate(-2031.527 -795.554)" fill="#fff"/>
      </g>
      <g id="Grupo_28631" data-name="Grupo 28631" transform="translate(136.451 82.576)">
        <path id="Trazado_71327" data-name="Trazado 71327" d="M1867.967,1041.967s5.862,1.6,8.9.85,8.879-3.964,8.879-3.964l.92,1.608s-4.779,7.119-9.2,7.928S1867.967,1041.967,1867.967,1041.967Z" transform="translate(-1848.709 -1022.396)" fill="#ffc74a"/>
        <path id="Trazado_71328" data-name="Trazado 71328" d="M2055.212,1186.772s3.037,1.21,4.061.887,2.79-1.311,3.108-2.123-2.084.212-2.9,0a5.321,5.321,0,0,0-3.284,0C2054.611,1186,2055.212,1186.772,2055.212,1186.772Z" transform="translate(-2008.62 -1147.469)" fill="#ffb27d"/>
        <path id="Trazado_71329" data-name="Trazado 71329" d="M1866.1,1667.157s.229,3.694.915,4.563h10.555a1.878,1.878,0,0,0-1.685-1.508c-1.668-.29-4.46-1.462-5.469-3.666C1869.356,1664.226,1866.1,1667.157,1866.1,1667.157Z" transform="translate(-1847.116 -1558.015)" fill="#163560"/>
        <path id="Trazado_71330" data-name="Trazado 71330" d="M1735.837,1663.928s-.7,4.6.207,4.682c.12.011,4.348,0,5.5.176a28.849,28.849,0,0,0,5.008.036.5.5,0,0,0,.449-.746,2,2,0,0,0-1.434-.92c-1.662-.32-4.432-1.541-5.4-3.762C1739.14,1661.056,1735.837,1663.928,1735.837,1663.928Z" transform="translate(-1735.581 -1555.301)" fill="#163560"/>
        <path id="Trazado_71331" data-name="Trazado 71331" d="M1761.034,1284.609s-2.654,9.287-10.261,25.414-8.194,23.477-8.194,23.477l-5.24-.247s.493-19.2,4.086-27.334,4.325-30.409,4.325-30.409Z" transform="translate(-1737.084 -1224.627)" fill="#94b0ed"/>
        <path id="Trazado_71332" data-name="Trazado 71332" d="M1827.9,1283.13a231.618,231.618,0,0,1-2.277,32.037c-2.488,17.657-1.645,25.152-1.645,25.152l-5.959.2s-3.561-17.663-2.54-26.5-4.876-30.326-4.876-30.326Z" transform="translate(-1799.69 -1231.138)" fill="#aec3ff"/>
        <path id="Trazado_71333" data-name="Trazado 71333" d="M1848.68,1010.031l2.811,2.082,4.062-.855c-.056-.37-.324-1.906-.569-3.3-.015-.082-.029-.164-.043-.244-.209-1.183-.39-2.2-.39-2.2l-3.794-1.891-1.415-.705c0,.025.11,1.313.125,1.5A12.147,12.147,0,0,1,1848.68,1010.031Z" transform="translate(-1832.227 -991.692)" fill="#ffb27d"/>
        <path id="Trazado_71334" data-name="Trazado 71334" d="M1813.679,1078.833c.256,2.566-20.278,5.6-20.356,1.3-.068-3.786,2.187-24.623,2.886-27.6,1.235-5.276,2.345-8.289,4.7-8.982.869-.252,4.07.578,6.384,1.25a3.828,3.828,0,0,1,.477.165,4.91,4.91,0,0,1,2.875,3.149c.356,1.2.767,2.74,1.1,4.437a33.922,33.922,0,0,1,.623,4.819c.019.341.029.682.032,1.021.013,1.259.123,2.886.277,4.693.1,1.14.214,2.352.335,3.587.036.354.072.71.106,1.068.025.248.419,8.389.534,10.569,0,.032,0,.059,0,.087a.019.019,0,0,0,0,.011c0,.029,0,.061,0,.091C1813.67,1078.686,1813.676,1078.805,1813.679,1078.833Z" transform="translate(-1784.921 -1026.366)" fill="#ffc74a"/>
        <path id="Trazado_71335" data-name="Trazado 71335" d="M1855.41,1008.621c.833,1.594,3.938,2.973,5.233,3.48-.015-.082-.03-.164-.043-.244-.209-1.183-.39-2.2-.39-2.2l-3.794-1.891C1855.577,1007.753,1855.067,1007.965,1855.41,1008.621Z" transform="translate(-1837.886 -995.831)" fill="#fca56b"/>
        <path id="Trazado_71336" data-name="Trazado 71336" d="M1845.641,953.065s-6.845,2.135-8.109-2.148-3-6.892,1.318-8.436,5.652-.162,6.421,1.165S1847.388,952.4,1845.641,953.065Z" transform="translate(-1821.473 -939.462)" fill="#ffb27d"/>
        <path id="Trazado_71337" data-name="Trazado 71337" d="M1827.674,929.5s-.436,4.984-1.467,4.768-1.965-.377-1.814,1.125,1.58,3.237-1.6,3.5-7.743-7.926-6.871-9.477C1818.443,924.94,1831.313,924.037,1827.674,929.5Z" transform="translate(-1804.145 -925.724)" fill="#163560"/>
        <g id="Grupo_28630" data-name="Grupo 28630" transform="translate(37.036 12.702)">
          <path id="Trazado_71338" data-name="Trazado 71338" d="M1990.176,1016.795a12.932,12.932,0,0,1,2.267-3.242,5.215,5.215,0,0,1,3.712-.305c.3.625-2.139,1.532-2.431,2.093s.867.53-.044,1.5a9.554,9.554,0,0,1-2.584,1.567Z" transform="translate(-1990.176 -1013.04)" fill="#ffb27d"/>
          <path id="Trazado_71339" data-name="Trazado 71339" d="M2002.958,1029.314c.017,0,.826-.095,1.616-.181.582-.063,1.15-.321,1.389-.333.563-.028.167.866-1.051,1.311-1.031.377-1.324.988-2.3,1.152C2001.438,1031.463,2002.958,1029.314,2002.958,1029.314Z" transform="translate(-2000.423 -1026.507)" fill="#ffb27d"/>
        </g>
        <path id="Trazado_71340" data-name="Trazado 71340" d="M1852.519,1035.979c-.089-.038-5.526-1.642-6.116-1.447s-.94,1.338-.94,1.338l8.393,2.391S1853.655,1036.457,1852.519,1035.979Z" transform="translate(-1829.478 -1018.69)" fill="#ed7d2b"/>
        <path id="Trazado_71341" data-name="Trazado 71341" d="M2062.662,1177.484a5.34,5.34,0,0,1,1.819-1.006c.847-.185,1.589-.953,1.589-.583s-.636,1.271-.636,1.589S2062.662,1177.484,2062.662,1177.484Z" transform="translate(-2015.081 -1139.417)" fill="#ffb27d"/>
        <path id="Trazado_71342" data-name="Trazado 71342" d="M1881.327,1130.6c-4.361-1.655-7.666-8.086-7.666-8.086l7.357,2.371c.019.341.03.682.032,1.021C1881.062,1127.167,1881.172,1128.794,1881.327,1130.6Z" transform="translate(-1853.574 -1093.889)" fill="#ffc74a"/>
        <path id="Trazado_71343" data-name="Trazado 71343" d="M1871.3,1084.453l.009-.035a1.614,1.614,0,0,0-.864-1.859c-2.74-1.32-9.837-4.742-10.629-5.167-.836-.448-9.143-8.436-11.629-10.834a1.615,1.615,0,0,0-1.624-.373l-6.883,2.25a1.616,1.616,0,0,0-.412,2.869c5.063,3.47,15.654,10.69,17.558,11.664,3.357,1.716,10.149,2.613,12.656,2.9a1.611,1.611,0,0,0,1.666-.969A3.275,3.275,0,0,0,1871.3,1084.453Z" transform="translate(-1823.587 -1045.684)" fill="#ffc74a"/>
      </g>
    </g>
    <g id="Grupo_28638" data-name="Grupo 28638" transform="translate(94.037 361.493)">
      <path id="Trazado_71344" data-name="Trazado 71344" d="M234.714,1256.277s-8.4.795-12.9,13.95-3.192,37.69-6.522,40.149-21.283-3.822-22.719.216,0,4.517-3.95,2.6-10.652-2.576-9.216.627-7.421,1.055-7.181,5.42h45.2s21.4-2.218,20.656-11.793-8.293-31.892-3.748-40.335a41.494,41.494,0,0,1,10.486-12.825Z" transform="translate(-172.22 -1210.316)" fill="#8acc59"/>
      <g id="Grupo_28633" data-name="Grupo 28633" transform="translate(31.95)">
        <path id="Trazado_71345" data-name="Trazado 71345" d="M466.574,1331.973l-1.9.707s-8.25-11.442-9.266-21.509a15.29,15.29,0,0,1,.271-5.147s-.081-.461-.222-1.275c-.065-.38-.146-.838-.237-1.362-.268-1.537-.637-3.639-1.059-6.034-.971-5.509-2.228-12.553-3.205-17.73l.512-.164,5.537-1.786,1.144-3.635,4.123-1.086s.921,1.8,1.745,10.314c.152,1.116.29,2.348.394,3.683a72.888,72.888,0,0,1-.392,14.91q-.284,2.219-.724,4.576a20.418,20.418,0,0,0-.158,4.519C463.553,1319.184,466.574,1331.973,466.574,1331.973Z" transform="translate(-442.359 -1226.263)" fill="#aec3ff"/>
        <path id="Trazado_71346" data-name="Trazado 71346" d="M464.412,1286.949l-8.954,17.8c-.065-.38-.146-.838-.237-1.362-.268-1.537-.637-3.639-1.059-6.034-.971-5.509-2.228-12.553-3.205-17.73l.512-.164,5.537-1.786,1.144-3.635,4.123-1.086s.921,1.8,1.745,10.314C464.171,1284.383,464.308,1285.614,464.412,1286.949Z" transform="translate(-442.359 -1226.263)" fill="#94b0ed"/>
        <path id="Trazado_71347" data-name="Trazado 71347" d="M411.862,1263.076l-.207-1.777c-3.473.922-12.751-2.577-12.751-2.577s-3.364,2.957-2.922,10.045c.216,3.46.609,18.161,1.021,22.512.149,1.577.279,2.7.332,3.147a.008.008,0,0,1,0,0,.623.623,0,0,1-.1.385,20.425,20.425,0,0,0-1.518,3.192c-4.037,10.757.622,24.005.622,24.005l1.209-.487s2.651-14.743,4.805-21.256a12.9,12.9,0,0,1,1.037-2.492,28.137,28.137,0,0,0,2.595-6.919,170.175,170.175,0,0,0,3.49-18.355C409.584,1272.508,411.862,1263.076,411.862,1263.076Z" transform="translate(-393.748 -1214.102)" fill="#aec3ff"/>
        <path id="Trazado_71348" data-name="Trazado 71348" d="M567.783,1132.5l-.259,1.739s-.115,0-.316-.015c-.633-.043-2.171-.129-3.91-.316-2.616-.259-5.721-.719-6.957-1.48-1.883-1.15-4.973-4.671-6.986-8.193a2.292,2.292,0,0,1-.144-.259,12.643,12.643,0,0,1-1.84-5.2,7.426,7.426,0,0,1,.244-2.357,6.015,6.015,0,0,1,1.064-2.127,1.074,1.074,0,0,1,.2-.244,4.964,4.964,0,0,1,1.366-1.164c.345-.144.719.029,1.107.446v.014a6.59,6.59,0,0,1,.992,1.466c.014.014.029.029.029.043.072.13.144.273.23.431a.365.365,0,0,1,.057.1q.237.5.474,1.035c1.768,3.852,3.651,9.688,5.218,11.427.676.748,3.766,2.214,6.224,3.306C566.345,1131.926,567.783,1132.5,567.783,1132.5Z" transform="translate(-524.74 -1089.434)" fill="#58a5f8"/>
        <path id="Trazado_71349" data-name="Trazado 71349" d="M494.007,1064.528a10.809,10.809,0,0,1-4,.937c-5.97.327-7.325-4.906-7.572-8.38a5.006,5.006,0,0,1,2.049-.259c.423.023.865.067,1.23.111.73-.381,2.042-2.234,2.8-5.334l.258.12,4.308,2.025s-.457,1.4-.8,2.743a5.459,5.459,0,0,0-.295,2.348c.339.138.543.225.543.225a.013.013,0,0,0,0,0A29.566,29.566,0,0,1,494.007,1064.528Z" transform="translate(-469.259 -1037.113)" fill="#ffb27d"/>
        <path id="Trazado_71350" data-name="Trazado 71350" d="M438.151,1098.454c-.045.119-.095.236-.149.355-1.512,3.256-4.311,16.746-4.311,16.746.4,2.425-18.227-.476-18.275-2.684-.656-2.341,2.328-6.1,4.01-7.991a5.362,5.362,0,0,0,.564-.76,5.3,5.3,0,0,0,.763-2.227,76.91,76.91,0,0,0,.232-7.848h0c.329-.243.647-.468.943-.682a8.43,8.43,0,0,0,1.148-.952,1.737,1.737,0,0,0,.55-1.084,5.767,5.767,0,0,0-.023-.909c-.014-.144-.033-.289-.054-.433a12.317,12.317,0,0,0-.865-2.889,11.2,11.2,0,0,1,4.451-.262s0,.158,0,.417c-.009,1.041,0,3.713.333,4.218.417.63,8.048,3.388,8.451,2.534s-.69-4.778-.73-4.927a.013.013,0,0,1,0,0,12.031,12.031,0,0,1,3.469,1.845C437.112,1091.916,439.342,1095.3,438.151,1098.454Z" transform="translate(-411.91 -1067.122)" fill="#58a5f8"/>
        <path id="Trazado_71351" data-name="Trazado 71351" d="M499.112,955.19c-.009-.259-.21-3.048-4.458-3.194,0,0,2.089.249,2.45,1.167,0,0-1.422-1.135-2.581-.77s-1.839,2.394-1.846,3.062.637,2.82,1.372,3a2.244,2.244,0,0,0,.89,0,9.965,9.965,0,0,0-.571,1.019c-1.7,3.48.053,6.881,1.488,6.5.92-.241,1.181,1.33,1.181,1.33l8.942-7.239S502.7,953.277,499.112,955.19Z" transform="translate(-478.011 -951.996)" fill="#2c3a64"/>
        <path id="Trazado_71352" data-name="Trazado 71352" d="M530.3,1054.455s-.458,1.4-.8,2.743c-2.518-.7-3.283-3.349-3.513-4.768Z" transform="translate(-506.477 -1037.82)" fill="#ed985f"/>
        <path id="Trazado_71353" data-name="Trazado 71353" d="M528.734,1012.184s-6.024-1.394-5.1-5.132.772-6.436,4.658-5.7,4.276,2.343,4.271,3.666S530.324,1012.451,528.734,1012.184Z" transform="translate(-504.382 -994.066)" fill="#ffb27d"/>
        <path id="Trazado_71354" data-name="Trazado 71354" d="M524.007,998.89c-.648-1.355-1.41-1.283-1.887-1.042a4.321,4.321,0,0,0-5.607-.479,7.357,7.357,0,0,1-3.385,3.636s.925.948,3.608.927a4.415,4.415,0,0,0,2.393-.9,14.42,14.42,0,0,1-3.141,2.343c3.358-.643,5.609-4.53,5.84-4.943a4.847,4.847,0,0,1,.874,2.069c.062,1.026-.291,3.019.3,3.094C523,1003.593,524.979,1000.922,524.007,998.89Z" transform="translate(-495.487 -990.064)" fill="#2c3a64"/>
        <path id="Trazado_71355" data-name="Trazado 71355" d="M569.915,1115.567s1.451,2.53,1.668,3.182a3.022,3.022,0,0,0-2.641,1.375S568.759,1115.908,569.915,1115.567Z" transform="translate(-543.171 -1091.772)" fill="#f99746"/>
        <path id="Trazado_71356" data-name="Trazado 71356" d="M456.093,1144.449c-3.674-.039-6.784-3.853-8.685-6.9a5.3,5.3,0,0,0,.763-2.227,76.9,76.9,0,0,0,.232-7.848h0c.329-.243.647-.468.943-.682a8.446,8.446,0,0,0,1.148-.952C453.5,1130.923,461.074,1144.5,456.093,1144.449Z" transform="translate(-439.326 -1100.549)" fill="#58a5f8"/>
        <path id="Trazado_71357" data-name="Trazado 71357" d="M401.471,1668.917H391.9a5.253,5.253,0,0,1,.27-2.564c.479-1.062,1.229-1.544,1.049-2.828a3.445,3.445,0,0,0,2.982,1.141,10.5,10.5,0,0,0,1.66,2.152C398.491,1667.267,401.278,1667.107,401.471,1668.917Z" transform="translate(-391.852 -1560.019)" fill="#233862"/>
        <path id="Trazado_71358" data-name="Trazado 71358" d="M542.383,1671.438h-9.566a3.976,3.976,0,0,1,.27-2.564,1.844,1.844,0,0,0-.069-2.2,3.714,3.714,0,0,0,1.611.3,3.367,3.367,0,0,0,1.423-.5,34.4,34.4,0,0,0,2.726,2.863C539.4,1669.787,542.19,1669.627,542.383,1671.438Z" transform="translate(-512.224 -1562.54)" fill="#233862"/>
        <path id="Trazado_71359" data-name="Trazado 71359" d="M474.207,1115.472l-.385,1.484s-4.777-1-5.827-1.232h-.014c-1.8-.431-3.809-.948-5.505-1.524a15.126,15.126,0,0,1-2.932-1.308,1.768,1.768,0,0,1-.2-.144c-1.682-1.222-3.68-4.815-5.232-8.667-.216-.532-.417-1.064-.618-1.581a39.29,39.29,0,0,1-1.639-5.462,15.438,15.438,0,0,1-.388-2.6,6.369,6.369,0,0,1-.014-.733c.029-4.168,2.1-4.743,2.1-4.743.043-.014.086-.029.144-.043.359-.058.733.187,1.121.661a13.045,13.045,0,0,1,1.538,2.716c.819,1.854,1.682,4.255,2.487,6.641.446,1.308.877,2.616,1.308,3.823.244.733.489,1.423.719,2.055a19.791,19.791,0,0,0,1.207,2.8,6.959,6.959,0,0,0,1.768,1.6C465.365,1110.32,474.207,1115.472,474.207,1115.472Z" transform="translate(-442.776 -1068.992)" fill="#58a5f8"/>
        <path id="Trazado_71360" data-name="Trazado 71360" d="M456.352,1092.345a5.406,5.406,0,0,0-4.9,1.4c.035-4.162,2.106-4.731,2.106-4.731C454.39,1088.666,455.355,1090.109,456.352,1092.345Z" transform="translate(-442.78 -1069.036)" fill="#f99746"/>
      </g>
      <path id="Trazado_71361" data-name="Trazado 71361" d="M1034.622,1360.134c.082.229-34.145,17.589-34.145,17.589a15.291,15.291,0,0,0,9.486.648c5.538-1.282,26.783-13.5,26.783-13.5Z" transform="translate(-879.99 -1300.762)" fill="#2a4e96"/>
      <path id="Trazado_71362" data-name="Trazado 71362" d="M659.52,1263.369s-11.354,18.287-41.659-15.146a4.315,4.315,0,0,0-4.252-1.292l-11.788,2.946a2.221,2.221,0,0,1,1.562.478,3.049,3.049,0,0,1,.619,1.093c2.433,6.786,11.537,29.52,26.3,35.8,17.415,7.415,35.875,3.132,49.683-23.883Z" transform="translate(-539.327 -1203.916)" fill="#8acc59"/>
      <g id="Grupo_28637" data-name="Grupo 28637" transform="translate(152.911 23.182)">
        <path id="Trazado_71363" data-name="Trazado 71363" d="M1406.4,1340.772l-.084.149c-.672,1.167-2.212,4.027-3.908,7.156-.8,1.485-1.643,3.031-2.44,4.485-1.373,2.51-2.623,4.745-3.352,5.926-.742,1.2-1.287,2.045-1.508,2.383h0a.56.56,0,0,0-.072.348,18.219,18.219,0,0,1-.048,3.147A24.143,24.143,0,0,1,1387.1,1380l-2.041.3s2.889-10.7,3.74-16.752a11.635,11.635,0,0,0,.156-2.4,25.053,25.053,0,0,1,.659-6.548,146.668,146.668,0,0,1,4.174-15.156c.1-.3,2.966-10.68,2.966-10.68,2.409,2.106,11.2,2.975,11.2,2.975S1409.441,1335.37,1406.4,1340.772Z" transform="translate(-1361.539 -1297.145)" fill="#ffc74a"/>
        <path id="Trazado_71364" data-name="Trazado 71364" d="M1355.608,1672.94h8.519a4.68,4.68,0,0,0-.241-2.283c-.427-.945-1.034-.975-.078-2.457-.541.557-2.282.788-3.513.622a10.441,10.441,0,0,1-1.477,2.249C1358.262,1671.471,1355.78,1671.328,1355.608,1672.94Z" transform="translate(-1336.372 -1587.196)" fill="#233862"/>
        <path id="Trazado_71365" data-name="Trazado 71365" d="M1496.049,1381.753c-.027.049-.056.1-.084.149-.672,1.167-4.3,7.874-6,11a45.366,45.366,0,0,0,.6-16.176Z" transform="translate(-1451.184 -1338.125)" fill="#ffc74a"/>
        <path id="Trazado_71366" data-name="Trazado 71366" d="M1305.708,1115.033s-.337-3.676,3.77-3.676a4.827,4.827,0,0,0-1.888,1.013,4.857,4.857,0,0,1,5.47.825c2.851,2.363,1.079,8.29,1.946,9.415s4.243,1.35,3.83,4.989-10.714,8.2-10.053,11.206c0,0-4.037-5.934-1.151-8.643a5.351,5.351,0,0,0-1.55,2.9s-.382-3.076,1.576-4.06c1.732-.871,3.151-4.055,3-4.624S1305.708,1115.033,1305.708,1115.033Z" transform="translate(-1293.725 -1111.357)" fill="#2c3a64"/>
        <path id="Trazado_71367" data-name="Trazado 71367" d="M1250.015,1242.739s-5.844,14.746-7.1,14.2-8.68-2.9-8.68-2.9l-.488,1.806s7.062,5.442,10.7,5.68,8.556-10.469,8.556-10.469Z" transform="translate(-1232.234 -1223.627)" fill="#ffb27d"/>
        <g id="Grupo_28636" data-name="Grupo 28636" transform="translate(0 27.748)">
          <g id="Grupo_28634" data-name="Grupo 28634" transform="translate(2.431 18.128)">
            <path id="Trazado_71368" data-name="Trazado 71368" d="M1243.944,1427.6a7.354,7.354,0,1,1-2.973,9.967A7.363,7.363,0,0,1,1243.944,1427.6Zm5.634,10.423a4.494,4.494,0,1,0-6.091-1.817A4.5,4.5,0,0,0,1249.577,1438.026Z" transform="translate(-1240.087 -1426.719)" fill="#2a4e96"/>
          </g>
          <g id="Grupo_28635" data-name="Grupo 28635">
            <path id="Trazado_71369" data-name="Trazado 71369" d="M1223.578,1307.74a7.354,7.354,0,1,1,5.43,8.871A7.363,7.363,0,0,1,1223.578,1307.74Zm2.781.669a4.494,4.494,0,1,0,5.421-3.318A4.5,4.5,0,0,0,1226.359,1308.409Z" transform="translate(-1223.373 -1302.105)" fill="#2a4e96"/>
          </g>
        </g>
        <path id="Trazado_71370" data-name="Trazado 71370" d="M1286.275,1132.723a34.125,34.125,0,0,1,5.115,2.5c2.308,2.56,1.65,5.9.329,5.934-.847.02-.683,1.429-.683,1.429l-9.436-3.992S1282.736,1131.969,1286.275,1132.723Z" transform="translate(-1273.13 -1129.564)" fill="#2c3a64"/>
        <path id="Trazado_71371" data-name="Trazado 71371" d="M1328.151,1244.852s-1.257,1.3-1.257,5.2c0,0,1.731,2.733,6.222,3.425C1333.116,1253.474,1329.255,1244.85,1328.151,1244.852Z" transform="translate(-1311.835 -1225.433)" fill="#aec3ff"/>
        <path id="Trazado_71372" data-name="Trazado 71372" d="M1485.961,1321.938l-.029-1.594c3.175.4,10.946-3.794,10.946-3.794s3.321,2.209,3.776,8.518c.222,3.079,1.626,16.1,1.781,19.989.057,1.409.075,2.415.082,2.817a.009.009,0,0,0,0,0,.554.554,0,0,0,.135.328,18.2,18.2,0,0,1,1.72,2.637c4.844,9.013,2.311,21.26,2.311,21.26l-1.125-.286s-4.1-12.7-6.773-18.187a11.494,11.494,0,0,0-1.212-2.075,25.046,25.046,0,0,1-3.114-5.8C1492.48,1341.034,1485.961,1321.938,1485.961,1321.938Z" transform="translate(-1447.737 -1286.701)" fill="#ffc74a"/>
        <path id="Trazado_71373" data-name="Trazado 71373" d="M1582.007,1672.579h8.519a4.675,4.675,0,0,0-.241-2.284c-.426-.945-1.094-1.375-.934-2.518a3.069,3.069,0,0,1-2.655,1.016,9.352,9.352,0,0,1-1.478,1.916C1584.661,1671.109,1582.178,1670.967,1582.007,1672.579Z" transform="translate(-1529.837 -1586.835)" fill="#233862"/>
        <path id="Trazado_71374" data-name="Trazado 71374" d="M1341.073,1224.88c1.144.2-.187,1.1,1.387,1.276a28.451,28.451,0,0,1,5.765.895,1.3,1.3,0,0,1,.83.672,15.81,15.81,0,0,0,2.84,4.016c14.835-.675,16.463-6.88,16.463-6.88-9.628-9.351-18.48-14.865-25.24-15.595a8.235,8.235,0,0,0-3.662,1.073c-2.368,1.054-3.923,4.092-3.923,4.092S1336.725,1224.139,1341.073,1224.88Z" transform="translate(-1319.217 -1195.01)" fill="#58a5f8"/>
        <path id="Trazado_71375" data-name="Trazado 71375" d="M1383.155,1254.573a28.446,28.446,0,0,1,5.765.9,23.624,23.624,0,0,0-3-12.964S1383.646,1251.773,1383.155,1254.573Z" transform="translate(-1359.912 -1223.426)" fill="#94b0ed"/>
        <path id="Trazado_71376" data-name="Trazado 71376" d="M1343.35,1233.855s5.633-.308,6.635,3.229-1.878,17.654-2.5,19.111c-1.13,2.653-6.629,10.224-6.629,10.224l-2.022-.615s3.667-11.567,4.485-12.711C1344.605,1251.3,1341.663,1235.394,1343.35,1233.855Z" transform="translate(-1322.039 -1216.03)" fill="#ffb27d"/>
        <path id="Trazado_71377" data-name="Trazado 71377" d="M1327.181,1452.07a3.187,3.187,0,0,1-.483,1.36c-.379.463-1.482,1.583-1.5,2.239,0,0,.056.291.292.238s1.057-.866,1.479-.808a8.163,8.163,0,0,1-.448,1.685,4.825,4.825,0,0,0,.088,2.259c.134.319,1.777-1.715,2.453-2.624s.011-4.6.011-4.6Z" transform="translate(-1310.385 -1402.296)" fill="#ffb27d"/>
        <path id="Trazado_71378" data-name="Trazado 71378" d="M1366.714,1235.677c-.015.083-5.331.978-8.656-.709,0,0-2.778-8.7,1.192-8.286s6.32,1.667,6.42,3.567A36.591,36.591,0,0,0,1366.714,1235.677Z" transform="translate(-1337.658 -1209.892)" fill="#58a5f8"/>
        <path id="Trazado_71379" data-name="Trazado 71379" d="M1226.224,1315.386s-1.461-.3-2,.461-.179,3.052.808,2.962,1.082-1.526,1.192-2.065A5.128,5.128,0,0,0,1226.224,1315.386Z" transform="translate(-1223.887 -1285.655)" fill="#ffb27d"/>
        <path id="Trazado_71380" data-name="Trazado 71380" d="M1326.611,1199.355s-1.566,5.844-3.924,4.092a4.829,4.829,0,0,0-.829-1.936c-.619-1.065-1.357-2.152-1.357-2.152l3.188-2.793.191-.167A8.421,8.421,0,0,0,1326.611,1199.355Z" transform="translate(-1306.372 -1184.027)" fill="#ffb27d"/>
        <path id="Trazado_71381" data-name="Trazado 71381" d="M1320.5,1200.341s.737,1.086,1.357,2.151c1.982-1.222,1.984-3.675,1.831-4.946Z" transform="translate(-1306.374 -1185.008)" fill="#ed985f"/>
        <path id="Trazado_71382" data-name="Trazado 71382" d="M1289.369,1168.271s4.812-2.678,3.1-5.648-2.246-5.318-5.391-3.734-3.083,3.059-2.752,4.189S1288.073,1168.891,1289.369,1168.271Z" transform="translate(-1275.328 -1151.539)" fill="#ffb27d"/>
        <path id="Trazado_71383" data-name="Trazado 71383" d="M1279.442,1158.981c.22-1.319.891-1.445,1.358-1.357a3.849,3.849,0,0,1,4.68-1.792,6.551,6.551,0,0,0,3.793,2.278s-.558,1.039-2.859,1.682a3.931,3.931,0,0,1-2.27-.182,12.84,12.84,0,0,0,3.266,1.231c-3.032.278-5.917-2.494-6.216-2.791a4.314,4.314,0,0,0-.238,1.986c.2.893.993,2.512.508,2.721C1281.464,1162.758,1279.111,1160.959,1279.442,1158.981Z" transform="translate(-1271.258 -1149.174)" fill="#2c3a64"/>
      </g>
      <path id="Trazado_71384" data-name="Trazado 71384" d="M1030.08,1407.18c.02-.242-37.514-8.243-37.514-8.243a15.29,15.29,0,0,1,9-3.06c5.682-.181,29.35,6.183,29.35,6.183Z" transform="translate(-873.23 -1331.302)" fill="#2a4e96"/>
      <path id="Trazado_71385" data-name="Trazado 71385" d="M1142.206,1421.939a.821.821,0,1,1-.811.831A.821.821,0,0,1,1142.206,1421.939Z" transform="translate(-1000.41 -1353.577)" fill="#f99746"/>
      <path id="Trazado_71386" data-name="Trazado 71386" d="M589.406,1267.8a23.563,23.563,0,0,1,2.9,1.317,6.031,6.031,0,0,1,1.538,2.211s-.008.26-.251.26-.788-.932-1.186-.783a8.149,8.149,0,0,0,.805,1.546,4.82,4.82,0,0,1,.408,2.224c-.061.341-2.109-1.285-2.967-2.024-.457-.393-.444-1.349-.585-2.427-.124-.946-2.737-1.494-2.737-1.494Z" transform="translate(-526.948 -1221.859)" fill="#ffb27d"/>
    </g>
    <g id="Grupo_28642" data-name="Grupo 28642" transform="translate(374.524 360.01)">
      <g id="Grupo_28640" data-name="Grupo 28640" transform="translate(45.335)">
        <path id="Trazado_71387" data-name="Trazado 71387" d="M2564.867,1084.872a41.292,41.292,0,0,1-3.159,3.4c-2.1,2.021-4.925,4.274-7.4,4.694a3.959,3.959,0,0,1-1.905-.094,11.376,11.376,0,0,1-3.7-2.251,38.611,38.611,0,0,1-6.228-7.291l1.77-2.005s3.959,2.941,6.437,4.52a5.106,5.106,0,0,0,1.911.96c.616-.263,11.267-7.445,11.267-7.445Z" transform="translate(-2523.497 -1059.346)" fill="#ffb27d"/>
        <path id="Trazado_71388" data-name="Trazado 71388" d="M2601.41,1084.872a41.239,41.239,0,0,1-3.159,3.4,80.245,80.245,0,0,1-7.4,4.694,4.413,4.413,0,0,1-1.443.593c-1.308-.077-4.117-1.847-4.117-1.847a6.226,6.226,0,0,1-.043-1.091,8.473,8.473,0,0,1,1.979-4.777,5.106,5.106,0,0,0,1.911.96c.616-.263,11.266-7.445,11.266-7.445Z" transform="translate(-2560.04 -1059.346)" fill="#58a5f8"/>
        <g id="Grupo_28639" data-name="Grupo 28639" transform="translate(0 9.816)">
          <path id="Trazado_71389" data-name="Trazado 71389" d="M2434.457,1050.779c.364,2.23.613,3.851.613,3.851a24.445,24.445,0,0,1-8.918,1.777c-1.019.033-2.03.021-3.015-.023-1.535-.068-3.007-.214-4.349-.4a50.61,50.61,0,0,1-6.778-1.36,24.207,24.207,0,0,1,2.357-10.241c1.415-3.12,3.026-5.5,3.467-7.427.553-2.418-.625-8.054-1.476-11.57-.433-1.781-.782-3.017-.782-3.017-2.972-4.358-1.546-6.914-1.546-6.914s1.385-.577,3.117-1.105l.026-.008c.595-.181,1.229-.356,1.861-.5a14.754,14.754,0,0,1,1.92-.318c1.693-.147,1.782-3.992,1.782-3.992a5.935,5.935,0,0,1,2.345-.26,12.494,12.494,0,0,1,2.053.26s0,3.04,1.423,3.673c.732.326,2.124.921,3.487,1.5h0l.137.057.449.19.583.246.281.119.451.19c1.018.429,1.757.739,1.757.739.634,1.642-1.586,5.33-1.586,5.33a3.762,3.762,0,0,1,.155.829c0,.045.007.092.01.138a20.212,20.212,0,0,1-.492,4.646c-.606,3.173-1.562,6.811-1.789,9.257a5.857,5.857,0,0,0,.077,2.064.6.6,0,0,0,.019.066c.094.283.2.667.31,1.13C2433.033,1042.284,2433.887,1047.279,2434.457,1050.779Z" transform="translate(-2412.009 -1009.275)" fill="#aec3ff"/>
          <path id="Trazado_71390" data-name="Trazado 71390" d="M2438.539,1326.422l-10.521-6.84a2.5,2.5,0,0,1-1.137-2.126l.635-52.969c0-.46-1.052-.932-1.512-.932s-1.83.193-1.83.654l1.226,53.6a1.729,1.729,0,0,1-.786,1.487l-10.969,7.13a.37.37,0,0,0,.2.68h0l11.192-4.907a2.623,2.623,0,0,1,2.106,0l11.192,4.907A.37.37,0,0,0,2438.539,1326.422Z" transform="translate(-2413.262 -1226.565)" fill="#aec3ff"/>
        </g>
        <path id="Trazado_71391" data-name="Trazado 71391" d="M2697.134,1027.169s-2.968,3.521-6.747,2.048a11.454,11.454,0,0,1-.824-3.416c0-.179,0-.352-.006-.516-.021-1.632-.075-2.548-.075-2.548h0c.172-.072,5.778-2.373,5.773-2.182C2695.162,1024.969,2697.134,1027.169,2697.134,1027.169Z" transform="translate(-2649.117 -1009.089)" fill="#ffb27d"/>
        <path id="Trazado_71392" data-name="Trazado 71392" d="M2694.7,1027.614a8.767,8.767,0,0,1-5.139,3.678c-.021-1.632-.075-2.548-.075-2.548h0C2689.64,1028.7,2694.856,1027.319,2694.7,1027.614Z" transform="translate(-2649.117 -1015.096)" fill="#ed975d"/>
        <path id="Trazado_71393" data-name="Trazado 71393" d="M2448.3,1077.652a35.612,35.612,0,0,1-8.238-.042,25.336,25.336,0,0,1-3.227-.626,14.366,14.366,0,0,1-8.625-5.721c1.414-3.119,3.025-5.5,3.467-7.427.552-2.418-.625-8.053-1.478-11.569l.791-11.036h0l.026-.008,1.861-.5s-.631,7.062,9.373,7.477c3.149.131,4.918.56,5.865,1.087.36,4.016-3.056,13.522-2.175,16.169C2446.562,1067.309,2447.631,1073.522,2448.3,1077.652Z" transform="translate(-2425.856 -1026.333)" fill="#ffc74a"/>
        <path id="Trazado_71394" data-name="Trazado 71394" d="M2675.651,973.426s6.3,1.482,7.167-2.458,2.257-6.4-1.732-7.515-5.1.219-5.71,1.464S2674.033,972.938,2675.651,973.426Z" transform="translate(-2636.461 -959.946)" fill="#ffb27d"/>
        <path id="Trazado_71395" data-name="Trazado 71395" d="M2670.212,953.895c.086.055,1.443.472,4.011-4.646a4.457,4.457,0,0,0-.262-4.077c-.94-1.536-4.273-2.743-7.042-3.268s-3.434,1.033-4.086,2.6a8.455,8.455,0,0,1-2.662,3c2.388,1.334,5.264-.574,6.261-.26s1.348,1.884,1.423,2.387.19.922,1.443.472.567,1.776.366,2.2C2669.664,952.3,2669.493,953.434,2670.212,953.895Z" transform="translate(-2624.071 -941.8)" fill="#a9453d"/>
        <path id="Trazado_71396" data-name="Trazado 71396" d="M2840.121,1645h3.817c.8,0,1.689-.8,1.912-2.268s1.867-2.268,2.224-3.469-1.468-2.891-1.468-2.891l-.3-.391-.317-.409-3.024.711s-.075.72-.121,1.637a20.957,20.957,0,0,0-.012,2.1c.089,1.6-.448,3.325-1.871,3.637S2840.121,1645,2840.121,1645Z" transform="translate(-2777.74 -1534.651)" fill="#2c3a64"/>
        <path id="Trazado_71397" data-name="Trazado 71397" d="M2658.153,1668.028h10.119a.918.918,0,0,0,.215-.062c.676-.338.464-2.925.383-3.724-.016-.148-.027-.235-.027-.235s-3.558-2.846-4.048-.667c-.015.068-.033.135-.052.2h0c-.618,2.039-3.379,2.965-4.974,3.223A1.737,1.737,0,0,0,2658.153,1668.028Z" transform="translate(-2622.346 -1557.676)" fill="#2c3a64"/>
        <path id="Trazado_71398" data-name="Trazado 71398" d="M2672.173,1293.788s.54,6.742,1.176,14.846c.863,11.009,1.9,24.531,2,27.093.177,4.448.89,11.563.89,11.563s1.689,1.691,5.07.978a116.417,116.417,0,0,0,3.873-20.9c.013-.176.027-.354.04-.531.8-10.941,2.045-33.979,2.045-33.979Z" transform="translate(-2634.327 -1241.786)" fill="#ffc74a"/>
        <path id="Trazado_71399" data-name="Trazado 71399" d="M2672.173,1293.788s.54,6.742,1.176,14.846l11.837,18.73c.013-.176.027-.354.04-.531.8-10.941,2.045-33.979,2.045-33.979Z" transform="translate(-2634.327 -1241.786)" fill="#ffc74a"/>
        <path id="Trazado_71400" data-name="Trazado 71400" d="M2689.137,1278.915s9.74,24.416,16.144,35.89,8.406,14.677,8.406,14.677,3.669-1.468,4-2.468c0,0-2.449-22.151-6.738-27.552-2.423-3.051-5.27-12.208-5.4-15.41s-.868-9.54-.868-9.54Z" transform="translate(-2648.823 -1226.112)" fill="#ffc74a"/>
        <path id="Trazado_71401" data-name="Trazado 71401" d="M2677.724,1088.125a26.277,26.277,0,0,1-8.105,3.361c-3.463.752-7.693.431-9.111.609a.6.6,0,0,1-.415-.106c-.1-.065-.662-4.337-1.193-9.743-.023-.208-.05-.437-.054-.646l-.009-.075c-.057-.563-.114-1.134-.166-1.713-.072-.812-.14-1.636-.2-2.465q-.074-.965-.143-1.936c-.009-.142-.02-.283-.029-.423-.165-2.384-.286-4.732-.323-6.819q-.009-.519-.011-1.017v-.045c-.008-1.38.029-2.619.12-3.641.023-.261.05-.506.082-.739a13.13,13.13,0,0,1,3.354-6.994L2662.9,1054c1.337.117,2.5.315,3.808-.522,1.414-.906,2.043-2.129,2.329-1.969,2.188,1.28,4.844,4.8,6.032,9.074a48.447,48.447,0,0,1,1.411,7.621q.171,1.57.262,3.19a104.989,104.989,0,0,0,1.742,13.612c.151.826.271,1.485.335,1.941C2678.885,1087.362,2678.078,1087.916,2677.724,1088.125Z" transform="translate(-2622.181 -1035.539)" fill="#58a5f8"/>
        <path id="Trazado_71402" data-name="Trazado 71402" d="M2667.675,1117.272s-1.231,10.471-9.2,16.282c-.049-.643-.1-1.29-.143-1.936-.009-.142-.02-.283-.029-.423-.165-2.384-.286-4.732-.323-6.819-.006-.346-.009-.685-.011-1.017v-.045c.008-1.233.046-2.348.12-3.3A20.024,20.024,0,0,1,2667.675,1117.272Z" transform="translate(-2622.187 -1091.746)" fill="#58a5f8"/>
        <path id="Trazado_71403" data-name="Trazado 71403" d="M2469.607,1046.642s-.224,14.258-8.6,19.456-2.429,35.885-4.866,47.2,21.877,2.084,23.108-10.689-10.618-32.459-10.516-34.9,3.1-18.055,2.779-20.264Z" transform="translate(-2449.571 -1031.391)" fill="#ffc74a"/>
        <path id="Trazado_71404" data-name="Trazado 71404" d="M2502.054,1164.956a17.444,17.444,0,0,1-2.463,1.342,22.982,22.982,0,0,1-5.831.889c-5.113.3-11.06-.034-11.06-.034a3.774,3.774,0,0,1-3.812-.218c-1.333-.752-1.043-.427-2-.94a.6.6,0,0,1-.267-.917,1.357,1.357,0,0,1,.85-.641,5.377,5.377,0,0,1,3.326-.094.839.839,0,0,1-.208-.6c.052-.193,1.349.578,1.922.93,1.925.273,6.459-1.068,9.842-2.211,2.038-.687,3.658-1.3,4.038-1.451a15.826,15.826,0,0,0,2.506-2.429A22.355,22.355,0,0,0,2502.054,1164.956Z" transform="translate(-2467.121 -1127.046)" fill="#ffb27d"/>
        <path id="Trazado_71405" data-name="Trazado 71405" d="M2606.1,1091.432c-4,2.818-11.427,8.092-13.365,9.167a17.623,17.623,0,0,1-5.232,2.572c-3.386-2.3-2.565-6.5-2.565-6.5,2.038-.687,3.658-1.3,4.039-1.451,1.016-.392,9.282-10.174,9.282-10.174s3.15-4.046,5.984-3.38a5.242,5.242,0,0,1,3.966,4.179A5.3,5.3,0,0,1,2606.1,1091.432Z" transform="translate(-2559.704 -1061.258)" fill="#58a5f8"/>
      </g>
      <g id="Grupo_28641" data-name="Grupo 28641" transform="translate(0 81.364)">
        <path id="Trazado_71406" data-name="Trazado 71406" d="M2117.022,1530.383H2102.8a2.435,2.435,0,0,1-2.433-2.574l.231-3.989,0-.038.156-2.689.433-7.5.138-2.361.33-5.729.122-2.093a2.434,2.434,0,0,1,2.429-2.294h11.154a2.408,2.408,0,0,1,1.1.262,2.442,2.442,0,0,1,1.332,2.007l.115,1.681.328,4.837.052.763.541,7.962.433,6.37.19,2.783A2.435,2.435,0,0,1,2117.022,1530.383Z" transform="translate(-2100.363 -1501.119)" fill="#94b0ed"/>
        <path id="Trazado_71407" data-name="Trazado 71407" d="M2103.5,1565.214s7.551.874,17.047-3.69l.294,4.325s-4.536,5.615-17.775,6.86Z" transform="translate(-2102.672 -1552.737)" fill="#aec3ff" opacity="0.5"/>
        <path id="Trazado_71408" data-name="Trazado 71408" d="M2119.262,1627.867a23.6,23.6,0,0,1-7.562,5.382h-8.9a2.435,2.435,0,0,1-2.433-2.574l.231-3.989,0-.038a55.353,55.353,0,0,0,18.229-5.151Z" transform="translate(-2100.363 -1603.986)" fill="#aec3ff" opacity="0.5"/>
        <path id="Trazado_71409" data-name="Trazado 71409" d="M2123.575,1506.609c-1.6,1.476-6.474,5.1-16.582,6.167l.331-5.729a24.423,24.423,0,0,0,14.8-4.125,2.443,2.443,0,0,1,1.332,2.007Z" transform="translate(-2106.029 -1502.659)" fill="#aec3ff" opacity="0.5"/>
      </g>
    </g>
  </g>
</svg>
