<svg xmlns="http://www.w3.org/2000/svg" xmlns:xlink="http://www.w3.org/1999/xlink" width="732" height="259.62" viewBox="0 0 732 259.62">
  <defs>
    <filter id="Trazado_1178" x="51.744" y="4.75" width="106.438" height="107.438" filterUnits="userSpaceOnUse">
      <feOffset dy="10" input="SourceAlpha"/>
      <feGaussianBlur stdDeviation="3" result="blur"/>
      <feFlood flood-opacity="0.161"/>
      <feComposite operator="in" in2="blur"/>
      <feComposite in="SourceGraphic"/>
    </filter>
    <filter id="Trazado_1178-2" x="219.168" y="4.75" width="106.438" height="107.438" filterUnits="userSpaceOnUse">
      <feOffset dy="10" input="SourceAlpha"/>
      <feGaussianBlur stdDeviation="3" result="blur-2"/>
      <feFlood flood-opacity="0.161"/>
      <feComposite operator="in" in2="blur-2"/>
      <feComposite in="SourceGraphic"/>
    </filter>
    <filter id="Trazado_1178-3" x="393.168" y="4.75" width="106.438" height="107.438" filterUnits="userSpaceOnUse">
      <feOffset dy="10" input="SourceAlpha"/>
      <feGaussianBlur stdDeviation="3" result="blur-3"/>
      <feFlood flood-opacity="0.161"/>
      <feComposite operator="in" in2="blur-3"/>
      <feComposite in="SourceGraphic"/>
    </filter>
    <filter id="Trazado_1178-4" x="571.593" y="4.75" width="106.438" height="107.438" filterUnits="userSpaceOnUse">
      <feOffset dy="10" input="SourceAlpha"/>
      <feGaussianBlur stdDeviation="3" result="blur-4"/>
      <feFlood flood-opacity="0.161"/>
      <feComposite operator="in" in2="blur-4"/>
      <feComposite in="SourceGraphic"/>
    </filter>
  </defs>
  <g id="Grupo_29122" data-name="Grupo 29122" transform="translate(-228 -5465.65)">
    <g id="Grupo_28516" data-name="Grupo 28516">
      <g id="Grupo_28170" data-name="Grupo 28170" transform="translate(0 -576)">
        <path id="Trazado_77045" data-name="Trazado 77045" d="M44.9,9.1h3.287l-1.617-5.1Zm.167-8.06h3.059L52.711,14H49.775l-.835-2.663H44.168L43.271,14h-2.83Zm11.039,9.9a1.673,1.673,0,0,0,.343.949,2.317,2.317,0,0,0,1.723.5,2.626,2.626,0,0,0,1.173-.22.737.737,0,0,0,.083-1.3,14.3,14.3,0,0,0-2.61-.756A5.437,5.437,0,0,1,54.521,9.1a2.191,2.191,0,0,1-.668-1.723A2.988,2.988,0,0,1,54.9,5.1a4.183,4.183,0,0,1,2.931-.954,5.378,5.378,0,0,1,2.922.716,3.068,3.068,0,0,1,1.3,2.474h-2.5a1.482,1.482,0,0,0-.272-.765,1.714,1.714,0,0,0-1.406-.51,2.021,2.021,0,0,0-1.165.255.734.734,0,0,0-.347.6.654.654,0,0,0,.369.624,15.98,15.98,0,0,0,2.61.694A4.8,4.8,0,0,1,61.57,9.3a2.415,2.415,0,0,1,.738,1.8,2.911,2.911,0,0,1-1.059,2.325,4.976,4.976,0,0,1-3.274.9,4.929,4.929,0,0,1-3.335-.954,3.1,3.1,0,0,1-1.077-2.43ZM67.942,6.23a1.7,1.7,0,0,0-1.349.545,2.72,2.72,0,0,0-.6,1.477h3.894a2.181,2.181,0,0,0-.6-1.507A1.87,1.87,0,0,0,67.942,6.23Zm0-2.065a5.021,5.021,0,0,1,2.153.448,3.772,3.772,0,0,1,1.582,1.415,4.828,4.828,0,0,1,.729,1.978,12.771,12.771,0,0,1,.079,1.9H65.93a2.381,2.381,0,0,0,.905,2.021,2.132,2.132,0,0,0,1.248.36,1.8,1.8,0,0,0,1.257-.439,2.087,2.087,0,0,0,.466-.659h2.558a3.178,3.178,0,0,1-.888,1.731,4.349,4.349,0,0,1-3.445,1.4A4.858,4.858,0,0,1,64.8,13.139a4.75,4.75,0,0,1-1.4-3.832,5.326,5.326,0,0,1,1.261-3.814A4.312,4.312,0,0,1,67.942,4.165Zm10.345,7.778a1.935,1.935,0,0,0,1.485-.664,3.072,3.072,0,0,0,.606-2.114A3.235,3.235,0,0,0,79.8,7.092a1.882,1.882,0,0,0-1.542-.712,1.818,1.818,0,0,0-1.819,1.239,4.395,4.395,0,0,0-.264,1.626,3.71,3.71,0,0,0,.281,1.485A1.833,1.833,0,0,0,78.287,11.943Zm-.624-7.752a3.3,3.3,0,0,1,1.257.22A3.01,3.01,0,0,1,80.4,5.8V4.42h2.435v9.088a5.09,5.09,0,0,1-.624,2.795q-1.072,1.617-4.113,1.617a5.6,5.6,0,0,1-3-.721,2.659,2.659,0,0,1-1.283-2.153h2.725a1.128,1.128,0,0,0,.343.633,2.117,2.117,0,0,0,1.362.343,1.83,1.83,0,0,0,1.811-.905,4.585,4.585,0,0,0,.3-1.951V12.55a3.055,3.055,0,0,1-.773.923,3.11,3.11,0,0,1-1.942.571,3.676,3.676,0,0,1-2.949-1.3,5.241,5.241,0,0,1-1.1-3.511,5.919,5.919,0,0,1,1.063-3.59A3.514,3.514,0,0,1,77.663,4.191Zm10,.229v5.774a3.023,3.023,0,0,0,.193,1.23,1.338,1.338,0,0,0,1.345.729,1.758,1.758,0,0,0,1.758-1.037,3.754,3.754,0,0,0,.246-1.485V4.42h2.54V14H91.313V12.646q-.035.044-.176.264a1.764,1.764,0,0,1-.334.387,3.488,3.488,0,0,1-1.138.721,3.879,3.879,0,0,1-1.288.193,2.87,2.87,0,0,1-2.865-1.529,5.852,5.852,0,0,1-.413-2.487V4.42Zm13.7-.229q.07,0,.119,0l.215.013V6.775q-.237-.026-.422-.035t-.3-.009a2.078,2.078,0,0,0-2.03.984,3.829,3.829,0,0,0-.29,1.705V14H96.138V4.42h2.391V6.09a5.3,5.3,0,0,1,1.011-1.31A2.752,2.752,0,0,1,101.367,4.191Zm7.084,5.15a2.722,2.722,0,0,1-.479.242,4.006,4.006,0,0,1-.664.171l-.562.105a3.632,3.632,0,0,0-1.134.343,1.149,1.149,0,0,0-.58,1.063,1.12,1.12,0,0,0,.356.927,1.34,1.34,0,0,0,.866.286,2.551,2.551,0,0,0,1.49-.475,2.024,2.024,0,0,0,.708-1.731Zm-1.521-1.169a3.91,3.91,0,0,0,.993-.22.753.753,0,0,0,.536-.712.845.845,0,0,0-.409-.813,2.553,2.553,0,0,0-1.2-.224,1.563,1.563,0,0,0-1.257.439,1.827,1.827,0,0,0-.352.879h-2.417a3.676,3.676,0,0,1,.7-2.065,4.09,4.09,0,0,1,3.41-1.266,6.059,6.059,0,0,1,2.795.624,2.4,2.4,0,0,1,1.222,2.355v4.395q0,.457.018,1.107a1.392,1.392,0,0,0,.149.668.9.9,0,0,0,.369.29V14h-2.725a2.79,2.79,0,0,1-.158-.545q-.044-.255-.07-.58a5.146,5.146,0,0,1-1.2.958,3.6,3.6,0,0,1-1.828.466,3.143,3.143,0,0,1-2.149-.743,2.649,2.649,0,0,1-.848-2.1,2.732,2.732,0,0,1,1.362-2.558,6.049,6.049,0,0,1,2.2-.615Zm11.452-3.981q.07,0,.119,0l.215.013V6.775q-.237-.026-.422-.035t-.3-.009a2.078,2.078,0,0,0-2.03.984,3.829,3.829,0,0,0-.29,1.705V14h-2.522V4.42h2.391V6.09a5.3,5.3,0,0,1,1.011-1.31A2.752,2.752,0,0,1,118.383,4.191ZM34.25,33.21a3.77,3.77,0,0,0-.505-1.96A1.759,1.759,0,0,0,32.1,30.4a1.865,1.865,0,0,0-1.872,1.292,4.9,4.9,0,0,0-.264,1.74,2.776,2.776,0,0,0,.888,2.347,2.021,2.021,0,0,0,1.248.4,1.809,1.809,0,0,0,1.6-.809A3.771,3.771,0,0,0,34.25,33.21Zm-1.424-5a3.753,3.753,0,0,1,2.843,1.239,5.127,5.127,0,0,1,1.165,3.639A5.771,5.771,0,0,1,35.7,36.945a3.685,3.685,0,0,1-2.931,1.327,3.059,3.059,0,0,1-1.9-.571,3.683,3.683,0,0,1-.809-.923v4.992H27.579V28.42h2.4v1.415a4.021,4.021,0,0,1,.861-.984A3.165,3.165,0,0,1,32.826,28.209Zm11.021-.018q.07,0,.119,0l.215.013v2.566q-.237-.026-.422-.035t-.3-.009a2.078,2.078,0,0,0-2.03.984,3.829,3.829,0,0,0-.29,1.705V38H38.618V28.42h2.391v1.67a5.3,5.3,0,0,1,1.011-1.31A2.752,2.752,0,0,1,43.847,28.191Zm6.1,8.042a1.985,1.985,0,0,0,1.688-.782,3.639,3.639,0,0,0,.589-2.224,3.619,3.619,0,0,0-.589-2.219,2.224,2.224,0,0,0-3.379,0,3.6,3.6,0,0,0-.593,2.219,3.619,3.619,0,0,0,.593,2.224A2,2,0,0,0,49.947,36.233Zm4.9-3.006a5.553,5.553,0,0,1-1.213,3.608,4.456,4.456,0,0,1-3.683,1.5,4.456,4.456,0,0,1-3.683-1.5,5.953,5.953,0,0,1,0-7.2,4.426,4.426,0,0,1,3.683-1.521,4.426,4.426,0,0,1,3.683,1.521A5.59,5.59,0,0,1,54.851,33.228Zm7.515-1.371a2.223,2.223,0,0,0-.36-.967,1.511,1.511,0,0,0-1.31-.58,1.725,1.725,0,0,0-1.731,1.257,5.255,5.255,0,0,0-.246,1.775,4.832,4.832,0,0,0,.246,1.7,1.671,1.671,0,0,0,1.688,1.2,1.488,1.488,0,0,0,1.248-.475,2.362,2.362,0,0,0,.448-1.23h2.558a4.191,4.191,0,0,1-.826,2.162,4.016,4.016,0,0,1-3.489,1.644,4.082,4.082,0,0,1-3.4-1.371A5.548,5.548,0,0,1,56.1,33.4a5.63,5.63,0,0,1,1.2-3.841,4.191,4.191,0,0,1,3.322-1.371A5,5,0,0,1,63.574,29a3.761,3.761,0,0,1,1.358,2.856Zm8.068-1.626a1.7,1.7,0,0,0-1.349.545,2.72,2.72,0,0,0-.6,1.477h3.894a2.181,2.181,0,0,0-.6-1.507A1.87,1.87,0,0,0,70.434,30.23Zm0-2.065a5.021,5.021,0,0,1,2.153.448,3.772,3.772,0,0,1,1.582,1.415,4.828,4.828,0,0,1,.729,1.978,12.771,12.771,0,0,1,.079,1.9H68.421a2.381,2.381,0,0,0,.905,2.021,2.132,2.132,0,0,0,1.248.36,1.8,1.8,0,0,0,1.257-.439,2.087,2.087,0,0,0,.466-.659h2.558a3.178,3.178,0,0,1-.888,1.731,4.349,4.349,0,0,1-3.445,1.4A4.858,4.858,0,0,1,67.3,37.139a4.75,4.75,0,0,1-1.4-3.832,5.326,5.326,0,0,1,1.261-3.814A4.312,4.312,0,0,1,70.434,28.165Zm8.183,6.776a1.673,1.673,0,0,0,.343.949,2.317,2.317,0,0,0,1.723.5,2.626,2.626,0,0,0,1.173-.22.737.737,0,0,0,.083-1.3,14.3,14.3,0,0,0-2.61-.756A5.437,5.437,0,0,1,77.035,33.1a2.191,2.191,0,0,1-.668-1.723A2.988,2.988,0,0,1,77.408,29.1a4.183,4.183,0,0,1,2.931-.954,5.378,5.378,0,0,1,2.922.716,3.068,3.068,0,0,1,1.3,2.474h-2.5a1.482,1.482,0,0,0-.272-.765,1.714,1.714,0,0,0-1.406-.51,2.021,2.021,0,0,0-1.165.255.734.734,0,0,0-.347.6.654.654,0,0,0,.369.624,15.98,15.98,0,0,0,2.61.694A4.8,4.8,0,0,1,84.083,33.3a2.415,2.415,0,0,1,.738,1.8,2.911,2.911,0,0,1-1.059,2.325,6.354,6.354,0,0,1-6.609-.053,3.1,3.1,0,0,1-1.077-2.43Zm12.357,1.292a1.985,1.985,0,0,0,1.688-.782,3.639,3.639,0,0,0,.589-2.224,3.619,3.619,0,0,0-.589-2.219,2.224,2.224,0,0,0-3.379,0,3.6,3.6,0,0,0-.593,2.219,3.619,3.619,0,0,0,.593,2.224A2,2,0,0,0,90.974,36.233Zm4.9-3.006a5.553,5.553,0,0,1-1.213,3.608,5.274,5.274,0,0,1-7.365,0,5.953,5.953,0,0,1,0-7.2,5.22,5.22,0,0,1,7.365,0A5.59,5.59,0,0,1,95.878,33.228Zm3.744,1.714a1.673,1.673,0,0,0,.343.949,2.317,2.317,0,0,0,1.723.5,2.626,2.626,0,0,0,1.173-.22.737.737,0,0,0,.083-1.3,14.3,14.3,0,0,0-2.61-.756A5.437,5.437,0,0,1,98.041,33.1a2.191,2.191,0,0,1-.668-1.723A2.988,2.988,0,0,1,98.414,29.1a4.183,4.183,0,0,1,2.931-.954,5.378,5.378,0,0,1,2.922.716,3.068,3.068,0,0,1,1.3,2.474h-2.5a1.482,1.482,0,0,0-.272-.765,1.714,1.714,0,0,0-1.406-.51,2.021,2.021,0,0,0-1.165.255.734.734,0,0,0-.347.6.654.654,0,0,0,.369.624,15.98,15.98,0,0,0,2.61.694,4.8,4.8,0,0,1,2.241,1.063,2.415,2.415,0,0,1,.738,1.8,2.911,2.911,0,0,1-1.059,2.325,6.354,6.354,0,0,1-6.609-.053,3.1,3.1,0,0,1-1.077-2.43Zm16.594-6.75a3.09,3.09,0,0,1,1.547.382,3.043,3.043,0,0,1,1.1,1.059v-4.57h2.54V38h-2.435V36.673a3.533,3.533,0,0,1-1.222,1.239,3.43,3.43,0,0,1-1.705.387,3.56,3.56,0,0,1-2.826-1.358,5.215,5.215,0,0,1-1.147-3.485A6,6,0,0,1,113.2,29.6,3.674,3.674,0,0,1,116.216,28.191Zm.545,8a1.849,1.849,0,0,0,1.617-.791,3.5,3.5,0,0,0,.554-2.048,3.141,3.141,0,0,0-.888-2.514,1.91,1.91,0,0,0-1.266-.457,1.759,1.759,0,0,0-1.613.831,4.478,4.478,0,0,0,.009,4.184A1.769,1.769,0,0,0,116.761,36.189Zm10.7-5.959a1.7,1.7,0,0,0-1.349.545,2.72,2.72,0,0,0-.6,1.477H129.4a2.181,2.181,0,0,0-.6-1.507A1.87,1.87,0,0,0,127.458,30.23Zm0-2.065a5.021,5.021,0,0,1,2.153.448,3.772,3.772,0,0,1,1.582,1.415,4.828,4.828,0,0,1,.729,1.978A12.771,12.771,0,0,1,132,33.9h-6.557a2.381,2.381,0,0,0,.905,2.021,2.132,2.132,0,0,0,1.248.36,1.8,1.8,0,0,0,1.257-.439,2.087,2.087,0,0,0,.466-.659h2.558a3.178,3.178,0,0,1-.888,1.731,4.349,4.349,0,0,1-3.445,1.4,4.858,4.858,0,0,1-3.226-1.178,4.75,4.75,0,0,1-1.4-3.832,5.326,5.326,0,0,1,1.261-3.814A4.312,4.312,0,0,1,127.458,28.165ZM38.271,57.21a3.77,3.77,0,0,0-.505-1.96,1.759,1.759,0,0,0-1.639-.853,1.865,1.865,0,0,0-1.872,1.292,4.9,4.9,0,0,0-.264,1.74,2.776,2.776,0,0,0,.888,2.347,2.021,2.021,0,0,0,1.248.4,1.809,1.809,0,0,0,1.6-.809A3.771,3.771,0,0,0,38.271,57.21Zm-1.424-5a3.753,3.753,0,0,1,2.843,1.239,5.127,5.127,0,0,1,1.165,3.639,5.771,5.771,0,0,1-1.138,3.858,3.685,3.685,0,0,1-2.931,1.327,3.059,3.059,0,0,1-1.9-.571,3.683,3.683,0,0,1-.809-.923v4.992H31.6V52.42H34v1.415a4.021,4.021,0,0,1,.861-.984A3.165,3.165,0,0,1,36.847,52.209Zm11.021-.018q.07,0,.119,0l.215.013v2.566q-.237-.026-.422-.035t-.3-.009a2.078,2.078,0,0,0-2.03.984,3.829,3.829,0,0,0-.29,1.705V62H42.639V52.42h2.391v1.67a5.3,5.3,0,0,1,1.011-1.31A2.752,2.752,0,0,1,47.868,52.191Zm6.1,8.042a1.985,1.985,0,0,0,1.688-.782,4.484,4.484,0,0,0,0-4.443,2.224,2.224,0,0,0-3.379,0,4.456,4.456,0,0,0,0,4.443A2,2,0,0,0,53.968,60.233Zm4.9-3.006a5.553,5.553,0,0,1-1.213,3.608,4.456,4.456,0,0,1-3.683,1.5,4.456,4.456,0,0,1-3.683-1.5,5.953,5.953,0,0,1,0-7.2,4.426,4.426,0,0,1,3.683-1.521,4.426,4.426,0,0,1,3.683,1.521A5.59,5.59,0,0,1,58.872,57.228ZM64.2,52.191a3.09,3.09,0,0,1,1.547.382,3.043,3.043,0,0,1,1.1,1.059v-4.57h2.54V62H66.949V60.673a3.533,3.533,0,0,1-1.222,1.239,3.43,3.43,0,0,1-1.705.387A3.56,3.56,0,0,1,61.2,60.941a5.215,5.215,0,0,1-1.147-3.485A6,6,0,0,1,61.179,53.6,3.674,3.674,0,0,1,64.2,52.191Zm.545,8A1.849,1.849,0,0,0,66.36,59.4a3.5,3.5,0,0,0,.554-2.048,3.141,3.141,0,0,0-.888-2.514,1.91,1.91,0,0,0-1.266-.457,1.759,1.759,0,0,0-1.613.831,4.478,4.478,0,0,0,.009,4.184A1.769,1.769,0,0,0,64.743,60.189Zm9.413-7.77v5.774a3.023,3.023,0,0,0,.193,1.23,1.338,1.338,0,0,0,1.345.729,1.758,1.758,0,0,0,1.758-1.037,3.754,3.754,0,0,0,.246-1.485V52.42h2.54V62H77.8V60.646q-.035.044-.176.264a1.764,1.764,0,0,1-.334.387,3.488,3.488,0,0,1-1.138.721,3.879,3.879,0,0,1-1.288.193A2.87,2.87,0,0,1,72,60.682a5.852,5.852,0,0,1-.413-2.487V52.42Zm14.221,3.437a2.223,2.223,0,0,0-.36-.967,1.511,1.511,0,0,0-1.31-.58,1.725,1.725,0,0,0-1.731,1.257,5.255,5.255,0,0,0-.246,1.775,4.832,4.832,0,0,0,.246,1.7,1.671,1.671,0,0,0,1.688,1.2,1.488,1.488,0,0,0,1.248-.475,2.362,2.362,0,0,0,.448-1.23h2.558a4.191,4.191,0,0,1-.826,2.162A4.016,4.016,0,0,1,86.6,62.334a4.082,4.082,0,0,1-3.4-1.371,5.548,5.548,0,0,1-1.09-3.56,5.63,5.63,0,0,1,1.2-3.841,4.191,4.191,0,0,1,3.322-1.371A5,5,0,0,1,89.585,53a3.761,3.761,0,0,1,1.358,2.856Zm10.011,0a2.223,2.223,0,0,0-.36-.967,1.511,1.511,0,0,0-1.31-.58,1.725,1.725,0,0,0-1.731,1.257,5.255,5.255,0,0,0-.246,1.775,4.832,4.832,0,0,0,.246,1.7,1.671,1.671,0,0,0,1.688,1.2,1.488,1.488,0,0,0,1.248-.475,2.362,2.362,0,0,0,.448-1.23h2.558a4.191,4.191,0,0,1-.826,2.162,4.016,4.016,0,0,1-3.489,1.644,4.082,4.082,0,0,1-3.4-1.371,5.548,5.548,0,0,1-1.09-3.56,5.63,5.63,0,0,1,1.2-3.841,4.191,4.191,0,0,1,3.322-1.371A5,5,0,0,1,99.6,53a3.761,3.761,0,0,1,1.358,2.856Zm6.864-4.579h-2.54V48.966h2.54Zm-2.54,1.143h2.54V62h-2.54Zm9.264,7.813a1.985,1.985,0,0,0,1.688-.782,4.484,4.484,0,0,0,0-4.443,2.224,2.224,0,0,0-3.379,0,4.456,4.456,0,0,0,0,4.443A2,2,0,0,0,111.976,60.233Zm4.9-3.006a5.553,5.553,0,0,1-1.213,3.608,5.274,5.274,0,0,1-7.365,0,5.953,5.953,0,0,1,0-7.2,5.22,5.22,0,0,1,7.365,0A5.59,5.59,0,0,1,116.88,57.228Zm-1.9-8.728-2.672,2.628H110.5l1.688-2.628Zm9,3.691a3.7,3.7,0,0,1,2.43.778,3.163,3.163,0,0,1,.945,2.58V62H124.79V56.173a2.659,2.659,0,0,0-.2-1.16,1.422,1.422,0,0,0-1.406-.738,1.744,1.744,0,0,0-1.749,1.081,3.713,3.713,0,0,0-.246,1.459V62h-2.5V52.438h2.417v1.4a4.252,4.252,0,0,1,.914-1.063A3.177,3.177,0,0,1,123.981,52.191ZM40.92,78.23a1.7,1.7,0,0,0-1.349.545,2.72,2.72,0,0,0-.6,1.477h3.894a2.181,2.181,0,0,0-.6-1.507A1.87,1.87,0,0,0,40.92,78.23Zm0-2.065a5.021,5.021,0,0,1,2.153.448,3.772,3.772,0,0,1,1.582,1.415,4.828,4.828,0,0,1,.729,1.978,12.771,12.771,0,0,1,.079,1.9H38.908a2.381,2.381,0,0,0,.905,2.021,2.132,2.132,0,0,0,1.248.36,1.8,1.8,0,0,0,1.257-.439,2.087,2.087,0,0,0,.466-.659h2.558a3.178,3.178,0,0,1-.888,1.731,4.349,4.349,0,0,1-3.445,1.4,4.858,4.858,0,0,1-3.226-1.178,4.75,4.75,0,0,1-1.4-3.832,5.326,5.326,0,0,1,1.261-3.814A4.312,4.312,0,0,1,40.92,76.165ZM49.1,82.941a1.673,1.673,0,0,0,.343.949,2.317,2.317,0,0,0,1.723.5,2.626,2.626,0,0,0,1.173-.22.737.737,0,0,0,.083-1.3,14.3,14.3,0,0,0-2.61-.756A5.437,5.437,0,0,1,47.521,81.1a2.191,2.191,0,0,1-.668-1.723A2.988,2.988,0,0,1,47.895,77.1a4.183,4.183,0,0,1,2.931-.954,5.378,5.378,0,0,1,2.922.716,3.068,3.068,0,0,1,1.3,2.474h-2.5a1.482,1.482,0,0,0-.272-.765,1.714,1.714,0,0,0-1.406-.51,2.021,2.021,0,0,0-1.165.255.734.734,0,0,0-.347.6.654.654,0,0,0,.369.624,15.98,15.98,0,0,0,2.61.694A4.8,4.8,0,0,1,54.57,81.3a2.415,2.415,0,0,1,.738,1.8,2.911,2.911,0,0,1-1.059,2.325,4.976,4.976,0,0,1-3.274.9,4.929,4.929,0,0,1-3.335-.954,3.1,3.1,0,0,1-1.077-2.43Zm7.075-4.649V76.508h1.336V73.836h2.479v2.672h1.556v1.784H59.993v5.063a1.14,1.14,0,0,0,.149.734,1.645,1.645,0,0,0,.914.145q.114,0,.242,0t.25-.013v1.872l-1.187.044a3.184,3.184,0,0,1-2.426-.615,1.832,1.832,0,0,1-.422-1.327v-5.9Zm12.261,3.05a2.722,2.722,0,0,1-.479.242,4.006,4.006,0,0,1-.664.171l-.562.105A3.632,3.632,0,0,0,65.6,82.2a1.149,1.149,0,0,0-.58,1.063,1.12,1.12,0,0,0,.356.927,1.34,1.34,0,0,0,.866.286A2.551,2.551,0,0,0,67.731,84a2.024,2.024,0,0,0,.708-1.731Zm-1.521-1.169a3.91,3.91,0,0,0,.993-.22.753.753,0,0,0,.536-.712.845.845,0,0,0-.409-.813,2.553,2.553,0,0,0-1.2-.224,1.563,1.563,0,0,0-1.257.439,1.827,1.827,0,0,0-.352.879H62.814a3.676,3.676,0,0,1,.7-2.065,4.09,4.09,0,0,1,3.41-1.266,6.059,6.059,0,0,1,2.795.624,2.4,2.4,0,0,1,1.222,2.355v4.395q0,.457.018,1.107a1.392,1.392,0,0,0,.149.668.9.9,0,0,0,.369.29V86H68.755a2.79,2.79,0,0,1-.158-.545q-.044-.255-.07-.58a5.146,5.146,0,0,1-1.2.958A3.6,3.6,0,0,1,65.5,86.3a3.143,3.143,0,0,1-2.149-.743,2.649,2.649,0,0,1-.848-2.1,2.732,2.732,0,0,1,1.362-2.558,6.049,6.049,0,0,1,2.2-.615Zm11.426-3.964A3.548,3.548,0,0,1,81.3,77.571a5.53,5.53,0,0,1,1.068,3.516,6.181,6.181,0,0,1-1.055,3.7,3.815,3.815,0,0,1-4.852.993,3.809,3.809,0,0,1-.932-.984V86H73.08V73.063h2.5v4.605a3.655,3.655,0,0,1,1.046-1.02A3.107,3.107,0,0,1,78.344,76.209Zm-.642,7.98a1.719,1.719,0,0,0,1.5-.782,3.572,3.572,0,0,0,.536-2.057,4.636,4.636,0,0,0-.264-1.687A1.837,1.837,0,0,0,77.632,78.4a1.864,1.864,0,0,0-1.872,1.239,4.651,4.651,0,0,0-.264,1.705,3.572,3.572,0,0,0,.545,2.039A1.866,1.866,0,0,0,77.7,84.189ZM86.72,86h-2.5V73.045h2.5Zm6.223-7.77a1.7,1.7,0,0,0-1.349.545,2.72,2.72,0,0,0-.6,1.477h3.894a2.181,2.181,0,0,0-.6-1.507A1.87,1.87,0,0,0,92.943,78.23Zm0-2.065a5.021,5.021,0,0,1,2.153.448,3.772,3.772,0,0,1,1.582,1.415,4.828,4.828,0,0,1,.729,1.978,12.771,12.771,0,0,1,.079,1.9H90.93a2.381,2.381,0,0,0,.905,2.021,2.132,2.132,0,0,0,1.248.36,1.8,1.8,0,0,0,1.257-.439,2.087,2.087,0,0,0,.466-.659h2.558a3.178,3.178,0,0,1-.888,1.731,4.349,4.349,0,0,1-3.445,1.4,4.858,4.858,0,0,1-3.226-1.178,4.75,4.75,0,0,1-1.4-3.832,5.326,5.326,0,0,1,1.261-3.814A4.312,4.312,0,0,1,92.943,76.165Zm8.183,6.776a1.673,1.673,0,0,0,.343.949,2.317,2.317,0,0,0,1.723.5,2.626,2.626,0,0,0,1.173-.22.737.737,0,0,0,.083-1.3,14.3,14.3,0,0,0-2.61-.756A5.437,5.437,0,0,1,99.543,81.1a2.191,2.191,0,0,1-.668-1.723A2.988,2.988,0,0,1,99.917,77.1a4.183,4.183,0,0,1,2.931-.954,5.378,5.378,0,0,1,2.922.716,3.068,3.068,0,0,1,1.3,2.474h-2.5a1.482,1.482,0,0,0-.272-.765,1.714,1.714,0,0,0-1.406-.51,2.021,2.021,0,0,0-1.165.255.734.734,0,0,0-.347.6.654.654,0,0,0,.369.624,15.98,15.98,0,0,0,2.61.694,4.8,4.8,0,0,1,2.241,1.063,2.415,2.415,0,0,1,.738,1.8,2.911,2.911,0,0,1-1.059,2.325,6.354,6.354,0,0,1-6.609-.053,3.1,3.1,0,0,1-1.077-2.43Zm13.447,4.9.316.018a3.948,3.948,0,0,0,.7-.026,1.262,1.262,0,0,0,.563-.2,1.352,1.352,0,0,0,.409-.624,1.319,1.319,0,0,0,.154-.58l-3.516-10h2.786l2.092,7.066,1.978-7.066h2.663l-3.287,9.422a13.23,13.23,0,0,1-1.5,3.379,2.856,2.856,0,0,1-2.215.655q-.334,0-.536,0t-.606-.031Zm-73.679,16.02a2.223,2.223,0,0,0-.36-.967,1.511,1.511,0,0,0-1.31-.58,1.725,1.725,0,0,0-1.731,1.257,5.255,5.255,0,0,0-.246,1.775,4.832,4.832,0,0,0,.246,1.7,1.671,1.671,0,0,0,1.688,1.2,1.488,1.488,0,0,0,1.248-.475,2.362,2.362,0,0,0,.448-1.23h2.558a4.191,4.191,0,0,1-.826,2.162,4.016,4.016,0,0,1-3.489,1.644,4.082,4.082,0,0,1-3.4-1.371,5.548,5.548,0,0,1-1.09-3.56,5.63,5.63,0,0,1,1.2-3.841,4.191,4.191,0,0,1,3.322-1.371A5,5,0,0,1,42.1,101a3.761,3.761,0,0,1,1.358,2.856Zm8.587,4.377a1.985,1.985,0,0,0,1.688-.782,4.484,4.484,0,0,0,0-4.443,2.224,2.224,0,0,0-3.379,0,4.456,4.456,0,0,0,0,4.443A2,2,0,0,0,49.481,108.233Zm4.9-3.006a5.553,5.553,0,0,1-1.213,3.608,4.456,4.456,0,0,1-3.683,1.5,4.456,4.456,0,0,1-3.683-1.5,5.953,5.953,0,0,1,0-7.2,4.426,4.426,0,0,1,3.683-1.521,4.426,4.426,0,0,1,3.683,1.521A5.59,5.59,0,0,1,54.385,105.228Zm7.1-5.036a3.7,3.7,0,0,1,2.43.778,3.163,3.163,0,0,1,.945,2.58V110H62.3v-5.827a2.659,2.659,0,0,0-.2-1.16,1.422,1.422,0,0,0-1.406-.738,1.744,1.744,0,0,0-1.749,1.081,3.713,3.713,0,0,0-.246,1.459V110H56.2v-9.562h2.417v1.4a4.252,4.252,0,0,1,.914-1.063A3.177,3.177,0,0,1,61.487,100.191Zm4.7,2.1v-1.784h1.336V97.836H70v2.672h1.556v1.784H70v5.063a1.14,1.14,0,0,0,.149.734,1.645,1.645,0,0,0,.914.145q.114,0,.242,0t.25-.013v1.872l-1.187.044a3.184,3.184,0,0,1-2.426-.615,1.832,1.832,0,0,1-.422-1.327v-5.9Zm9.554-3.015H73.2V96.966h2.54ZM73.2,100.42h2.54V110H73.2Zm10.274-.229a3.7,3.7,0,0,1,2.43.778,3.163,3.163,0,0,1,.945,2.58V110H84.286v-5.827a2.659,2.659,0,0,0-.2-1.16,1.422,1.422,0,0,0-1.406-.738,1.744,1.744,0,0,0-1.749,1.081,3.713,3.713,0,0,0-.246,1.459V110h-2.5v-9.562H80.6v1.4a4.252,4.252,0,0,1,.914-1.063A3.177,3.177,0,0,1,83.477,100.191Zm8.183.229v5.774a3.023,3.023,0,0,0,.193,1.23,1.338,1.338,0,0,0,1.345.729,1.758,1.758,0,0,0,1.758-1.037,3.754,3.754,0,0,0,.246-1.485V100.42h2.54V110H95.307v-1.354q-.035.044-.176.264a1.764,1.764,0,0,1-.334.387,3.488,3.488,0,0,1-1.138.721,3.879,3.879,0,0,1-1.288.193,2.87,2.87,0,0,1-2.865-1.529,5.852,5.852,0,0,1-.413-2.487V100.42Zm12.8,7.813a1.985,1.985,0,0,0,1.688-.782,4.484,4.484,0,0,0,0-4.443,2.224,2.224,0,0,0-3.379,0,4.456,4.456,0,0,0,0,4.443A2,2,0,0,0,104.457,108.233Zm4.9-3.006a5.553,5.553,0,0,1-1.213,3.608,5.274,5.274,0,0,1-7.365,0,5.953,5.953,0,0,1,0-7.2,5.22,5.22,0,0,1,7.365,0A5.59,5.59,0,0,1,109.361,105.228Zm3.744,1.714a1.673,1.673,0,0,0,.343.949,2.317,2.317,0,0,0,1.723.5,2.626,2.626,0,0,0,1.173-.22.737.737,0,0,0,.083-1.3,14.3,14.3,0,0,0-2.61-.756,5.437,5.437,0,0,1-2.294-1.011,2.191,2.191,0,0,1-.668-1.723A2.988,2.988,0,0,1,111.9,101.1a4.183,4.183,0,0,1,2.931-.954,5.378,5.378,0,0,1,2.922.716,3.068,3.068,0,0,1,1.3,2.474h-2.5a1.482,1.482,0,0,0-.272-.765,1.714,1.714,0,0,0-1.406-.51,2.021,2.021,0,0,0-1.165.255.734.734,0,0,0-.347.6.654.654,0,0,0,.369.624,15.98,15.98,0,0,0,2.61.694,4.8,4.8,0,0,1,2.241,1.063,2.415,2.415,0,0,1,.738,1.8,2.911,2.911,0,0,1-1.059,2.325,6.354,6.354,0,0,1-6.609-.053,3.1,3.1,0,0,1-1.077-2.43Zm8.016.439h2.663V110h-2.663Z" transform="translate(253 6154.5)" fill="#00223d"/>
        <path id="Trazado_77046" data-name="Trazado 77046" d="M11.64,5.167a1.753,1.753,0,0,0-.532-1.441,2.308,2.308,0,0,0-1.49-.431H7.1V7.109H9.618a2.187,2.187,0,0,0,1.49-.466A1.865,1.865,0,0,0,11.64,5.167Zm2.681-.018a3.976,3.976,0,0,1-1.16,3.243,5.109,5.109,0,0,1-3.313.949H7.1V14H4.406V1.045h5.643a4.6,4.6,0,0,1,3.111,1A3.882,3.882,0,0,1,14.32,5.149Zm7.031-.958q.07,0,.119,0l.215.013V6.775q-.237-.026-.422-.035t-.3-.009a2.078,2.078,0,0,0-2.03.984,3.829,3.829,0,0,0-.29,1.705V14H16.122V4.42h2.391V6.09a5.3,5.3,0,0,1,1.011-1.31A2.752,2.752,0,0,1,21.352,4.191ZM26.933,6.23a1.7,1.7,0,0,0-1.349.545,2.72,2.72,0,0,0-.6,1.477h3.894a2.181,2.181,0,0,0-.6-1.507A1.87,1.87,0,0,0,26.933,6.23Zm0-2.065a5.021,5.021,0,0,1,2.153.448,3.772,3.772,0,0,1,1.582,1.415A4.828,4.828,0,0,1,31.4,8.006a12.771,12.771,0,0,1,.079,1.9H24.92a2.381,2.381,0,0,0,.905,2.021,2.132,2.132,0,0,0,1.248.36,1.8,1.8,0,0,0,1.257-.439,2.087,2.087,0,0,0,.466-.659h2.558a3.178,3.178,0,0,1-.888,1.731,4.349,4.349,0,0,1-3.445,1.4,4.858,4.858,0,0,1-3.226-1.178,4.75,4.75,0,0,1-1.4-3.832,5.326,5.326,0,0,1,1.261-3.814A4.312,4.312,0,0,1,26.933,4.165ZM39.07,4.42H41.76L38.306,14H35.66L32.224,4.42h2.813l2,7.066ZM46.954,6.23a1.7,1.7,0,0,0-1.349.545A2.72,2.72,0,0,0,45,8.252H48.9a2.181,2.181,0,0,0-.6-1.507A1.87,1.87,0,0,0,46.954,6.23Zm0-2.065a5.021,5.021,0,0,1,2.153.448,3.772,3.772,0,0,1,1.582,1.415,4.828,4.828,0,0,1,.729,1.978A12.771,12.771,0,0,1,51.5,9.9H44.941a2.381,2.381,0,0,0,.905,2.021,2.132,2.132,0,0,0,1.248.36,1.8,1.8,0,0,0,1.257-.439,2.087,2.087,0,0,0,.466-.659h2.558a3.178,3.178,0,0,1-.888,1.731,4.349,4.349,0,0,1-3.445,1.4,4.858,4.858,0,0,1-3.226-1.178,4.75,4.75,0,0,1-1.4-3.832A5.326,5.326,0,0,1,43.68,5.492,4.312,4.312,0,0,1,46.954,4.165Zm11.54.026a3.7,3.7,0,0,1,2.43.778,3.163,3.163,0,0,1,.945,2.58V14H59.3V8.173a2.659,2.659,0,0,0-.2-1.16,1.422,1.422,0,0,0-1.406-.738,1.744,1.744,0,0,0-1.749,1.081A3.713,3.713,0,0,0,55.7,8.814V14H53.2V4.438H55.62v1.4a4.252,4.252,0,0,1,.914-1.063A3.177,3.177,0,0,1,58.494,4.191Zm8.262-.914h-2.54V.966h2.54ZM64.216,4.42h2.54V14h-2.54Zm10.169-.229q.07,0,.119,0l.215.013V6.775q-.237-.026-.422-.035T74,6.731a2.078,2.078,0,0,0-2.03.984,3.829,3.829,0,0,0-.29,1.705V14H69.155V4.42h2.391V6.09a5.3,5.3,0,0,1,1.011-1.31A2.752,2.752,0,0,1,74.385,4.191Zm13.4,5.019a3.77,3.77,0,0,0-.505-1.96A1.759,1.759,0,0,0,85.644,6.4a1.865,1.865,0,0,0-1.872,1.292,4.9,4.9,0,0,0-.264,1.74,2.776,2.776,0,0,0,.888,2.347,2.021,2.021,0,0,0,1.248.4,1.809,1.809,0,0,0,1.6-.809A3.771,3.771,0,0,0,87.788,9.21Zm-1.424-5a3.753,3.753,0,0,1,2.843,1.239,5.127,5.127,0,0,1,1.165,3.639,5.771,5.771,0,0,1-1.138,3.858A3.685,3.685,0,0,1,86.3,14.272a3.059,3.059,0,0,1-1.9-.571,3.683,3.683,0,0,1-.809-.923v4.992H81.117V4.42h2.4V5.835a4.021,4.021,0,0,1,.861-.984A3.165,3.165,0,0,1,86.364,4.209Zm11.1,5.133a2.722,2.722,0,0,1-.479.242,4.006,4.006,0,0,1-.664.171l-.562.105a3.632,3.632,0,0,0-1.134.343,1.149,1.149,0,0,0-.58,1.063,1.12,1.12,0,0,0,.356.927,1.34,1.34,0,0,0,.866.286A2.551,2.551,0,0,0,96.757,12a2.024,2.024,0,0,0,.708-1.731ZM95.944,8.173a3.91,3.91,0,0,0,.993-.22.753.753,0,0,0,.536-.712.845.845,0,0,0-.409-.813,2.553,2.553,0,0,0-1.2-.224,1.563,1.563,0,0,0-1.257.439,1.827,1.827,0,0,0-.352.879H91.84a3.676,3.676,0,0,1,.7-2.065,4.09,4.09,0,0,1,3.41-1.266,6.059,6.059,0,0,1,2.795.624A2.4,2.4,0,0,1,99.97,7.171v4.395q0,.457.018,1.107a1.392,1.392,0,0,0,.149.668.9.9,0,0,0,.369.29V14H97.781a2.79,2.79,0,0,1-.158-.545q-.044-.255-.07-.58a5.146,5.146,0,0,1-1.2.958,3.6,3.6,0,0,1-1.828.466,3.143,3.143,0,0,1-2.149-.743,2.649,2.649,0,0,1-.848-2.1,2.732,2.732,0,0,1,1.362-2.558,6.049,6.049,0,0,1,2.2-.615ZM107.4,4.191q.07,0,.119,0l.215.013V6.775q-.237-.026-.422-.035t-.3-.009a2.078,2.078,0,0,0-2.03.984,3.829,3.829,0,0,0-.29,1.705V14h-2.522V4.42h2.391V6.09a5.3,5.3,0,0,1,1.011-1.31A2.752,2.752,0,0,1,107.4,4.191Zm6.1,8.042a1.985,1.985,0,0,0,1.688-.782,3.639,3.639,0,0,0,.589-2.224,3.619,3.619,0,0,0-.589-2.219,2.224,2.224,0,0,0-3.379,0,3.6,3.6,0,0,0-.593,2.219,3.619,3.619,0,0,0,.593,2.224A2,2,0,0,0,113.5,12.233Zm4.9-3.006a5.553,5.553,0,0,1-1.213,3.608,5.274,5.274,0,0,1-7.365,0,5.553,5.553,0,0,1-1.213-3.608,5.59,5.59,0,0,1,1.213-3.595,5.22,5.22,0,0,1,7.365,0A5.59,5.59,0,0,1,118.4,9.228Zm3.744,1.714a1.673,1.673,0,0,0,.343.949,2.317,2.317,0,0,0,1.723.5,2.626,2.626,0,0,0,1.173-.22.737.737,0,0,0,.083-1.3,14.3,14.3,0,0,0-2.61-.756A5.437,5.437,0,0,1,120.563,9.1a2.191,2.191,0,0,1-.668-1.723A2.988,2.988,0,0,1,120.936,5.1a4.183,4.183,0,0,1,2.931-.954,5.378,5.378,0,0,1,2.922.716,3.068,3.068,0,0,1,1.3,2.474h-2.5a1.482,1.482,0,0,0-.272-.765,1.714,1.714,0,0,0-1.406-.51,2.021,2.021,0,0,0-1.165.255.734.734,0,0,0-.347.6.654.654,0,0,0,.369.624,15.98,15.98,0,0,0,2.61.694A4.8,4.8,0,0,1,127.611,9.3a2.415,2.415,0,0,1,.738,1.8,2.911,2.911,0,0,1-1.059,2.325,6.354,6.354,0,0,1-6.609-.053,3.1,3.1,0,0,1-1.077-2.43Zm18.369-6.75a3.7,3.7,0,0,1,2.43.778,3.163,3.163,0,0,1,.945,2.58V14h-2.566V8.173a2.659,2.659,0,0,0-.2-1.16,1.422,1.422,0,0,0-1.406-.738,1.744,1.744,0,0,0-1.749,1.081,3.713,3.713,0,0,0-.246,1.459V14h-2.5V4.438h2.417v1.4a4.252,4.252,0,0,1,.914-1.063A3.177,3.177,0,0,1,140.514,4.191Zm9.984,8.042a1.985,1.985,0,0,0,1.688-.782,3.639,3.639,0,0,0,.589-2.224,3.619,3.619,0,0,0-.589-2.219,2.224,2.224,0,0,0-3.379,0,3.6,3.6,0,0,0-.593,2.219,3.619,3.619,0,0,0,.593,2.224A2,2,0,0,0,150.5,12.233Zm4.9-3.006a5.553,5.553,0,0,1-1.213,3.608,5.274,5.274,0,0,1-7.365,0,5.553,5.553,0,0,1-1.213-3.608,5.59,5.59,0,0,1,1.213-3.595,5.22,5.22,0,0,1,7.365,0A5.59,5.59,0,0,1,155.4,9.228ZM19.748,33.21a3.77,3.77,0,0,0-.505-1.96A1.759,1.759,0,0,0,17.6,30.4a1.865,1.865,0,0,0-1.872,1.292,4.9,4.9,0,0,0-.264,1.74,2.776,2.776,0,0,0,.888,2.347,2.021,2.021,0,0,0,1.248.4,1.809,1.809,0,0,0,1.6-.809A3.771,3.771,0,0,0,19.748,33.21Zm-1.424-5a3.753,3.753,0,0,1,2.843,1.239,5.127,5.127,0,0,1,1.165,3.639,5.771,5.771,0,0,1-1.138,3.858,3.685,3.685,0,0,1-2.931,1.327,3.059,3.059,0,0,1-1.9-.571,3.683,3.683,0,0,1-.809-.923v4.992H13.077V28.42h2.4v1.415a4.021,4.021,0,0,1,.861-.984A3.165,3.165,0,0,1,18.324,28.209ZM26.7,38h-2.5V25.045h2.5Zm7.726-4.658a2.722,2.722,0,0,1-.479.242,4.006,4.006,0,0,1-.664.171l-.562.105a3.632,3.632,0,0,0-1.134.343,1.149,1.149,0,0,0-.58,1.063,1.12,1.12,0,0,0,.356.927,1.34,1.34,0,0,0,.866.286A2.551,2.551,0,0,0,33.718,36a2.024,2.024,0,0,0,.708-1.731ZM32.9,32.173a3.91,3.91,0,0,0,.993-.22.753.753,0,0,0,.536-.712.845.845,0,0,0-.409-.813,2.553,2.553,0,0,0-1.2-.224,1.563,1.563,0,0,0-1.257.439,1.827,1.827,0,0,0-.352.879H28.8a3.676,3.676,0,0,1,.7-2.065,4.09,4.09,0,0,1,3.41-1.266,6.059,6.059,0,0,1,2.795.624,2.4,2.4,0,0,1,1.222,2.355v4.395q0,.457.018,1.107a1.392,1.392,0,0,0,.149.668.9.9,0,0,0,.369.29V38H34.742a2.79,2.79,0,0,1-.158-.545q-.044-.255-.07-.58a5.146,5.146,0,0,1-1.2.958,3.6,3.6,0,0,1-1.828.466,3.143,3.143,0,0,1-2.149-.743,2.649,2.649,0,0,1-.848-2.1,2.732,2.732,0,0,1,1.362-2.558,6.049,6.049,0,0,1,2.2-.615Zm11.558-3.981a3.7,3.7,0,0,1,2.43.778,3.163,3.163,0,0,1,.945,2.58V38H45.271V32.173a2.659,2.659,0,0,0-.2-1.16,1.422,1.422,0,0,0-1.406-.738,1.744,1.744,0,0,0-1.749,1.081,3.713,3.713,0,0,0-.246,1.459V38h-2.5V28.438h2.417v1.4a4.252,4.252,0,0,1,.914-1.063A3.177,3.177,0,0,1,44.462,28.191Zm9.466,2.039a1.7,1.7,0,0,0-1.349.545,2.72,2.72,0,0,0-.6,1.477h3.894a2.181,2.181,0,0,0-.6-1.507A1.87,1.87,0,0,0,53.928,30.23Zm0-2.065a5.021,5.021,0,0,1,2.153.448,3.772,3.772,0,0,1,1.582,1.415,4.828,4.828,0,0,1,.729,1.978,12.771,12.771,0,0,1,.079,1.9H51.916a2.381,2.381,0,0,0,.905,2.021,2.132,2.132,0,0,0,1.248.36,1.8,1.8,0,0,0,1.257-.439,2.087,2.087,0,0,0,.466-.659h2.558a3.178,3.178,0,0,1-.888,1.731,4.349,4.349,0,0,1-3.445,1.4,4.858,4.858,0,0,1-3.226-1.178,4.75,4.75,0,0,1-1.4-3.832,5.326,5.326,0,0,1,1.261-3.814A4.312,4.312,0,0,1,53.928,28.165Zm11.514,5.177a2.722,2.722,0,0,1-.479.242,4.006,4.006,0,0,1-.664.171l-.562.105A3.632,3.632,0,0,0,62.6,34.2a1.149,1.149,0,0,0-.58,1.063,1.12,1.12,0,0,0,.356.927,1.34,1.34,0,0,0,.866.286A2.551,2.551,0,0,0,64.734,36a2.024,2.024,0,0,0,.708-1.731Zm-1.521-1.169a3.91,3.91,0,0,0,.993-.22.753.753,0,0,0,.536-.712.845.845,0,0,0-.409-.813,2.553,2.553,0,0,0-1.2-.224,1.563,1.563,0,0,0-1.257.439,1.827,1.827,0,0,0-.352.879H59.817a3.676,3.676,0,0,1,.7-2.065,4.09,4.09,0,0,1,3.41-1.266,6.059,6.059,0,0,1,2.795.624,2.4,2.4,0,0,1,1.222,2.355v4.395q0,.457.018,1.107a1.392,1.392,0,0,0,.149.668.9.9,0,0,0,.369.29V38H65.758a2.79,2.79,0,0,1-.158-.545q-.044-.255-.07-.58a5.146,5.146,0,0,1-1.2.958,3.6,3.6,0,0,1-1.828.466,3.143,3.143,0,0,1-2.149-.743,2.649,2.649,0,0,1-.848-2.1,2.732,2.732,0,0,1,1.362-2.558,6.049,6.049,0,0,1,2.2-.615ZM73.7,28.191a3.09,3.09,0,0,1,1.547.382,3.043,3.043,0,0,1,1.1,1.059v-4.57h2.54V38H76.455V36.673a3.533,3.533,0,0,1-1.222,1.239,3.43,3.43,0,0,1-1.705.387A3.56,3.56,0,0,1,70.7,36.941a5.215,5.215,0,0,1-1.147-3.485A6,6,0,0,1,70.685,29.6,3.674,3.674,0,0,1,73.7,28.191Zm.545,8a1.849,1.849,0,0,0,1.617-.791,3.5,3.5,0,0,0,.554-2.048,3.141,3.141,0,0,0-.888-2.514,1.91,1.91,0,0,0-1.266-.457,1.759,1.759,0,0,0-1.613.831,4.478,4.478,0,0,0,.009,4.184A1.769,1.769,0,0,0,74.249,36.189Zm11.215.044a1.985,1.985,0,0,0,1.688-.782,3.639,3.639,0,0,0,.589-2.224,3.619,3.619,0,0,0-.589-2.219,2.224,2.224,0,0,0-3.379,0,3.6,3.6,0,0,0-.593,2.219,3.619,3.619,0,0,0,.593,2.224A2,2,0,0,0,85.463,36.233Zm4.9-3.006a5.553,5.553,0,0,1-1.213,3.608,5.274,5.274,0,0,1-7.365,0,5.953,5.953,0,0,1,0-7.2,5.22,5.22,0,0,1,7.365,0A5.59,5.59,0,0,1,90.368,33.228Zm3.744,1.714a1.673,1.673,0,0,0,.343.949,2.317,2.317,0,0,0,1.723.5,2.626,2.626,0,0,0,1.173-.22.737.737,0,0,0,.083-1.3,14.3,14.3,0,0,0-2.61-.756A5.437,5.437,0,0,1,92.53,33.1a2.191,2.191,0,0,1-.668-1.723A2.988,2.988,0,0,1,92.9,29.1a4.183,4.183,0,0,1,2.931-.954,5.378,5.378,0,0,1,2.922.716,3.068,3.068,0,0,1,1.3,2.474h-2.5a1.482,1.482,0,0,0-.272-.765,1.714,1.714,0,0,0-1.406-.51,2.021,2.021,0,0,0-1.165.255.734.734,0,0,0-.347.6.654.654,0,0,0,.369.624,15.98,15.98,0,0,0,2.61.694A4.8,4.8,0,0,1,99.579,33.3a2.415,2.415,0,0,1,.738,1.8,2.911,2.911,0,0,1-1.059,2.325,6.354,6.354,0,0,1-6.609-.053,3.1,3.1,0,0,1-1.077-2.43Zm16.594-6.75a3.09,3.09,0,0,1,1.547.382,3.043,3.043,0,0,1,1.1,1.059v-4.57h2.54V38h-2.435V36.673a3.533,3.533,0,0,1-1.222,1.239,3.43,3.43,0,0,1-1.705.387,3.56,3.56,0,0,1-2.826-1.358,5.215,5.215,0,0,1-1.147-3.485,6,6,0,0,1,1.129-3.858A3.674,3.674,0,0,1,110.706,28.191Zm.545,8a1.849,1.849,0,0,0,1.617-.791,3.5,3.5,0,0,0,.554-2.048,3.141,3.141,0,0,0-.888-2.514,1.91,1.91,0,0,0-1.266-.457,1.759,1.759,0,0,0-1.613.831,4.478,4.478,0,0,0,.009,4.184A1.769,1.769,0,0,0,111.25,36.189Zm10.7-5.959a1.7,1.7,0,0,0-1.349.545,2.72,2.72,0,0,0-.6,1.477h3.894a2.181,2.181,0,0,0-.6-1.507A1.87,1.87,0,0,0,121.947,30.23Zm0-2.065a5.021,5.021,0,0,1,2.153.448,3.772,3.772,0,0,1,1.582,1.415,4.828,4.828,0,0,1,.729,1.978,12.771,12.771,0,0,1,.079,1.9h-6.557a2.381,2.381,0,0,0,.905,2.021,2.132,2.132,0,0,0,1.248.36,1.8,1.8,0,0,0,1.257-.439,2.087,2.087,0,0,0,.466-.659h2.558a3.178,3.178,0,0,1-.888,1.731,4.349,4.349,0,0,1-3.445,1.4,4.858,4.858,0,0,1-3.226-1.178,4.75,4.75,0,0,1-1.4-3.832,5.326,5.326,0,0,1,1.261-3.814A4.312,4.312,0,0,1,121.947,28.165ZM135.737,38h-2.5V25.045h2.5Zm7.726-4.658a2.722,2.722,0,0,1-.479.242,4.006,4.006,0,0,1-.664.171l-.562.105a3.632,3.632,0,0,0-1.134.343,1.149,1.149,0,0,0-.58,1.063,1.12,1.12,0,0,0,.356.927,1.34,1.34,0,0,0,.866.286,2.551,2.551,0,0,0,1.49-.475,2.024,2.024,0,0,0,.708-1.731Zm-1.521-1.169a3.91,3.91,0,0,0,.993-.22.753.753,0,0,0,.536-.712.845.845,0,0,0-.409-.813,2.553,2.553,0,0,0-1.2-.224,1.563,1.563,0,0,0-1.257.439,1.827,1.827,0,0,0-.352.879h-2.417a3.676,3.676,0,0,1,.7-2.065,4.09,4.09,0,0,1,3.41-1.266,6.059,6.059,0,0,1,2.795.624,2.4,2.4,0,0,1,1.222,2.355v4.395q0,.457.018,1.107a1.392,1.392,0,0,0,.149.668.9.9,0,0,0,.369.29V38h-2.725a2.79,2.79,0,0,1-.158-.545q-.044-.255-.07-.58a5.146,5.146,0,0,1-1.2.958,3.6,3.6,0,0,1-1.828.466,3.143,3.143,0,0,1-2.149-.743,2.649,2.649,0,0,1-.848-2.1,2.732,2.732,0,0,1,1.362-2.558,6.049,6.049,0,0,1,2.2-.615ZM60.217,62h-2.5V49.045h2.5ZM62.7,52.42h2.54V62H62.7Zm4.315-3.92-2.672,2.628H62.528L64.216,48.5Zm5.959,3.691a3.7,3.7,0,0,1,2.43.778,3.163,3.163,0,0,1,.945,2.58V62H73.778V56.173a2.659,2.659,0,0,0-.2-1.16,1.422,1.422,0,0,0-1.406-.738,1.744,1.744,0,0,0-1.749,1.081,3.713,3.713,0,0,0-.246,1.459V62h-2.5V52.438H70.1v1.4a4.252,4.252,0,0,1,.914-1.063A3.177,3.177,0,0,1,72.97,52.191Zm9.466,2.039a1.7,1.7,0,0,0-1.349.545,2.72,2.72,0,0,0-.6,1.477h3.894a2.181,2.181,0,0,0-.6-1.507A1.87,1.87,0,0,0,82.436,54.23Zm0-2.065a5.021,5.021,0,0,1,2.153.448,3.772,3.772,0,0,1,1.582,1.415,4.828,4.828,0,0,1,.729,1.978,12.771,12.771,0,0,1,.079,1.9H80.423a2.381,2.381,0,0,0,.905,2.021,2.132,2.132,0,0,0,1.248.36,1.8,1.8,0,0,0,1.257-.439,2.087,2.087,0,0,0,.466-.659h2.558a3.178,3.178,0,0,1-.888,1.731,4.349,4.349,0,0,1-3.445,1.4A4.858,4.858,0,0,1,79.3,61.139a4.75,4.75,0,0,1-1.4-3.832,5.326,5.326,0,0,1,1.261-3.814A4.312,4.312,0,0,1,82.436,52.165Zm11.514,5.177a2.722,2.722,0,0,1-.479.242,4.006,4.006,0,0,1-.664.171l-.562.105a3.632,3.632,0,0,0-1.134.343,1.149,1.149,0,0,0-.58,1.063,1.12,1.12,0,0,0,.356.927,1.34,1.34,0,0,0,.866.286A2.551,2.551,0,0,0,93.242,60a2.024,2.024,0,0,0,.708-1.731Zm-1.521-1.169a3.91,3.91,0,0,0,.993-.22.753.753,0,0,0,.536-.712.845.845,0,0,0-.409-.813,2.553,2.553,0,0,0-1.2-.224,1.563,1.563,0,0,0-1.257.439,1.827,1.827,0,0,0-.352.879H88.324a3.676,3.676,0,0,1,.7-2.065,4.09,4.09,0,0,1,3.41-1.266,6.059,6.059,0,0,1,2.795.624,2.4,2.4,0,0,1,1.222,2.355v4.395q0,.457.018,1.107a1.392,1.392,0,0,0,.149.668.9.9,0,0,0,.369.29V62H94.266a2.79,2.79,0,0,1-.158-.545q-.044-.255-.07-.58a5.146,5.146,0,0,1-1.2.958,3.6,3.6,0,0,1-1.828.466,3.143,3.143,0,0,1-2.149-.743,2.649,2.649,0,0,1-.848-2.1,2.732,2.732,0,0,1,1.362-2.558,6.049,6.049,0,0,1,2.2-.615Zm6.205,3.208H101.3V62H98.634Z" transform="translate(423 6172.5)" fill="#00223d"/>
        <path id="Trazado_77047" data-name="Trazado 77047" d="M32.9,9.1h3.287l-1.617-5.1Zm.167-8.06h3.059L40.712,14H37.777l-.835-2.663H32.169L31.273,14h-2.83ZM48.754,9.21a3.77,3.77,0,0,0-.505-1.96A1.759,1.759,0,0,0,46.61,6.4a1.865,1.865,0,0,0-1.872,1.292,4.9,4.9,0,0,0-.264,1.74,2.776,2.776,0,0,0,.888,2.347,2.021,2.021,0,0,0,1.248.4,1.809,1.809,0,0,0,1.6-.809A3.771,3.771,0,0,0,48.754,9.21Zm-1.424-5a3.753,3.753,0,0,1,2.843,1.239,5.127,5.127,0,0,1,1.165,3.639A5.771,5.771,0,0,1,50.2,12.945a3.685,3.685,0,0,1-2.931,1.327,3.059,3.059,0,0,1-1.9-.571,3.683,3.683,0,0,1-.809-.923v4.992H42.083V4.42h2.4V5.835a4.021,4.021,0,0,1,.861-.984A3.165,3.165,0,0,1,47.331,4.209Zm10.116,8.024a1.985,1.985,0,0,0,1.688-.782,3.639,3.639,0,0,0,.589-2.224,3.619,3.619,0,0,0-.589-2.219,2.224,2.224,0,0,0-3.379,0,3.6,3.6,0,0,0-.593,2.219,3.619,3.619,0,0,0,.593,2.224A2,2,0,0,0,57.447,12.233Zm4.9-3.006a5.553,5.553,0,0,1-1.213,3.608,4.456,4.456,0,0,1-3.683,1.5,4.456,4.456,0,0,1-3.683-1.5A5.553,5.553,0,0,1,52.56,9.228a5.59,5.59,0,0,1,1.213-3.595,4.426,4.426,0,0,1,3.683-1.521,4.426,4.426,0,0,1,3.683,1.521A5.59,5.59,0,0,1,62.351,9.228Zm2.18,6.609.316.018a3.948,3.948,0,0,0,.7-.026,1.262,1.262,0,0,0,.563-.2A1.352,1.352,0,0,0,66.521,15a1.319,1.319,0,0,0,.154-.58l-3.516-10h2.786l2.092,7.066L70.015,4.42h2.663l-3.287,9.422a13.23,13.23,0,0,1-1.5,3.379,2.856,2.856,0,0,1-2.215.655q-.334,0-.536,0t-.606-.031Zm14.906-6.5a2.722,2.722,0,0,1-.479.242,4.006,4.006,0,0,1-.664.171l-.562.105A3.632,3.632,0,0,0,76.6,10.2a1.149,1.149,0,0,0-.58,1.063,1.12,1.12,0,0,0,.356.927,1.34,1.34,0,0,0,.866.286A2.551,2.551,0,0,0,78.729,12a2.024,2.024,0,0,0,.708-1.731ZM77.917,8.173a3.91,3.91,0,0,0,.993-.22.753.753,0,0,0,.536-.712.845.845,0,0,0-.409-.813,2.553,2.553,0,0,0-1.2-.224,1.563,1.563,0,0,0-1.257.439,1.827,1.827,0,0,0-.352.879H73.812a3.676,3.676,0,0,1,.7-2.065,4.09,4.09,0,0,1,3.41-1.266,6.059,6.059,0,0,1,2.795.624,2.4,2.4,0,0,1,1.222,2.355v4.395q0,.457.018,1.107a1.392,1.392,0,0,0,.149.668.9.9,0,0,0,.369.29V14H79.753a2.79,2.79,0,0,1-.158-.545q-.044-.255-.07-.58a5.146,5.146,0,0,1-1.2.958A3.6,3.6,0,0,1,76.5,14.3a3.143,3.143,0,0,1-2.149-.743,2.649,2.649,0,0,1-.848-2.1,2.732,2.732,0,0,1,1.362-2.558,6.049,6.049,0,0,1,2.2-.615ZM89.369,4.191q.07,0,.119,0l.215.013V6.775q-.237-.026-.422-.035t-.3-.009a2.078,2.078,0,0,0-2.03.984,3.829,3.829,0,0,0-.29,1.705V14H84.139V4.42H86.53V6.09a5.3,5.3,0,0,1,1.011-1.31A2.752,2.752,0,0,1,89.369,4.191ZM99.951,6.23a1.7,1.7,0,0,0-1.349.545A2.72,2.72,0,0,0,98,8.252h3.894a2.181,2.181,0,0,0-.6-1.507A1.87,1.87,0,0,0,99.951,6.23Zm0-2.065a5.021,5.021,0,0,1,2.153.448,3.772,3.772,0,0,1,1.582,1.415,4.828,4.828,0,0,1,.729,1.978,12.771,12.771,0,0,1,.079,1.9H97.938a2.381,2.381,0,0,0,.905,2.021,2.132,2.132,0,0,0,1.248.36,1.8,1.8,0,0,0,1.257-.439,2.087,2.087,0,0,0,.466-.659h2.558a3.178,3.178,0,0,1-.888,1.731,4.349,4.349,0,0,1-3.445,1.4,4.858,4.858,0,0,1-3.226-1.178,4.75,4.75,0,0,1-1.4-3.832,5.326,5.326,0,0,1,1.261-3.814A4.312,4.312,0,0,1,99.951,4.165ZM108.74,14h-2.5V1.045h2.5ZM16.868,28.209a3.335,3.335,0,0,1,1.248.246,2.784,2.784,0,0,1,1.116.861,2.752,2.752,0,0,1,.545,1.23,8.5,8.5,0,0,1,.088,1.415L19.847,38H17.281V31.9A2,2,0,0,0,17.1,31a1.249,1.249,0,0,0-1.23-.668,1.44,1.44,0,0,0-1.433.861,2.7,2.7,0,0,0-.2,1.1V38H11.717V32.3a3.2,3.2,0,0,0-.176-1.239,1.227,1.227,0,0,0-1.239-.694,1.479,1.479,0,0,0-1.441.694,2.675,2.675,0,0,0-.2,1.178V38H6.119V28.438H8.553v1.4a4.031,4.031,0,0,1,.879-1.063,3.007,3.007,0,0,1,1.89-.562,2.989,2.989,0,0,1,1.775.483,2.812,2.812,0,0,1,.826,1.151A3.185,3.185,0,0,1,15.145,28.6,3.728,3.728,0,0,1,16.868,28.209ZM27.45,33.342a2.722,2.722,0,0,1-.479.242,4.006,4.006,0,0,1-.664.171l-.562.105a3.632,3.632,0,0,0-1.134.343,1.149,1.149,0,0,0-.58,1.063,1.12,1.12,0,0,0,.356.927,1.34,1.34,0,0,0,.866.286A2.551,2.551,0,0,0,26.742,36a2.024,2.024,0,0,0,.708-1.731Zm-1.521-1.169a3.91,3.91,0,0,0,.993-.22.753.753,0,0,0,.536-.712.845.845,0,0,0-.409-.813,2.553,2.553,0,0,0-1.2-.224,1.563,1.563,0,0,0-1.257.439,1.827,1.827,0,0,0-.352.879H21.825a3.676,3.676,0,0,1,.7-2.065,4.09,4.09,0,0,1,3.41-1.266,6.059,6.059,0,0,1,2.795.624,2.4,2.4,0,0,1,1.222,2.355v4.395q0,.457.018,1.107a1.392,1.392,0,0,0,.149.668.9.9,0,0,0,.369.29V38H27.766a2.79,2.79,0,0,1-.158-.545q-.044-.255-.07-.58a5.146,5.146,0,0,1-1.2.958,3.6,3.6,0,0,1-1.828.466,3.143,3.143,0,0,1-2.149-.743,2.649,2.649,0,0,1-.848-2.1,2.732,2.732,0,0,1,1.362-2.558,6.049,6.049,0,0,1,2.2-.615Zm11.558-3.981a3.7,3.7,0,0,1,2.43.778,3.163,3.163,0,0,1,.945,2.58V38H38.3V32.173a2.659,2.659,0,0,0-.2-1.16,1.422,1.422,0,0,0-1.406-.738,1.744,1.744,0,0,0-1.749,1.081,3.713,3.713,0,0,0-.246,1.459V38H32.2V28.438h2.417v1.4a4.252,4.252,0,0,1,.914-1.063A3.177,3.177,0,0,1,37.487,28.191Zm4.7,2.1V28.508h1.336V25.836H46v2.672h1.556v1.784H46v5.063a1.14,1.14,0,0,0,.149.734,1.645,1.645,0,0,0,.914.145q.114,0,.242,0t.25-.013v1.872l-1.187.044a3.184,3.184,0,0,1-2.426-.615,1.832,1.832,0,0,1-.422-1.327v-5.9Zm10.758-.062a1.7,1.7,0,0,0-1.349.545,2.72,2.72,0,0,0-.6,1.477h3.894a2.181,2.181,0,0,0-.6-1.507A1.87,1.87,0,0,0,52.947,30.23Zm0-2.065a5.021,5.021,0,0,1,2.153.448,3.772,3.772,0,0,1,1.582,1.415,4.828,4.828,0,0,1,.729,1.978,12.771,12.771,0,0,1,.079,1.9H50.934a2.381,2.381,0,0,0,.905,2.021,2.132,2.132,0,0,0,1.248.36,1.8,1.8,0,0,0,1.257-.439,2.087,2.087,0,0,0,.466-.659h2.558a3.178,3.178,0,0,1-.888,1.731,4.349,4.349,0,0,1-3.445,1.4,4.858,4.858,0,0,1-3.226-1.178,4.75,4.75,0,0,1-1.4-3.832,5.326,5.326,0,0,1,1.261-3.814A4.312,4.312,0,0,1,52.947,28.165Zm11.54.026a3.7,3.7,0,0,1,2.43.778,3.163,3.163,0,0,1,.945,2.58V38H65.3V32.173a2.659,2.659,0,0,0-.2-1.16,1.422,1.422,0,0,0-1.406-.738,1.744,1.744,0,0,0-1.749,1.081,3.713,3.713,0,0,0-.246,1.459V38H59.2V28.438h2.417v1.4a4.252,4.252,0,0,1,.914-1.063A3.177,3.177,0,0,1,64.487,28.191Zm8.262-.914h-2.54V24.966h2.54Zm-2.54,1.143h2.54V38h-2.54Zm15.671-.211a3.335,3.335,0,0,1,1.248.246,2.784,2.784,0,0,1,1.116.861,2.752,2.752,0,0,1,.545,1.23,8.5,8.5,0,0,1,.088,1.415L88.859,38H86.292V31.9a2,2,0,0,0-.176-.9,1.249,1.249,0,0,0-1.23-.668,1.44,1.44,0,0,0-1.433.861,2.7,2.7,0,0,0-.2,1.1V38H80.729V32.3a3.2,3.2,0,0,0-.176-1.239,1.227,1.227,0,0,0-1.239-.694,1.479,1.479,0,0,0-1.441.694,2.675,2.675,0,0,0-.2,1.178V38H75.13V28.438h2.435v1.4a4.031,4.031,0,0,1,.879-1.063,3.478,3.478,0,0,1,3.665-.079,2.812,2.812,0,0,1,.826,1.151A3.185,3.185,0,0,1,84.157,28.6,3.728,3.728,0,0,1,85.879,28.209Zm7.875-.932h-2.54V24.966h2.54Zm-2.54,1.143h2.54V38h-2.54Zm8.745,1.811a1.7,1.7,0,0,0-1.349.545,2.72,2.72,0,0,0-.6,1.477H101.9a2.181,2.181,0,0,0-.6-1.507A1.87,1.87,0,0,0,99.959,30.23Zm0-2.065a5.021,5.021,0,0,1,2.153.448,3.772,3.772,0,0,1,1.582,1.415,4.828,4.828,0,0,1,.729,1.978,12.771,12.771,0,0,1,.079,1.9H97.947a2.381,2.381,0,0,0,.905,2.021,2.132,2.132,0,0,0,1.248.36,1.8,1.8,0,0,0,1.257-.439,2.087,2.087,0,0,0,.466-.659h2.558a3.178,3.178,0,0,1-.888,1.731,4.349,4.349,0,0,1-3.445,1.4,4.858,4.858,0,0,1-3.226-1.178,4.75,4.75,0,0,1-1.4-3.832,5.326,5.326,0,0,1,1.261-3.814A4.312,4.312,0,0,1,99.959,28.165Zm11.54.026a3.7,3.7,0,0,1,2.43.778,3.163,3.163,0,0,1,.945,2.58V38h-2.566V32.173a2.659,2.659,0,0,0-.2-1.16,1.422,1.422,0,0,0-1.406-.738,1.744,1.744,0,0,0-1.749,1.081,3.713,3.713,0,0,0-.246,1.459V38h-2.5V28.438h2.417v1.4a4.252,4.252,0,0,1,.914-1.063A3.177,3.177,0,0,1,111.5,28.191Zm4.7,2.1V28.508h1.336V25.836h2.479v2.672h1.556v1.784h-1.556v5.063a1.14,1.14,0,0,0,.149.734,1.645,1.645,0,0,0,.914.145q.114,0,.242,0t.25-.013v1.872l-1.187.044a3.184,3.184,0,0,1-2.426-.615,1.832,1.832,0,0,1-.422-1.327v-5.9Zm11.276,5.941a1.985,1.985,0,0,0,1.688-.782,3.639,3.639,0,0,0,.589-2.224,3.619,3.619,0,0,0-.589-2.219,2.224,2.224,0,0,0-3.379,0,3.6,3.6,0,0,0-.593,2.219,3.619,3.619,0,0,0,.593,2.224A2,2,0,0,0,127.478,36.233Zm4.9-3.006a5.553,5.553,0,0,1-1.213,3.608,5.274,5.274,0,0,1-7.365,0,5.953,5.953,0,0,1,0-7.2,5.22,5.22,0,0,1,7.365,0A5.59,5.59,0,0,1,132.382,33.228ZM31.958,57.342a2.722,2.722,0,0,1-.479.242,4.006,4.006,0,0,1-.664.171l-.562.105a3.632,3.632,0,0,0-1.134.343,1.149,1.149,0,0,0-.58,1.063,1.12,1.12,0,0,0,.356.927,1.34,1.34,0,0,0,.866.286A2.551,2.551,0,0,0,31.251,60a2.024,2.024,0,0,0,.708-1.731Zm-1.521-1.169a3.91,3.91,0,0,0,.993-.22.753.753,0,0,0,.536-.712.845.845,0,0,0-.409-.813,2.553,2.553,0,0,0-1.2-.224,1.563,1.563,0,0,0-1.257.439,1.827,1.827,0,0,0-.352.879H26.333a3.676,3.676,0,0,1,.7-2.065,4.09,4.09,0,0,1,3.41-1.266,6.059,6.059,0,0,1,2.795.624,2.4,2.4,0,0,1,1.222,2.355v4.395q0,.457.018,1.107a1.392,1.392,0,0,0,.149.668.9.9,0,0,0,.369.29V62H32.275a2.79,2.79,0,0,1-.158-.545q-.044-.255-.07-.58a5.146,5.146,0,0,1-1.2.958,3.6,3.6,0,0,1-1.828.466,3.143,3.143,0,0,1-2.149-.743,2.649,2.649,0,0,1-.848-2.1,2.732,2.732,0,0,1,1.362-2.558,6.049,6.049,0,0,1,2.2-.615Zm8.745-3.753v5.774a3.023,3.023,0,0,0,.193,1.23,1.338,1.338,0,0,0,1.345.729,1.758,1.758,0,0,0,1.758-1.037,3.754,3.754,0,0,0,.246-1.485V52.42h2.54V62H42.831V60.646q-.035.044-.176.264a1.764,1.764,0,0,1-.334.387,3.488,3.488,0,0,1-1.138.721,3.879,3.879,0,0,1-1.288.193,2.87,2.87,0,0,1-2.865-1.529,5.852,5.852,0,0,1-.413-2.487V52.42ZM46.7,54.292V52.508h1.336V49.836h2.479v2.672h1.556v1.784H50.512v5.063a1.14,1.14,0,0,0,.149.734,1.645,1.645,0,0,0,.914.145q.114,0,.242,0t.25-.013v1.872l-1.187.044a3.184,3.184,0,0,1-2.426-.615,1.832,1.832,0,0,1-.422-1.327v-5.9Zm11.276,5.941a1.985,1.985,0,0,0,1.688-.782,4.484,4.484,0,0,0,0-4.443,2.224,2.224,0,0,0-3.379,0,4.456,4.456,0,0,0,0,4.443A2,2,0,0,0,57.974,60.233Zm4.9-3.006a5.553,5.553,0,0,1-1.213,3.608,4.456,4.456,0,0,1-3.683,1.5,4.456,4.456,0,0,1-3.683-1.5,5.953,5.953,0,0,1,0-7.2,4.426,4.426,0,0,1,3.683-1.521,4.426,4.426,0,0,1,3.683,1.521A5.59,5.59,0,0,1,62.878,57.228ZM60.98,48.5l-2.672,2.628H56.5L58.185,48.5Zm9,3.691a3.7,3.7,0,0,1,2.43.778,3.163,3.163,0,0,1,.945,2.58V62H70.789V56.173a2.659,2.659,0,0,0-.2-1.16,1.422,1.422,0,0,0-1.406-.738,1.744,1.744,0,0,0-1.749,1.081,3.713,3.713,0,0,0-.246,1.459V62h-2.5V52.438h2.417v1.4a4.252,4.252,0,0,1,.914-1.063A3.177,3.177,0,0,1,69.98,52.191Zm9.984,8.042a1.985,1.985,0,0,0,1.688-.782,4.484,4.484,0,0,0,0-4.443,2.224,2.224,0,0,0-3.379,0,4.456,4.456,0,0,0,0,4.443A2,2,0,0,0,79.964,60.233Zm4.9-3.006a5.553,5.553,0,0,1-1.213,3.608,5.274,5.274,0,0,1-7.365,0,5.953,5.953,0,0,1,0-7.2,5.22,5.22,0,0,1,7.365,0A5.59,5.59,0,0,1,84.869,57.228Zm12.5-5.019a3.335,3.335,0,0,1,1.248.246,2.784,2.784,0,0,1,1.116.861,2.752,2.752,0,0,1,.545,1.23,8.5,8.5,0,0,1,.088,1.415L100.346,62H97.78V55.9A2,2,0,0,0,97.6,55a1.249,1.249,0,0,0-1.23-.668,1.44,1.44,0,0,0-1.433.861,2.7,2.7,0,0,0-.2,1.1V62H92.216V56.3a3.2,3.2,0,0,0-.176-1.239,1.227,1.227,0,0,0-1.239-.694,1.479,1.479,0,0,0-1.441.694,2.675,2.675,0,0,0-.2,1.178V62h-2.54V52.438h2.435v1.4a4.031,4.031,0,0,1,.879-1.063,3.478,3.478,0,0,1,3.665-.079,2.812,2.812,0,0,1,.826,1.151A3.185,3.185,0,0,1,95.644,52.6,3.728,3.728,0,0,1,97.367,52.209Zm9.6,8.024a1.985,1.985,0,0,0,1.688-.782,4.484,4.484,0,0,0,0-4.443,2.224,2.224,0,0,0-3.379,0,4.456,4.456,0,0,0,0,4.443A2,2,0,0,0,106.964,60.233Zm4.9-3.006a5.553,5.553,0,0,1-1.213,3.608,5.274,5.274,0,0,1-7.365,0,5.953,5.953,0,0,1,0-7.2,5.22,5.22,0,0,1,7.365,0A5.59,5.59,0,0,1,111.869,57.228ZM19.359,76.191q.07,0,.119,0l.215.013v2.566q-.237-.026-.422-.035t-.3-.009a2.078,2.078,0,0,0-2.03.984,3.829,3.829,0,0,0-.29,1.705V86H14.13V76.42h2.391v1.67a5.3,5.3,0,0,1,1.011-1.31A2.752,2.752,0,0,1,19.359,76.191ZM24.94,78.23a1.7,1.7,0,0,0-1.349.545,2.72,2.72,0,0,0-.6,1.477h3.894a2.181,2.181,0,0,0-.6-1.507A1.87,1.87,0,0,0,24.94,78.23Zm0-2.065a5.021,5.021,0,0,1,2.153.448,3.772,3.772,0,0,1,1.582,1.415,4.828,4.828,0,0,1,.729,1.978,12.771,12.771,0,0,1,.079,1.9H22.928a2.381,2.381,0,0,0,.905,2.021,2.132,2.132,0,0,0,1.248.36,1.8,1.8,0,0,0,1.257-.439,2.087,2.087,0,0,0,.466-.659h2.558a3.178,3.178,0,0,1-.888,1.731,4.349,4.349,0,0,1-3.445,1.4A4.858,4.858,0,0,1,21.8,85.139a4.75,4.75,0,0,1-1.4-3.832,5.326,5.326,0,0,1,1.261-3.814A4.312,4.312,0,0,1,24.94,76.165Zm11.514,5.177a2.722,2.722,0,0,1-.479.242,4.006,4.006,0,0,1-.664.171l-.562.105a3.632,3.632,0,0,0-1.134.343,1.149,1.149,0,0,0-.58,1.063,1.12,1.12,0,0,0,.356.927,1.34,1.34,0,0,0,.866.286A2.551,2.551,0,0,0,35.747,84a2.024,2.024,0,0,0,.708-1.731Zm-1.521-1.169a3.91,3.91,0,0,0,.993-.22.753.753,0,0,0,.536-.712.845.845,0,0,0-.409-.813,2.553,2.553,0,0,0-1.2-.224,1.563,1.563,0,0,0-1.257.439,1.827,1.827,0,0,0-.352.879H30.829a3.676,3.676,0,0,1,.7-2.065,4.09,4.09,0,0,1,3.41-1.266,6.059,6.059,0,0,1,2.795.624,2.4,2.4,0,0,1,1.222,2.355v4.395q0,.457.018,1.107a1.392,1.392,0,0,0,.149.668.9.9,0,0,0,.369.29V86H36.771a2.79,2.79,0,0,1-.158-.545q-.044-.255-.07-.58a5.146,5.146,0,0,1-1.2.958,3.6,3.6,0,0,1-1.828.466,3.143,3.143,0,0,1-2.149-.743,2.649,2.649,0,0,1-.848-2.1,2.732,2.732,0,0,1,1.362-2.558,6.049,6.049,0,0,1,2.2-.615ZM43.74,86h-2.5V73.045h2.5Zm5.019-10.723h-2.54V72.966h2.54Zm-2.54,1.143h2.54V86h-2.54Zm4.421,2.039V76.42h7.77V78.5l-4.86,5.44h5.027V86H50.306V84.049l4.913-5.59Zm14.827,2.883a2.722,2.722,0,0,1-.479.242,4.006,4.006,0,0,1-.664.171l-.562.105a3.632,3.632,0,0,0-1.134.343,1.149,1.149,0,0,0-.58,1.063,1.12,1.12,0,0,0,.356.927,1.34,1.34,0,0,0,.866.286A2.551,2.551,0,0,0,64.759,84a2.024,2.024,0,0,0,.708-1.731Zm-1.521-1.169a3.91,3.91,0,0,0,.993-.22.753.753,0,0,0,.536-.712.845.845,0,0,0-.409-.813,2.553,2.553,0,0,0-1.2-.224,1.563,1.563,0,0,0-1.257.439,1.827,1.827,0,0,0-.352.879H59.842a3.676,3.676,0,0,1,.7-2.065,4.09,4.09,0,0,1,3.41-1.266,6.059,6.059,0,0,1,2.795.624,2.4,2.4,0,0,1,1.222,2.355v4.395q0,.457.018,1.107a1.392,1.392,0,0,0,.149.668.9.9,0,0,0,.369.29V86H65.783a2.79,2.79,0,0,1-.158-.545q-.044-.255-.07-.58a5.146,5.146,0,0,1-1.2.958,3.6,3.6,0,0,1-1.828.466,3.143,3.143,0,0,1-2.149-.743,2.649,2.649,0,0,1-.848-2.1A2.732,2.732,0,0,1,60.9,80.894a6.049,6.049,0,0,1,2.2-.615Zm9.782-3.981a3.09,3.09,0,0,1,1.547.382,3.043,3.043,0,0,1,1.1,1.059v-4.57h2.54V86H76.479V84.673a3.533,3.533,0,0,1-1.222,1.239,3.43,3.43,0,0,1-1.705.387,3.56,3.56,0,0,1-2.826-1.358,5.215,5.215,0,0,1-1.147-3.485A6,6,0,0,1,70.709,77.6,3.674,3.674,0,0,1,73.729,76.191Zm.545,8a1.849,1.849,0,0,0,1.617-.791,3.5,3.5,0,0,0,.554-2.048,3.141,3.141,0,0,0-.888-2.514,1.91,1.91,0,0,0-1.266-.457,1.759,1.759,0,0,0-1.613.831,4.478,4.478,0,0,0,.009,4.184A1.769,1.769,0,0,0,74.273,84.189Zm11.215.044a1.985,1.985,0,0,0,1.688-.782,4.484,4.484,0,0,0,0-4.443,2.224,2.224,0,0,0-3.379,0,4.456,4.456,0,0,0,0,4.443A2,2,0,0,0,85.488,84.233Zm4.9-3.006a5.553,5.553,0,0,1-1.213,3.608,5.274,5.274,0,0,1-7.365,0,5.953,5.953,0,0,1,0-7.2,5.22,5.22,0,0,1,7.365,0A5.59,5.59,0,0,1,90.393,81.228Zm13.395-.018a3.77,3.77,0,0,0-.505-1.96,1.759,1.759,0,0,0-1.639-.853,1.865,1.865,0,0,0-1.872,1.292,4.9,4.9,0,0,0-.264,1.74,2.776,2.776,0,0,0,.888,2.347,2.021,2.021,0,0,0,1.248.4,1.809,1.809,0,0,0,1.6-.809A3.771,3.771,0,0,0,103.787,81.21Zm-1.424-5a3.753,3.753,0,0,1,2.843,1.239,5.127,5.127,0,0,1,1.165,3.639,5.771,5.771,0,0,1-1.138,3.858,3.685,3.685,0,0,1-2.931,1.327,3.059,3.059,0,0,1-1.9-.571,3.683,3.683,0,0,1-.809-.923v4.992H97.116V76.42h2.4v1.415a4.021,4.021,0,0,1,.861-.984A3.165,3.165,0,0,1,102.363,76.209Zm10.116,8.024a1.985,1.985,0,0,0,1.688-.782,4.484,4.484,0,0,0,0-4.443,2.224,2.224,0,0,0-3.379,0,4.456,4.456,0,0,0,0,4.443A2,2,0,0,0,112.479,84.233Zm4.9-3.006a5.553,5.553,0,0,1-1.213,3.608,5.274,5.274,0,0,1-7.365,0,5.953,5.953,0,0,1,0-7.2,5.22,5.22,0,0,1,7.365,0A5.59,5.59,0,0,1,117.384,81.228Zm7-5.036q.07,0,.119,0l.215.013v2.566q-.237-.026-.422-.035t-.3-.009a2.078,2.078,0,0,0-2.03.984,3.829,3.829,0,0,0-.29,1.705V86H119.15V76.42h2.391v1.67a5.3,5.3,0,0,1,1.011-1.31A2.752,2.752,0,0,1,124.38,76.191ZM13.708,110H11.2V97.045h2.5Zm6.741-1.767a1.985,1.985,0,0,0,1.688-.782,4.484,4.484,0,0,0,0-4.443,1.99,1.99,0,0,0-1.687-.778,2,2,0,0,0-1.692.778,4.456,4.456,0,0,0,0,4.443A2,2,0,0,0,20.449,108.233Zm4.9-3.006a5.553,5.553,0,0,1-1.213,3.608,4.456,4.456,0,0,1-3.683,1.5,4.456,4.456,0,0,1-3.683-1.5,5.953,5.953,0,0,1,0-7.2,4.426,4.426,0,0,1,3.683-1.521,4.426,4.426,0,0,1,3.683,1.521A5.59,5.59,0,0,1,25.354,105.228Zm3.744,1.714a1.673,1.673,0,0,0,.343.949,2.317,2.317,0,0,0,1.723.5,2.626,2.626,0,0,0,1.173-.22.737.737,0,0,0,.083-1.3,14.3,14.3,0,0,0-2.61-.756,5.437,5.437,0,0,1-2.294-1.011,2.191,2.191,0,0,1-.668-1.723,2.988,2.988,0,0,1,1.042-2.281,4.183,4.183,0,0,1,2.931-.954,5.378,5.378,0,0,1,2.922.716,3.068,3.068,0,0,1,1.3,2.474h-2.5a1.482,1.482,0,0,0-.272-.765,1.714,1.714,0,0,0-1.406-.51,2.021,2.021,0,0,0-1.165.255.734.734,0,0,0-.347.6.654.654,0,0,0,.369.624,15.98,15.98,0,0,0,2.61.694,4.8,4.8,0,0,1,2.241,1.063,2.415,2.415,0,0,1,.738,1.8,2.911,2.911,0,0,1-1.059,2.325,4.976,4.976,0,0,1-3.274.9,4.929,4.929,0,0,1-3.335-.954,3.1,3.1,0,0,1-1.077-2.43Zm17.358,1.292a1.985,1.985,0,0,0,1.688-.782,4.484,4.484,0,0,0,0-4.443,2.224,2.224,0,0,0-3.379,0,4.456,4.456,0,0,0,0,4.443A2,2,0,0,0,46.456,108.233Zm4.9-3.006a5.553,5.553,0,0,1-1.213,3.608,4.456,4.456,0,0,1-3.683,1.5,4.456,4.456,0,0,1-3.683-1.5,5.953,5.953,0,0,1,0-7.2,4.426,4.426,0,0,1,3.683-1.521,4.426,4.426,0,0,1,3.683,1.521A5.59,5.59,0,0,1,51.36,105.228Zm8.394-.018a3.77,3.77,0,0,0-.505-1.96,1.759,1.759,0,0,0-1.639-.853,1.865,1.865,0,0,0-1.872,1.292,4.9,4.9,0,0,0-.264,1.74,2.776,2.776,0,0,0,.888,2.347,2.021,2.021,0,0,0,1.248.4,1.809,1.809,0,0,0,1.6-.809A3.771,3.771,0,0,0,59.754,105.21Zm-1.424-5a3.753,3.753,0,0,1,2.843,1.239,5.127,5.127,0,0,1,1.165,3.639,5.771,5.771,0,0,1-1.138,3.858,3.685,3.685,0,0,1-2.931,1.327,3.059,3.059,0,0,1-1.9-.571,3.683,3.683,0,0,1-.809-.923v4.992H53.083V100.42h2.4v1.415a4.021,4.021,0,0,1,.861-.984A3.165,3.165,0,0,1,58.33,100.209Zm9.6,2.021a1.7,1.7,0,0,0-1.349.545,2.72,2.72,0,0,0-.6,1.477H69.87a2.181,2.181,0,0,0-.6-1.507A1.87,1.87,0,0,0,67.928,102.23Zm0-2.065a5.021,5.021,0,0,1,2.153.448,3.772,3.772,0,0,1,1.582,1.415,4.828,4.828,0,0,1,.729,1.978,12.771,12.771,0,0,1,.079,1.9H65.915a2.381,2.381,0,0,0,.905,2.021,2.132,2.132,0,0,0,1.248.36,1.8,1.8,0,0,0,1.257-.439,2.087,2.087,0,0,0,.466-.659h2.558a3.178,3.178,0,0,1-.888,1.731,4.349,4.349,0,0,1-3.445,1.4,4.858,4.858,0,0,1-3.226-1.178,4.75,4.75,0,0,1-1.4-3.832,5.326,5.326,0,0,1,1.261-3.814A4.312,4.312,0,0,1,67.928,100.165Zm11.435.026q.07,0,.119,0l.215.013v2.566q-.237-.026-.422-.035t-.3-.009a2.078,2.078,0,0,0-2.03.984,3.829,3.829,0,0,0-.29,1.705V110H74.133v-9.58h2.391v1.67a5.3,5.3,0,0,1,1.011-1.31A2.752,2.752,0,0,1,79.362,100.191Zm7.084,5.15a2.722,2.722,0,0,1-.479.242,4.006,4.006,0,0,1-.664.171l-.562.105a3.632,3.632,0,0,0-1.134.343,1.149,1.149,0,0,0-.58,1.063,1.12,1.12,0,0,0,.356.927,1.34,1.34,0,0,0,.866.286,2.551,2.551,0,0,0,1.49-.475,2.024,2.024,0,0,0,.708-1.731Zm-1.521-1.169a3.91,3.91,0,0,0,.993-.22.753.753,0,0,0,.536-.712.845.845,0,0,0-.409-.813,2.553,2.553,0,0,0-1.2-.224,1.563,1.563,0,0,0-1.257.439,1.827,1.827,0,0,0-.352.879H80.821a3.676,3.676,0,0,1,.7-2.065,4.09,4.09,0,0,1,3.41-1.266,6.059,6.059,0,0,1,2.795.624,2.4,2.4,0,0,1,1.222,2.355v4.395q0,.457.018,1.107a1.392,1.392,0,0,0,.149.668.9.9,0,0,0,.369.29V110H86.763a2.79,2.79,0,0,1-.158-.545q-.044-.255-.07-.58a5.146,5.146,0,0,1-1.2.958,3.6,3.6,0,0,1-1.828.466,3.143,3.143,0,0,1-2.149-.743,2.649,2.649,0,0,1-.848-2.1,2.732,2.732,0,0,1,1.362-2.558,6.049,6.049,0,0,1,2.2-.615Zm11.452-3.981q.07,0,.119,0l.215.013v2.566q-.237-.026-.422-.035t-.3-.009a2.078,2.078,0,0,0-2.03.984,3.829,3.829,0,0,0-.29,1.705V110H91.148v-9.58h2.391v1.67a5.3,5.3,0,0,1,1.011-1.31A2.752,2.752,0,0,1,96.378,100.191Zm4.377-.914h-2.54V96.966h2.54Zm-2.54,1.143h2.54V110h-2.54Zm9.264,7.813a1.985,1.985,0,0,0,1.688-.782,4.484,4.484,0,0,0,0-4.443,2.224,2.224,0,0,0-3.379,0,4.456,4.456,0,0,0,0,4.443A2,2,0,0,0,107.479,108.233Zm4.9-3.006a5.553,5.553,0,0,1-1.213,3.608,5.274,5.274,0,0,1-7.365,0,5.953,5.953,0,0,1,0-7.2,5.22,5.22,0,0,1,7.365,0A5.59,5.59,0,0,1,112.383,105.228Zm3.744,1.714a1.673,1.673,0,0,0,.343.949,2.317,2.317,0,0,0,1.723.5,2.626,2.626,0,0,0,1.173-.22.737.737,0,0,0,.083-1.3,14.3,14.3,0,0,0-2.61-.756,5.437,5.437,0,0,1-2.294-1.011,2.191,2.191,0,0,1-.668-1.723,2.988,2.988,0,0,1,1.042-2.281,4.183,4.183,0,0,1,2.931-.954,5.378,5.378,0,0,1,2.922.716,3.068,3.068,0,0,1,1.3,2.474h-2.5a1.482,1.482,0,0,0-.272-.765,1.714,1.714,0,0,0-1.406-.51,2.021,2.021,0,0,0-1.165.255.734.734,0,0,0-.347.6.654.654,0,0,0,.369.624,15.98,15.98,0,0,0,2.61.694,4.8,4.8,0,0,1,2.241,1.063,2.415,2.415,0,0,1,.738,1.8,2.911,2.911,0,0,1-1.059,2.325,6.354,6.354,0,0,1-6.609-.053,3.1,3.1,0,0,1-1.077-2.43Zm8.016.439h2.663V110h-2.663Z" transform="translate(610 6162.5)" fill="#00223d"/>
        <path id="Trazado_77048" data-name="Trazado 77048" d="M38.937,3.339H32.081V6.09h6.293V8.34H32.081v3.331h7.172V14H29.436V1.045h9.5Zm7.532.853a3.7,3.7,0,0,1,2.43.778,3.163,3.163,0,0,1,.945,2.58V14H47.277V8.173a2.659,2.659,0,0,0-.2-1.16,1.422,1.422,0,0,0-1.406-.738A1.744,1.744,0,0,0,43.92,7.355a3.713,3.713,0,0,0-.246,1.459V14h-2.5V4.438h2.417v1.4a4.252,4.252,0,0,1,.914-1.063A3.177,3.177,0,0,1,46.469,4.191ZM55.688.913q.237,0,.431.013l.527.04V3q-.211-.026-.708-.04a.814.814,0,0,0-.686.22.8.8,0,0,0-.189.514v.809h1.644V6.274H55.064V14h-2.5V6.274h-1.4V4.508h1.371V3.893a3.237,3.237,0,0,1,.519-2.118Q53.605.913,55.688.913Zm6.759,11.32a1.985,1.985,0,0,0,1.688-.782,3.639,3.639,0,0,0,.589-2.224,3.619,3.619,0,0,0-.589-2.219,2.224,2.224,0,0,0-3.379,0,3.6,3.6,0,0,0-.593,2.219,3.619,3.619,0,0,0,.593,2.224A2,2,0,0,0,62.447,12.233Zm4.9-3.006a5.553,5.553,0,0,1-1.213,3.608,4.456,4.456,0,0,1-3.683,1.5,4.456,4.456,0,0,1-3.683-1.5,5.553,5.553,0,0,1-1.213-3.608,5.59,5.59,0,0,1,1.213-3.595,4.426,4.426,0,0,1,3.683-1.521,4.426,4.426,0,0,1,3.683,1.521A5.59,5.59,0,0,1,67.352,9.228Zm7.515-1.371a2.223,2.223,0,0,0-.36-.967,1.511,1.511,0,0,0-1.31-.58,1.725,1.725,0,0,0-1.731,1.257,5.255,5.255,0,0,0-.246,1.775,4.832,4.832,0,0,0,.246,1.7,1.671,1.671,0,0,0,1.688,1.2,1.488,1.488,0,0,0,1.248-.475,2.362,2.362,0,0,0,.448-1.23h2.558a4.191,4.191,0,0,1-.826,2.162,4.016,4.016,0,0,1-3.489,1.644,4.082,4.082,0,0,1-3.4-1.371A5.548,5.548,0,0,1,68.6,9.4a5.63,5.63,0,0,1,1.2-3.841,4.191,4.191,0,0,1,3.322-1.371A5,5,0,0,1,76.075,5a3.761,3.761,0,0,1,1.358,2.856Zm9.571,1.485a2.722,2.722,0,0,1-.479.242,4.006,4.006,0,0,1-.664.171l-.562.105A3.632,3.632,0,0,0,81.6,10.2a1.149,1.149,0,0,0-.58,1.063,1.12,1.12,0,0,0,.356.927,1.34,1.34,0,0,0,.866.286A2.551,2.551,0,0,0,83.73,12a2.024,2.024,0,0,0,.708-1.731ZM82.917,8.173a3.91,3.91,0,0,0,.993-.22.753.753,0,0,0,.536-.712.845.845,0,0,0-.409-.813,2.553,2.553,0,0,0-1.2-.224,1.563,1.563,0,0,0-1.257.439,1.827,1.827,0,0,0-.352.879H78.813a3.676,3.676,0,0,1,.7-2.065,4.09,4.09,0,0,1,3.41-1.266,6.059,6.059,0,0,1,2.795.624,2.4,2.4,0,0,1,1.222,2.355v4.395q0,.457.018,1.107a1.392,1.392,0,0,0,.149.668.9.9,0,0,0,.369.29V14H84.754a2.79,2.79,0,0,1-.158-.545q-.044-.255-.07-.58a5.146,5.146,0,0,1-1.2.958A3.6,3.6,0,0,1,81.5,14.3a3.143,3.143,0,0,1-2.149-.743,2.649,2.649,0,0,1-.848-2.1,2.732,2.732,0,0,1,1.362-2.558,6.049,6.049,0,0,1,2.2-.615ZM94.369,4.191q.07,0,.119,0l.215.013V6.775q-.237-.026-.422-.035t-.3-.009a2.078,2.078,0,0,0-2.03.984,3.829,3.829,0,0,0-.29,1.705V14H89.14V4.42H91.53V6.09a5.3,5.3,0,0,1,1.011-1.31A2.752,2.752,0,0,1,94.369,4.191Zm12.085,5.15a2.722,2.722,0,0,1-.479.242,4.006,4.006,0,0,1-.664.171l-.562.105a3.632,3.632,0,0,0-1.134.343,1.149,1.149,0,0,0-.58,1.063,1.12,1.12,0,0,0,.356.927,1.34,1.34,0,0,0,.866.286,2.551,2.551,0,0,0,1.49-.475,2.024,2.024,0,0,0,.708-1.731Zm-1.521-1.169a3.91,3.91,0,0,0,.993-.22.753.753,0,0,0,.536-.712.845.845,0,0,0-.409-.813,2.553,2.553,0,0,0-1.2-.224,1.563,1.563,0,0,0-1.257.439,1.827,1.827,0,0,0-.352.879h-2.417a3.676,3.676,0,0,1,.7-2.065,4.09,4.09,0,0,1,3.41-1.266,6.059,6.059,0,0,1,2.795.624,2.4,2.4,0,0,1,1.222,2.355v4.395q0,.457.018,1.107a1.392,1.392,0,0,0,.149.668.9.9,0,0,0,.369.29V14h-2.725a2.79,2.79,0,0,1-.158-.545q-.044-.255-.07-.58a5.146,5.146,0,0,1-1.2.958,3.6,3.6,0,0,1-1.828.466,3.143,3.143,0,0,1-2.149-.743,2.649,2.649,0,0,1-.848-2.1,2.732,2.732,0,0,1,1.362-2.558,6.049,6.049,0,0,1,2.2-.615ZM113.74,14h-2.5V1.045h2.5ZM33.949,30.23a1.7,1.7,0,0,0-1.349.545,2.72,2.72,0,0,0-.6,1.477h3.894a2.181,2.181,0,0,0-.6-1.507A1.87,1.87,0,0,0,33.949,30.23Zm0-2.065a5.021,5.021,0,0,1,2.153.448,3.772,3.772,0,0,1,1.582,1.415,4.828,4.828,0,0,1,.729,1.978,12.771,12.771,0,0,1,.079,1.9H31.936a2.381,2.381,0,0,0,.905,2.021,2.132,2.132,0,0,0,1.248.36,1.8,1.8,0,0,0,1.257-.439,2.087,2.087,0,0,0,.466-.659H38.37a3.178,3.178,0,0,1-.888,1.731,4.349,4.349,0,0,1-3.445,1.4,4.858,4.858,0,0,1-3.226-1.178,4.75,4.75,0,0,1-1.4-3.832,5.326,5.326,0,0,1,1.261-3.814A4.312,4.312,0,0,1,33.949,28.165Zm10.292,7.989a1.891,1.891,0,0,0,1.837-1.107,4.249,4.249,0,0,0,.352-1.846,3.944,3.944,0,0,0-.3-1.573A1.9,1.9,0,0,0,44.25,30.38a1.846,1.846,0,0,0-1.525.729,3.543,3.543,0,0,0-.576,2.215,4.269,4.269,0,0,0,.264,1.626A1.814,1.814,0,0,0,44.241,36.154Zm-.633-7.98a3.008,3.008,0,0,1,1.934.589,3.85,3.85,0,0,1,.879,1.1V28.438h2.417V41.8H46.359V36.813a2.663,2.663,0,0,1-.962,1.033,3.324,3.324,0,0,1-1.859.453,3.639,3.639,0,0,1-2.83-1.327,5.165,5.165,0,0,1-1.169-3.542,5.849,5.849,0,0,1,1.173-3.823A3.606,3.606,0,0,1,43.608,28.174Zm10.063.246v5.774a3.023,3.023,0,0,0,.193,1.23,1.338,1.338,0,0,0,1.345.729,1.758,1.758,0,0,0,1.758-1.037,3.754,3.754,0,0,0,.246-1.485V28.42h2.54V38H57.319V36.646q-.035.044-.176.264a1.764,1.764,0,0,1-.334.387,3.488,3.488,0,0,1-1.138.721,3.879,3.879,0,0,1-1.288.193,2.87,2.87,0,0,1-2.865-1.529,5.852,5.852,0,0,1-.413-2.487V28.42Zm11.074-1.143h-2.54V24.966h2.54Zm-2.54,1.143h2.54V38h-2.54Zm11.566,4.79a3.77,3.77,0,0,0-.505-1.96,1.759,1.759,0,0,0-1.639-.853,1.865,1.865,0,0,0-1.872,1.292,4.9,4.9,0,0,0-.264,1.74,2.776,2.776,0,0,0,.888,2.347,2.021,2.021,0,0,0,1.248.4,1.809,1.809,0,0,0,1.6-.809A3.771,3.771,0,0,0,73.772,33.21Zm-1.424-5a3.753,3.753,0,0,1,2.843,1.239,5.127,5.127,0,0,1,1.165,3.639,5.771,5.771,0,0,1-1.138,3.858,3.685,3.685,0,0,1-2.931,1.327,3.059,3.059,0,0,1-1.9-.571,3.683,3.683,0,0,1-.809-.923v4.992H67.1V28.42h2.4v1.415a4.021,4.021,0,0,1,.861-.984A3.165,3.165,0,0,1,72.348,28.209Zm10.116,8.024a1.985,1.985,0,0,0,1.688-.782,3.639,3.639,0,0,0,.589-2.224,3.619,3.619,0,0,0-.589-2.219,2.224,2.224,0,0,0-3.379,0,3.6,3.6,0,0,0-.593,2.219,3.619,3.619,0,0,0,.593,2.224A2,2,0,0,0,82.464,36.233Zm4.9-3.006a5.553,5.553,0,0,1-1.213,3.608,5.274,5.274,0,0,1-7.365,0,5.953,5.953,0,0,1,0-7.2,5.22,5.22,0,0,1,7.365,0A5.59,5.59,0,0,1,87.369,33.228ZM97.7,28.191a3.09,3.09,0,0,1,1.547.382,3.043,3.043,0,0,1,1.1,1.059v-4.57h2.54V38h-2.435V36.673a3.533,3.533,0,0,1-1.222,1.239,3.43,3.43,0,0,1-1.705.387,3.56,3.56,0,0,1-2.826-1.358,5.215,5.215,0,0,1-1.147-3.485A6,6,0,0,1,94.677,29.6,3.674,3.674,0,0,1,97.7,28.191Zm.545,8a1.849,1.849,0,0,0,1.617-.791,3.5,3.5,0,0,0,.554-2.048,3.141,3.141,0,0,0-.888-2.514,1.91,1.91,0,0,0-1.266-.457,1.759,1.759,0,0,0-1.613.831,4.478,4.478,0,0,0,.009,4.184A1.769,1.769,0,0,0,98.241,36.189Zm10.7-5.959a1.7,1.7,0,0,0-1.349.545,2.72,2.72,0,0,0-.6,1.477h3.894a2.181,2.181,0,0,0-.6-1.507A1.87,1.87,0,0,0,108.937,30.23Zm0-2.065a5.021,5.021,0,0,1,2.153.448,3.772,3.772,0,0,1,1.582,1.415,4.828,4.828,0,0,1,.729,1.978,12.771,12.771,0,0,1,.079,1.9h-6.557a2.381,2.381,0,0,0,.905,2.021,2.132,2.132,0,0,0,1.248.36,1.8,1.8,0,0,0,1.257-.439,2.087,2.087,0,0,0,.466-.659h2.558a3.178,3.178,0,0,1-.888,1.731,4.349,4.349,0,0,1-3.445,1.4,4.858,4.858,0,0,1-3.226-1.178,4.75,4.75,0,0,1-1.4-3.832,5.326,5.326,0,0,1,1.261-3.814A4.312,4.312,0,0,1,108.937,28.165ZM19.368,52.209a3.335,3.335,0,0,1,1.248.246,2.784,2.784,0,0,1,1.116.861,2.752,2.752,0,0,1,.545,1.23,8.5,8.5,0,0,1,.088,1.415L22.347,62H19.781V55.9A2,2,0,0,0,19.6,55a1.249,1.249,0,0,0-1.23-.668,1.44,1.44,0,0,0-1.433.861,2.7,2.7,0,0,0-.2,1.1V62H14.217V56.3a3.2,3.2,0,0,0-.176-1.239,1.227,1.227,0,0,0-1.239-.694,1.479,1.479,0,0,0-1.441.694,2.675,2.675,0,0,0-.2,1.178V62H8.619V52.438h2.435v1.4a4.031,4.031,0,0,1,.879-1.063,3.007,3.007,0,0,1,1.89-.562,2.989,2.989,0,0,1,1.775.483,2.812,2.812,0,0,1,.826,1.151A3.185,3.185,0,0,1,17.645,52.6,3.728,3.728,0,0,1,19.368,52.209ZM29.95,57.342a2.722,2.722,0,0,1-.479.242,4.006,4.006,0,0,1-.664.171l-.562.105a3.632,3.632,0,0,0-1.134.343,1.149,1.149,0,0,0-.58,1.063,1.12,1.12,0,0,0,.356.927,1.34,1.34,0,0,0,.866.286A2.551,2.551,0,0,0,29.242,60a2.024,2.024,0,0,0,.708-1.731Zm-1.521-1.169a3.91,3.91,0,0,0,.993-.22.753.753,0,0,0,.536-.712.845.845,0,0,0-.409-.813,2.553,2.553,0,0,0-1.2-.224,1.563,1.563,0,0,0-1.257.439,1.827,1.827,0,0,0-.352.879H24.325a3.676,3.676,0,0,1,.7-2.065,4.09,4.09,0,0,1,3.41-1.266,6.059,6.059,0,0,1,2.795.624,2.4,2.4,0,0,1,1.222,2.355v4.395q0,.457.018,1.107a1.392,1.392,0,0,0,.149.668.9.9,0,0,0,.369.29V62H30.266a2.79,2.79,0,0,1-.158-.545q-.044-.255-.07-.58a5.146,5.146,0,0,1-1.2.958,3.6,3.6,0,0,1-1.828.466,3.143,3.143,0,0,1-2.149-.743,2.649,2.649,0,0,1-.848-2.1,2.732,2.732,0,0,1,1.362-2.558,6.049,6.049,0,0,1,2.2-.615Zm11.558-3.981a3.7,3.7,0,0,1,2.43.778,3.163,3.163,0,0,1,.945,2.58V62H40.8V56.173a2.659,2.659,0,0,0-.2-1.16,1.422,1.422,0,0,0-1.406-.738,1.744,1.744,0,0,0-1.749,1.081,3.713,3.713,0,0,0-.246,1.459V62H34.7V52.438h2.417v1.4a4.252,4.252,0,0,1,.914-1.063A3.177,3.177,0,0,1,39.987,52.191Zm4.7,2.1V52.508h1.336V49.836H48.5v2.672h1.556v1.784H48.5v5.063a1.14,1.14,0,0,0,.149.734,1.645,1.645,0,0,0,.914.145q.114,0,.242,0t.25-.013v1.872l-1.187.044a3.184,3.184,0,0,1-2.426-.615,1.832,1.832,0,0,1-.422-1.327v-5.9Zm10.758-.062a1.7,1.7,0,0,0-1.349.545,2.72,2.72,0,0,0-.6,1.477h3.894a2.181,2.181,0,0,0-.6-1.507A1.87,1.87,0,0,0,55.447,54.23Zm0-2.065a5.021,5.021,0,0,1,2.153.448,3.772,3.772,0,0,1,1.582,1.415,4.828,4.828,0,0,1,.729,1.978,12.771,12.771,0,0,1,.079,1.9H53.434a2.381,2.381,0,0,0,.905,2.021,2.132,2.132,0,0,0,1.248.36,1.8,1.8,0,0,0,1.257-.439,2.087,2.087,0,0,0,.466-.659h2.558a3.178,3.178,0,0,1-.888,1.731,4.349,4.349,0,0,1-3.445,1.4,4.858,4.858,0,0,1-3.226-1.178,4.75,4.75,0,0,1-1.4-3.832,5.326,5.326,0,0,1,1.261-3.814A4.312,4.312,0,0,1,55.447,52.165Zm11.54.026a3.7,3.7,0,0,1,2.43.778,3.163,3.163,0,0,1,.945,2.58V62H67.8V56.173a2.659,2.659,0,0,0-.2-1.16,1.422,1.422,0,0,0-1.406-.738,1.744,1.744,0,0,0-1.749,1.081,3.713,3.713,0,0,0-.246,1.459V62H61.7V52.438h2.417v1.4a4.252,4.252,0,0,1,.914-1.063A3.177,3.177,0,0,1,66.987,52.191Zm8.262-.914h-2.54V48.966h2.54Zm-2.54,1.143h2.54V62h-2.54Zm15.671-.211a3.335,3.335,0,0,1,1.248.246,2.784,2.784,0,0,1,1.116.861,2.752,2.752,0,0,1,.545,1.23,8.5,8.5,0,0,1,.088,1.415L91.359,62H88.792V55.9a2,2,0,0,0-.176-.9,1.249,1.249,0,0,0-1.23-.668,1.44,1.44,0,0,0-1.433.861,2.7,2.7,0,0,0-.2,1.1V62H83.229V56.3a3.2,3.2,0,0,0-.176-1.239,1.227,1.227,0,0,0-1.239-.694,1.479,1.479,0,0,0-1.441.694,2.675,2.675,0,0,0-.2,1.178V62H77.63V52.438h2.435v1.4a4.031,4.031,0,0,1,.879-1.063,3.478,3.478,0,0,1,3.665-.079,2.812,2.812,0,0,1,.826,1.151A3.185,3.185,0,0,1,86.657,52.6,3.728,3.728,0,0,1,88.379,52.209Zm7.875-.932h-2.54V48.966h2.54Zm-2.54,1.143h2.54V62h-2.54Zm8.745,1.811a1.7,1.7,0,0,0-1.349.545,2.72,2.72,0,0,0-.6,1.477H104.4a2.181,2.181,0,0,0-.6-1.507A1.87,1.87,0,0,0,102.459,54.23Zm0-2.065a5.021,5.021,0,0,1,2.153.448,3.772,3.772,0,0,1,1.582,1.415,4.828,4.828,0,0,1,.729,1.978A12.771,12.771,0,0,1,107,57.9h-6.557a2.381,2.381,0,0,0,.905,2.021,2.132,2.132,0,0,0,1.248.36,1.8,1.8,0,0,0,1.257-.439,2.087,2.087,0,0,0,.466-.659h2.558a3.178,3.178,0,0,1-.888,1.731,4.349,4.349,0,0,1-3.445,1.4,4.858,4.858,0,0,1-3.226-1.178,4.75,4.75,0,0,1-1.4-3.832,5.326,5.326,0,0,1,1.261-3.814A4.312,4.312,0,0,1,102.459,52.165Zm11.54.026a3.7,3.7,0,0,1,2.43.778,3.163,3.163,0,0,1,.945,2.58V62h-2.566V56.173a2.659,2.659,0,0,0-.2-1.16,1.422,1.422,0,0,0-1.406-.738,1.744,1.744,0,0,0-1.749,1.081,3.713,3.713,0,0,0-.246,1.459V62h-2.5V52.438h2.417v1.4a4.252,4.252,0,0,1,.914-1.063A3.177,3.177,0,0,1,114,52.191Zm4.7,2.1V52.508h1.336V49.836h2.479v2.672h1.556v1.784h-1.556v5.063a1.14,1.14,0,0,0,.149.734,1.645,1.645,0,0,0,.914.145q.114,0,.242,0t.25-.013v1.872l-1.187.044a3.184,3.184,0,0,1-2.426-.615,1.832,1.832,0,0,1-.422-1.327v-5.9Zm11.276,5.941a1.985,1.985,0,0,0,1.688-.782,4.484,4.484,0,0,0,0-4.443,2.224,2.224,0,0,0-3.379,0,4.456,4.456,0,0,0,0,4.443A2,2,0,0,0,129.978,60.233Zm4.9-3.006a5.553,5.553,0,0,1-1.213,3.608,5.274,5.274,0,0,1-7.365,0,5.953,5.953,0,0,1,0-7.2,5.22,5.22,0,0,1,7.365,0A5.59,5.59,0,0,1,134.882,57.228Zm-83.949,21a1.7,1.7,0,0,0-1.349.545,2.72,2.72,0,0,0-.6,1.477h3.894a2.181,2.181,0,0,0-.6-1.507A1.87,1.87,0,0,0,50.934,78.23Zm0-2.065a5.021,5.021,0,0,1,2.153.448,3.772,3.772,0,0,1,1.582,1.415,4.828,4.828,0,0,1,.729,1.978,12.771,12.771,0,0,1,.079,1.9H48.921a2.381,2.381,0,0,0,.905,2.021,2.132,2.132,0,0,0,1.248.36,1.8,1.8,0,0,0,1.257-.439,2.087,2.087,0,0,0,.466-.659h2.558a3.178,3.178,0,0,1-.888,1.731,4.349,4.349,0,0,1-3.445,1.4A4.858,4.858,0,0,1,47.8,85.139a4.75,4.75,0,0,1-1.4-3.832,5.326,5.326,0,0,1,1.261-3.814A4.312,4.312,0,0,1,50.934,76.165Zm11.54.026a3.7,3.7,0,0,1,2.43.778,3.163,3.163,0,0,1,.945,2.58V86H63.282V80.173a2.659,2.659,0,0,0-.2-1.16,1.422,1.422,0,0,0-1.406-.738,1.744,1.744,0,0,0-1.749,1.081,3.713,3.713,0,0,0-.246,1.459V86h-2.5V76.438H59.6v1.4a4.252,4.252,0,0,1,.914-1.063A3.177,3.177,0,0,1,62.474,76.191ZM75.719,86h-2.5V73.045h2.5Zm7.726-4.658a2.722,2.722,0,0,1-.479.242,4.006,4.006,0,0,1-.664.171l-.562.105a3.632,3.632,0,0,0-1.134.343,1.149,1.149,0,0,0-.58,1.063,1.12,1.12,0,0,0,.356.927,1.34,1.34,0,0,0,.866.286A2.551,2.551,0,0,0,82.737,84a2.024,2.024,0,0,0,.708-1.731Zm-1.521-1.169a3.91,3.91,0,0,0,.993-.22.753.753,0,0,0,.536-.712.845.845,0,0,0-.409-.813,2.553,2.553,0,0,0-1.2-.224,1.563,1.563,0,0,0-1.257.439,1.827,1.827,0,0,0-.352.879H77.819a3.676,3.676,0,0,1,.7-2.065,4.09,4.09,0,0,1,3.41-1.266,6.059,6.059,0,0,1,2.795.624,2.4,2.4,0,0,1,1.222,2.355v4.395q0,.457.018,1.107a1.392,1.392,0,0,0,.149.668.9.9,0,0,0,.369.29V86H83.761a2.79,2.79,0,0,1-.158-.545q-.044-.255-.07-.58a5.146,5.146,0,0,1-1.2.958,3.6,3.6,0,0,1-1.828.466,3.143,3.143,0,0,1-2.149-.743,2.649,2.649,0,0,1-.848-2.1,2.732,2.732,0,0,1,1.362-2.558,6.049,6.049,0,0,1,2.2-.615Zm8.2,2.769a1.673,1.673,0,0,0,.343.949,2.317,2.317,0,0,0,1.723.5,2.626,2.626,0,0,0,1.173-.22.737.737,0,0,0,.083-1.3,14.3,14.3,0,0,0-2.61-.756A5.437,5.437,0,0,1,88.542,81.1a2.191,2.191,0,0,1-.668-1.723A2.988,2.988,0,0,1,88.916,77.1a4.183,4.183,0,0,1,2.931-.954,5.378,5.378,0,0,1,2.922.716,3.068,3.068,0,0,1,1.3,2.474h-2.5a1.482,1.482,0,0,0-.272-.765,1.714,1.714,0,0,0-1.406-.51,2.021,2.021,0,0,0-1.165.255.734.734,0,0,0-.347.6.654.654,0,0,0,.369.624,15.98,15.98,0,0,0,2.61.694A4.8,4.8,0,0,1,95.591,81.3a2.415,2.415,0,0,1,.738,1.8,2.911,2.911,0,0,1-1.059,2.325,6.354,6.354,0,0,1-6.609-.053,3.1,3.1,0,0,1-1.077-2.43Zm-61.2,22.4a2.722,2.722,0,0,1-.479.242,4.006,4.006,0,0,1-.664.171l-.562.105a3.632,3.632,0,0,0-1.134.343,1.149,1.149,0,0,0-.58,1.063,1.12,1.12,0,0,0,.356.927,1.34,1.34,0,0,0,.866.286,2.551,2.551,0,0,0,1.49-.475,2.024,2.024,0,0,0,.708-1.731Zm-1.521-1.169a3.91,3.91,0,0,0,.993-.22.753.753,0,0,0,.536-.712.845.845,0,0,0-.409-.813,2.553,2.553,0,0,0-1.2-.224,1.563,1.563,0,0,0-1.257.439,1.827,1.827,0,0,0-.352.879H23.3a3.676,3.676,0,0,1,.7-2.065,4.09,4.09,0,0,1,3.41-1.266,6.059,6.059,0,0,1,2.795.624,2.4,2.4,0,0,1,1.222,2.355v4.395q0,.457.018,1.107a1.392,1.392,0,0,0,.149.668.9.9,0,0,0,.369.29V110H29.242a2.79,2.79,0,0,1-.158-.545q-.044-.255-.07-.58a5.146,5.146,0,0,1-1.2.958,3.6,3.6,0,0,1-1.828.466,3.143,3.143,0,0,1-2.149-.743,2.649,2.649,0,0,1-.848-2.1,2.732,2.732,0,0,1,1.362-2.558,6.049,6.049,0,0,1,2.2-.615Zm11.971-.316a2.223,2.223,0,0,0-.36-.967,1.511,1.511,0,0,0-1.31-.58,1.725,1.725,0,0,0-1.731,1.257,5.255,5.255,0,0,0-.246,1.775,4.832,4.832,0,0,0,.246,1.7,1.671,1.671,0,0,0,1.688,1.2,1.488,1.488,0,0,0,1.248-.475,2.362,2.362,0,0,0,.448-1.23h2.558a4.191,4.191,0,0,1-.826,2.162,4.016,4.016,0,0,1-3.489,1.644,4.082,4.082,0,0,1-3.4-1.371,5.548,5.548,0,0,1-1.09-3.56,5.63,5.63,0,0,1,1.2-3.841,4.191,4.191,0,0,1,3.322-1.371,5,5,0,0,1,2.949.809,3.761,3.761,0,0,1,1.358,2.856Zm3.3-1.564v-1.784h1.336V97.836H46.5v2.672h1.556v1.784H46.5v5.063a1.14,1.14,0,0,0,.149.734,1.645,1.645,0,0,0,.914.145q.114,0,.242,0t.25-.013v1.872l-1.187.044a3.184,3.184,0,0,1-2.426-.615,1.832,1.832,0,0,1-.422-1.327v-5.9Zm9.554-3.015h-2.54V96.966h2.54Zm-2.54,1.143h2.54V110h-2.54Zm10.872,0h2.689L59.8,110H57.156l-3.437-9.58h2.813l2,7.066Zm6.68-1.143h-2.54V96.966h2.54Zm-2.54,1.143h2.54V110h-2.54Zm8.5-.229a3.09,3.09,0,0,1,1.547.382,3.043,3.043,0,0,1,1.1,1.059v-4.57h2.54V110H75.956v-1.327a3.533,3.533,0,0,1-1.222,1.239,3.43,3.43,0,0,1-1.705.387,3.56,3.56,0,0,1-2.826-1.358,5.215,5.215,0,0,1-1.147-3.485,6,6,0,0,1,1.129-3.858A3.674,3.674,0,0,1,73.205,100.191Zm.545,8a1.849,1.849,0,0,0,1.617-.791,3.5,3.5,0,0,0,.554-2.048,3.141,3.141,0,0,0-.888-2.514,1.91,1.91,0,0,0-1.266-.457,1.759,1.759,0,0,0-1.613.831,4.478,4.478,0,0,0,.009,4.184A1.769,1.769,0,0,0,73.75,108.189Zm12.2-2.848a2.722,2.722,0,0,1-.479.242,4.006,4.006,0,0,1-.664.171l-.562.105a3.632,3.632,0,0,0-1.134.343,1.149,1.149,0,0,0-.58,1.063,1.12,1.12,0,0,0,.356.927,1.34,1.34,0,0,0,.866.286,2.551,2.551,0,0,0,1.49-.475,2.024,2.024,0,0,0,.708-1.731Zm-1.521-1.169a3.91,3.91,0,0,0,.993-.22.753.753,0,0,0,.536-.712.845.845,0,0,0-.409-.813,2.553,2.553,0,0,0-1.2-.224,1.563,1.563,0,0,0-1.257.439,1.827,1.827,0,0,0-.352.879H80.324a3.676,3.676,0,0,1,.7-2.065,4.09,4.09,0,0,1,3.41-1.266,6.059,6.059,0,0,1,2.795.624,2.4,2.4,0,0,1,1.222,2.355v4.395q0,.457.018,1.107a1.392,1.392,0,0,0,.149.668.9.9,0,0,0,.369.29V110H86.266a2.79,2.79,0,0,1-.158-.545q-.044-.255-.07-.58a5.146,5.146,0,0,1-1.2.958,3.6,3.6,0,0,1-1.828.466,3.143,3.143,0,0,1-2.149-.743,2.649,2.649,0,0,1-.848-2.1,2.732,2.732,0,0,1,1.362-2.558,6.049,6.049,0,0,1,2.2-.615Zm9.782-3.981a3.09,3.09,0,0,1,1.547.382,3.043,3.043,0,0,1,1.1,1.059v-4.57H99.4V110H96.962v-1.327a3.533,3.533,0,0,1-1.222,1.239,3.43,3.43,0,0,1-1.705.387,3.56,3.56,0,0,1-2.826-1.358,5.215,5.215,0,0,1-1.147-3.485,6,6,0,0,1,1.129-3.858A3.674,3.674,0,0,1,94.211,100.191Zm.545,8a1.849,1.849,0,0,0,1.617-.791,3.5,3.5,0,0,0,.554-2.048,3.141,3.141,0,0,0-.888-2.514,1.91,1.91,0,0,0-1.266-.457,1.759,1.759,0,0,0-1.613.831,4.478,4.478,0,0,0,.009,4.184A1.769,1.769,0,0,0,94.756,108.189Zm10.7-5.959a1.7,1.7,0,0,0-1.349.545,2.72,2.72,0,0,0-.6,1.477h3.894a2.181,2.181,0,0,0-.6-1.507A1.87,1.87,0,0,0,105.452,102.23Zm0-2.065a5.021,5.021,0,0,1,2.153.448,3.772,3.772,0,0,1,1.582,1.415,4.828,4.828,0,0,1,.729,1.978,12.771,12.771,0,0,1,.079,1.9h-6.557a2.381,2.381,0,0,0,.905,2.021,2.132,2.132,0,0,0,1.248.36,1.8,1.8,0,0,0,1.257-.439,2.087,2.087,0,0,0,.466-.659h2.558a3.178,3.178,0,0,1-.888,1.731,4.349,4.349,0,0,1-3.445,1.4,4.858,4.858,0,0,1-3.226-1.178,4.75,4.75,0,0,1-1.4-3.832,5.326,5.326,0,0,1,1.261-3.814A4.312,4.312,0,0,1,105.452,100.165Zm8.183,6.776a1.673,1.673,0,0,0,.343.949,2.317,2.317,0,0,0,1.723.5,2.626,2.626,0,0,0,1.173-.22.737.737,0,0,0,.083-1.3,14.3,14.3,0,0,0-2.61-.756,5.437,5.437,0,0,1-2.294-1.011,2.191,2.191,0,0,1-.668-1.723,2.988,2.988,0,0,1,1.042-2.281,4.183,4.183,0,0,1,2.931-.954,5.378,5.378,0,0,1,2.922.716,3.068,3.068,0,0,1,1.3,2.474h-2.5a1.482,1.482,0,0,0-.272-.765,1.714,1.714,0,0,0-1.406-.51,2.021,2.021,0,0,0-1.165.255.734.734,0,0,0-.347.6.654.654,0,0,0,.369.624,15.98,15.98,0,0,0,2.61.694A4.8,4.8,0,0,1,119.1,105.3a2.415,2.415,0,0,1,.738,1.8,2.911,2.911,0,0,1-1.059,2.325,6.354,6.354,0,0,1-6.609-.053,3.1,3.1,0,0,1-1.077-2.43ZM10.908,126.23a1.7,1.7,0,0,0-1.349.545,2.72,2.72,0,0,0-.6,1.477h3.894a2.181,2.181,0,0,0-.6-1.507A1.87,1.87,0,0,0,10.908,126.23Zm0-2.065a5.021,5.021,0,0,1,2.153.448,3.772,3.772,0,0,1,1.582,1.415,4.828,4.828,0,0,1,.729,1.978,12.771,12.771,0,0,1,.079,1.9H8.9a2.381,2.381,0,0,0,.905,2.021,2.132,2.132,0,0,0,1.248.36,1.8,1.8,0,0,0,1.257-.439,2.087,2.087,0,0,0,.466-.659h2.558a3.178,3.178,0,0,1-.888,1.731,4.349,4.349,0,0,1-3.445,1.4,4.858,4.858,0,0,1-3.226-1.178,4.75,4.75,0,0,1-1.4-3.832,5.326,5.326,0,0,1,1.261-3.814A4.312,4.312,0,0,1,10.908,124.165Zm8.183,6.776a1.673,1.673,0,0,0,.343.949,2.317,2.317,0,0,0,1.723.5,2.626,2.626,0,0,0,1.173-.22.737.737,0,0,0,.083-1.3,14.3,14.3,0,0,0-2.61-.756,5.437,5.437,0,0,1-2.294-1.011,2.191,2.191,0,0,1-.668-1.723,2.988,2.988,0,0,1,1.042-2.281,4.183,4.183,0,0,1,2.931-.954,5.378,5.378,0,0,1,2.922.716,3.068,3.068,0,0,1,1.3,2.474h-2.5a1.482,1.482,0,0,0-.272-.765,1.714,1.714,0,0,0-1.406-.51,2.021,2.021,0,0,0-1.165.255.734.734,0,0,0-.347.6.654.654,0,0,0,.369.624,15.98,15.98,0,0,0,2.61.694,4.8,4.8,0,0,1,2.241,1.063,2.415,2.415,0,0,1,.738,1.8,2.911,2.911,0,0,1-1.059,2.325,4.976,4.976,0,0,1-3.274.9,4.929,4.929,0,0,1-3.335-.954,3.1,3.1,0,0,1-1.077-2.43Zm14.66-1.731a3.77,3.77,0,0,0-.505-1.96,1.759,1.759,0,0,0-1.639-.853,1.865,1.865,0,0,0-1.872,1.292,4.9,4.9,0,0,0-.264,1.74,2.776,2.776,0,0,0,.888,2.347,2.021,2.021,0,0,0,1.248.4,1.809,1.809,0,0,0,1.6-.809A3.771,3.771,0,0,0,33.751,129.21Zm-1.424-5a3.753,3.753,0,0,1,2.843,1.239,5.127,5.127,0,0,1,1.165,3.639,5.771,5.771,0,0,1-1.138,3.858,3.685,3.685,0,0,1-2.931,1.327,3.059,3.059,0,0,1-1.9-.571,3.683,3.683,0,0,1-.809-.923v4.992H27.08V124.42h2.4v1.415a4.021,4.021,0,0,1,.861-.984A3.165,3.165,0,0,1,32.327,124.209Zm9.6,2.021a1.7,1.7,0,0,0-1.349.545,2.72,2.72,0,0,0-.6,1.477h3.894a2.181,2.181,0,0,0-.6-1.507A1.87,1.87,0,0,0,41.925,126.23Zm0-2.065a5.021,5.021,0,0,1,2.153.448,3.772,3.772,0,0,1,1.582,1.415,4.828,4.828,0,0,1,.729,1.978,12.771,12.771,0,0,1,.079,1.9H39.912a2.381,2.381,0,0,0,.905,2.021,2.132,2.132,0,0,0,1.248.36,1.8,1.8,0,0,0,1.257-.439,2.087,2.087,0,0,0,.466-.659h2.558a3.178,3.178,0,0,1-.888,1.731,4.349,4.349,0,0,1-3.445,1.4,4.858,4.858,0,0,1-3.226-1.178,4.75,4.75,0,0,1-1.4-3.832,5.326,5.326,0,0,1,1.261-3.814A4.312,4.312,0,0,1,41.925,124.165Zm11.953,3.691a2.223,2.223,0,0,0-.36-.967,1.511,1.511,0,0,0-1.31-.58,1.725,1.725,0,0,0-1.731,1.257,5.255,5.255,0,0,0-.246,1.775,4.832,4.832,0,0,0,.246,1.7,1.671,1.671,0,0,0,1.688,1.2,1.488,1.488,0,0,0,1.248-.475,2.362,2.362,0,0,0,.448-1.23h2.558a4.191,4.191,0,0,1-.826,2.162,4.016,4.016,0,0,1-3.489,1.644,4.082,4.082,0,0,1-3.4-1.371,5.548,5.548,0,0,1-1.09-3.56,5.63,5.63,0,0,1,1.2-3.841,4.191,4.191,0,0,1,3.322-1.371,5,5,0,0,1,2.949.809,3.761,3.761,0,0,1,1.358,2.856Zm6.864-4.579H58.2v-2.312h2.54ZM58.2,124.42h2.54V134H58.2Zm10.248,4.922a2.722,2.722,0,0,1-.479.242,4.006,4.006,0,0,1-.664.171l-.562.105a3.632,3.632,0,0,0-1.134.343,1.149,1.149,0,0,0-.58,1.063,1.12,1.12,0,0,0,.356.927,1.34,1.34,0,0,0,.866.286,2.551,2.551,0,0,0,1.49-.475,2.024,2.024,0,0,0,.708-1.731Zm-1.521-1.169a3.91,3.91,0,0,0,.993-.22.753.753,0,0,0,.536-.712.845.845,0,0,0-.409-.813,2.553,2.553,0,0,0-1.2-.224,1.563,1.563,0,0,0-1.257.439,1.827,1.827,0,0,0-.352.879H62.825a3.676,3.676,0,0,1,.7-2.065,4.09,4.09,0,0,1,3.41-1.266,6.059,6.059,0,0,1,2.795.624,2.4,2.4,0,0,1,1.222,2.355v4.395q0,.457.018,1.107a1.392,1.392,0,0,0,.149.668.9.9,0,0,0,.369.29V134H68.767a2.79,2.79,0,0,1-.158-.545q-.044-.255-.07-.58a5.146,5.146,0,0,1-1.2.958,3.6,3.6,0,0,1-1.828.466,3.143,3.143,0,0,1-2.149-.743,2.649,2.649,0,0,1-.848-2.1,2.732,2.732,0,0,1,1.362-2.558,6.049,6.049,0,0,1,2.2-.615ZM75.736,134h-2.5V121.045h2.5Zm5.019-10.723h-2.54v-2.312h2.54Zm-2.54,1.143h2.54V134h-2.54Zm4.421,2.039V124.42h7.77V126.5l-4.86,5.44h5.027V134H82.3v-1.951l4.913-5.59Zm14.827,2.883a2.722,2.722,0,0,1-.479.242,4.006,4.006,0,0,1-.664.171l-.562.105a3.632,3.632,0,0,0-1.134.343,1.149,1.149,0,0,0-.58,1.063,1.12,1.12,0,0,0,.356.927,1.34,1.34,0,0,0,.866.286,2.551,2.551,0,0,0,1.49-.475,2.024,2.024,0,0,0,.708-1.731Zm-1.521-1.169a3.91,3.91,0,0,0,.993-.22.753.753,0,0,0,.536-.712.845.845,0,0,0-.409-.813,2.553,2.553,0,0,0-1.2-.224,1.563,1.563,0,0,0-1.257.439,1.827,1.827,0,0,0-.352.879H91.838a3.676,3.676,0,0,1,.7-2.065,4.09,4.09,0,0,1,3.41-1.266,6.059,6.059,0,0,1,2.795.624,2.4,2.4,0,0,1,1.222,2.355v4.395q0,.457.018,1.107a1.392,1.392,0,0,0,.149.668.9.9,0,0,0,.369.29V134H97.779a2.79,2.79,0,0,1-.158-.545q-.044-.255-.07-.58a5.146,5.146,0,0,1-1.2.958,3.6,3.6,0,0,1-1.828.466,3.143,3.143,0,0,1-2.149-.743,2.649,2.649,0,0,1-.848-2.1,2.732,2.732,0,0,1,1.362-2.558,6.049,6.049,0,0,1,2.2-.615Zm9.782-3.981a3.09,3.09,0,0,1,1.547.382,3.043,3.043,0,0,1,1.1,1.059v-4.57h2.54V134h-2.435v-1.327a3.533,3.533,0,0,1-1.222,1.239,3.43,3.43,0,0,1-1.705.387,3.56,3.56,0,0,1-2.826-1.358,5.215,5.215,0,0,1-1.147-3.485,6,6,0,0,1,1.129-3.858A3.674,3.674,0,0,1,105.725,124.191Zm.545,8a1.849,1.849,0,0,0,1.617-.791,3.5,3.5,0,0,0,.554-2.048,3.141,3.141,0,0,0-.888-2.514,1.91,1.91,0,0,0-1.266-.457,1.759,1.759,0,0,0-1.613.831,4.478,4.478,0,0,0,.009,4.184A1.769,1.769,0,0,0,106.27,132.189Zm12.2-2.848a2.722,2.722,0,0,1-.479.242,4.006,4.006,0,0,1-.664.171l-.562.105a3.632,3.632,0,0,0-1.134.343,1.149,1.149,0,0,0-.58,1.063,1.12,1.12,0,0,0,.356.927,1.34,1.34,0,0,0,.866.286,2.551,2.551,0,0,0,1.49-.475,2.024,2.024,0,0,0,.708-1.731Zm-1.521-1.169a3.91,3.91,0,0,0,.993-.22.753.753,0,0,0,.536-.712.845.845,0,0,0-.409-.813,2.553,2.553,0,0,0-1.2-.224,1.563,1.563,0,0,0-1.257.439,1.827,1.827,0,0,0-.352.879h-2.417a3.676,3.676,0,0,1,.7-2.065,4.09,4.09,0,0,1,3.41-1.266,6.059,6.059,0,0,1,2.795.624,2.4,2.4,0,0,1,1.222,2.355v4.395q0,.457.018,1.107a1.392,1.392,0,0,0,.149.668.9.9,0,0,0,.369.29V134h-2.725a2.79,2.79,0,0,1-.158-.545q-.044-.255-.07-.58a5.146,5.146,0,0,1-1.2.958,3.6,3.6,0,0,1-1.828.466,3.143,3.143,0,0,1-2.149-.743,2.649,2.649,0,0,1-.848-2.1,2.732,2.732,0,0,1,1.362-2.558,6.049,6.049,0,0,1,2.2-.615Zm8.2,2.769a1.673,1.673,0,0,0,.343.949,2.317,2.317,0,0,0,1.723.5,2.626,2.626,0,0,0,1.173-.22.737.737,0,0,0,.083-1.3,14.3,14.3,0,0,0-2.61-.756,5.437,5.437,0,0,1-2.294-1.011,2.191,2.191,0,0,1-.668-1.723,2.988,2.988,0,0,1,1.042-2.281,4.183,4.183,0,0,1,2.931-.954,5.378,5.378,0,0,1,2.922.716,3.068,3.068,0,0,1,1.3,2.474h-2.5a1.482,1.482,0,0,0-.272-.765,1.714,1.714,0,0,0-1.406-.51,2.021,2.021,0,0,0-1.165.255.734.734,0,0,0-.347.6.654.654,0,0,0,.369.624,15.98,15.98,0,0,0,2.61.694,4.8,4.8,0,0,1,2.241,1.063,2.415,2.415,0,0,1,.738,1.8,2.911,2.911,0,0,1-1.059,2.325,6.354,6.354,0,0,1-6.609-.053,3.1,3.1,0,0,1-1.077-2.43Zm8.016.439h2.663V134h-2.663Z" transform="translate(781 6163.5)" fill="#00223d"/>
      </g>
      <g id="Grupo_28515" data-name="Grupo 28515">
        <g id="Grupo_28173" data-name="Grupo 28173">
          <line id="Lnea_368" data-name="Lnea 368" y1="2" x2="718" transform="translate(235 5513)" fill="none" stroke="#15579f" stroke-width="3"/>
        </g>
        <g id="Grupo_28171" data-name="Grupo 28171">
          <g id="Grupo_27001" data-name="Grupo 27001" transform="translate(283.151 -516.885)">
            <g id="Grupo_14735" data-name="Grupo 14735" transform="translate(0 5982.536)">
              <circle id="Elipse_497" data-name="Elipse 497" cx="49.424" cy="49.424" r="49.424" transform="translate(0 0)" fill="#15579f"/>
              <g transform="matrix(1, 0, 0, 1, -55.15, 0)" filter="url(#Trazado_1178)">
                <path id="Trazado_1178-5" data-name="Trazado 1178" d="M44.219,0A44.219,44.219,0,1,1,0,44.219,44.219,44.219,0,0,1,44.219,0Z" transform="translate(60.74 4.75)" fill="#15579f"/>
              </g>
            </g>
          </g>
          <text id="_1" data-name="1" transform="translate(313 5480)" fill="#fff" font-size="54" font-family="Helvetica-Bold, Helvetica" font-weight="700"><tspan x="0" y="42">1</tspan></text>
        </g>
        <g id="Grupo_28172" data-name="Grupo 28172">
          <g id="Grupo_28165" data-name="Grupo 28165" transform="translate(450.575 -516.885)">
            <g id="Grupo_14735-2" data-name="Grupo 14735" transform="translate(0 5982.536)">
              <circle id="Elipse_497-2" data-name="Elipse 497" cx="49.424" cy="49.424" r="49.424" transform="translate(0 0)" fill="#3b80c9"/>
              <g transform="matrix(1, 0, 0, 1, -222.58, 0)" filter="url(#Trazado_1178-2)">
                <path id="Trazado_1178-6" data-name="Trazado 1178" d="M44.219,0A44.219,44.219,0,1,1,0,44.219,44.219,44.219,0,0,1,44.219,0Z" transform="translate(228.17 4.75)" fill="#3b80c9"/>
              </g>
            </g>
          </g>
          <text id="_2" data-name="2" transform="translate(482 5480)" fill="#fff" font-size="54" font-family="Helvetica-Bold, Helvetica" font-weight="700"><tspan x="0" y="42">2</tspan></text>
        </g>
        <g id="Grupo_28174" data-name="Grupo 28174">
          <g id="Grupo_28166" data-name="Grupo 28166" transform="translate(624.576 -516.885)">
            <g id="Grupo_14735-3" data-name="Grupo 14735" transform="translate(0 5982.536)">
              <circle id="Elipse_497-3" data-name="Elipse 497" cx="49.424" cy="49.424" r="49.424" transform="translate(0 0)" fill="#639edd"/>
              <g transform="matrix(1, 0, 0, 1, -396.58, 0)" filter="url(#Trazado_1178-3)">
                <path id="Trazado_1178-7" data-name="Trazado 1178" d="M44.219,0A44.219,44.219,0,1,1,0,44.219,44.219,44.219,0,0,1,44.219,0Z" transform="translate(402.17 4.75)" fill="#639edd"/>
              </g>
            </g>
          </g>
          <text id="_3" data-name="3" transform="translate(658 5480)" fill="#fff" font-size="54" font-family="Helvetica-Bold, Helvetica" font-weight="700"><tspan x="0" y="42">3</tspan></text>
        </g>
        <g id="Grupo_28175" data-name="Grupo 28175">
          <g id="Grupo_28167" data-name="Grupo 28167" transform="translate(803 -516.885)">
            <g id="Grupo_14735-4" data-name="Grupo 14735" transform="translate(0 5982.536)">
              <circle id="Elipse_497-4" data-name="Elipse 497" cx="49.424" cy="49.424" r="49.424" transform="translate(0 0)" fill="#a6c8ed"/>
              <g transform="matrix(1, 0, 0, 1, -575, 0)" filter="url(#Trazado_1178-4)">
                <path id="Trazado_1178-8" data-name="Trazado 1178" d="M44.219,0A44.219,44.219,0,1,1,0,44.219,44.219,44.219,0,0,1,44.219,0Z" transform="translate(580.59 4.75)" fill="#a6c8ed"/>
              </g>
            </g>
          </g>
          <text id="_4" data-name="4" transform="translate(834 5480)" fill="#15579f" font-size="54" font-family="Helvetica-Bold, Helvetica" font-weight="700"><tspan x="0" y="42">4</tspan></text>
        </g>
      </g>
    </g>
    <g id="Elipse_968" data-name="Elipse 968" transform="translate(228 5505)" fill="#15579f" stroke="#707070" stroke-width="1">
      <ellipse cx="9" cy="10" rx="9" ry="10" stroke="none"/>
      <ellipse cx="9" cy="10" rx="8.5" ry="9.5" fill="none"/>
    </g>
    <g id="Elipse_969" data-name="Elipse 969" transform="translate(942 5502)" fill="#15579f" stroke="#707070" stroke-width="1">
      <ellipse cx="9" cy="10" rx="9" ry="10" stroke="none"/>
      <ellipse cx="9" cy="10" rx="8.5" ry="9.5" fill="none"/>
    </g>
  </g>
</svg>
