<svg xmlns="http://www.w3.org/2000/svg" width="475" height="280.996" viewBox="0 0 475 280.996">
  <g id="Grupo_28679" data-name="Grupo 28679" transform="translate(-191.643 -7475.887)">
    <path id="Trazado_71519" data-name="Trazado 71519" d="M699.091,536.165c-.156.411-27.287.9-27.482,1.312H625.375l-13.532-.04H490.677l-35.386-.042H362l-38.963-.04h-70.46l-.35-.988-.039-.082a.432.432,0,0,1-.039-.123c-.156-.329-62.26-92.942,34.29-157.413,37.777-25.225-2.365-41.879,27.675-69.96,40.624-37.974,85.613,18.164,130.993-24.328,44.368-41.506,137.7-22.5,175.946,14.391,5.016,4.838,30.116,22.036,12.138,56.446-11.351,21.725,22.153,27.118,38.965,28.384C729.659,388.01,699.481,535.342,699.091,536.165Z" transform="translate(-40.708 7214.917)" fill="#e2e7fc"/>
    <g id="Grupo_28678" data-name="Grupo 28678" transform="translate(225.812 7475.976)">
      <g id="Grupo_28677" data-name="Grupo 28677" transform="translate(0 0)">
        <g id="Grupo_28659" data-name="Grupo 28659" transform="translate(81.568 0)">
          <g id="Grupo_28658" data-name="Grupo 28658">
            <path id="Trazado_71417" data-name="Trazado 71417" d="M229.623,418.588l-8,.574,20.891-83.987,15.909.225Z" transform="translate(-221.628 -154.605)" fill="#cf571b" opacity="0.59"/>
            <path id="Trazado_71418" data-name="Trazado 71418" d="M335.6,418.588l8,.574L322.7,335.175,306.8,335.4Z" transform="translate(-239.676 -154.605)" fill="#cf571b" opacity="0.59"/>
            <g id="Grupo_28648" data-name="Grupo 28648" transform="translate(0.708 165.53)">
              <path id="Trazado_71419" data-name="Trazado 71419" d="M307.47,334.106H234.5a11.97,11.97,0,0,1-11.969-11.969h0A11.97,11.97,0,0,1,234.5,310.167H307.47a11.97,11.97,0,0,1,11.969,11.969h0A11.97,11.97,0,0,1,307.47,334.106Z" transform="translate(-222.526 -310.167)" fill="#cf571b"/>
            </g>
            <g id="Grupo_28657" data-name="Grupo 28657" transform="translate(7.911)">
              <path id="Trazado_71420" data-name="Trazado 71420" d="M263.429,139.951c3.193,5.124,10.735,9.043,17.241,11.979,9.754,4.4,23.636,6.789,33.89,2.735,4.081-1.612,10.776-4.14,13.111-7.683,4.735-23.432,1-49.834-20.371-56.656C284.264,82.974,281.947,115.19,263.429,139.951Z" transform="translate(-238.397 -89.261)" fill="#1d6569"/>
              <g id="Grupo_28649" data-name="Grupo 28649" transform="translate(59.155 66.24)">
                <path id="Trazado_71421" data-name="Trazado 71421" d="M355.856,222.048s4.519-1.814,19.06-5.732c10.67-2.875,26.656-10,26.656-10l1.166,2.141s-25.061,24.583-45.381,25.8C354.386,227.156,355.856,222.048,355.856,222.048Z" transform="translate(-317.061 -184.139)" fill="#ffb88f"/>
                <path id="Trazado_71422" data-name="Trazado 71422" d="M374.916,218.572c1.664-.448,3.457-1,5.3-1.612a62.8,62.8,0,0,0,2.381,9.632c-7.85,5.026-20,12.98-25.237,9.92-2.972-7.1-1.5-12.207-1.5-12.207S360.375,222.49,374.916,218.572Z" transform="translate(-317.061 -186.395)" fill="#cf571b"/>
                <path id="Trazado_71423" data-name="Trazado 71423" d="M306.86,180.421c-1.047,3.231,4.268,8.243,11.282,18.087s22.01,25.79,26.848,29.312c5.859,4.266,11.985-1.362,4.36-10.883-5.577-6.963-26.2-32.609-30.173-36.459C313.863,175.333,306.86,180.421,306.86,180.421Z" transform="translate(-306.728 -178.177)" fill="#cf571b"/>
                <path id="Trazado_71424" data-name="Trazado 71424" d="M423.455,198.655a.912.912,0,0,0-.162-.354c-.451-.6-1.372-.473-2.1-.281-1.078.284-2.177.642-3.275.887a.872.872,0,0,1-1.047-.987,12.07,12.07,0,0,1,1.927-4.463c.608-.8,2.65-2.461,2.064-3.651l-.013-.025a.892.892,0,0,0-1.508-.07c-.117.177-.26.386-.423.612a.874.874,0,0,1-.331.27,8.122,8.122,0,0,0-3.241,3.128.852.852,0,0,1-.245.266,8.886,8.886,0,0,0-2.854,3.189,77.478,77.478,0,0,0-3.283,7.238c-.068.264,1.864,1.708,1.864,1.708.161.183.956-.322,2.887-1.1,0,0,2.021-1.454,3.486-2.56,1.614-1.219,4-1.318,5.606-2.382A1.454,1.454,0,0,0,423.455,198.655Z" transform="translate(-328.393 -180.54)" fill="#ffb88f"/>
              </g>
              <path id="Trazado_71425" data-name="Trazado 71425" d="M302.6,138.28c.007.348-6.822,29.9-6.822,29.9s3.981,5.68,7.233,6.231,5.55-2.581,5.55-2.581l2.058-19.892Z" transform="translate(-245.252 -99.648)" fill="#ffb88f"/>
              <path id="Trazado_71426" data-name="Trazado 71426" d="M311.408,151.941l-8.018-13.661c0,.191-2.029,9.08-3.876,17.116,3.027,3.788,7.484,6.64,10.315,10.683Z" transform="translate(-246.044 -99.648)" fill="#ff894a" opacity="0.42"/>
              <path id="Trazado_71427" data-name="Trazado 71427" d="M292.6,245.818c-9.2-1.286-29.676-5.223-38.645-8.049a.8.8,0,0,1-.3-1.354c2.8-2.566,10.539-9.676,11.374-10.734,3.105-3.929,3.438-6.694,3.219-10.088-.344-5.3-1.405-20.09-.884-26.092a66.331,66.331,0,0,1,3.2-13.8c2.6-7.183,14.134-3.634,15.169-3.063a.678.678,0,0,0,.249.082l.5.071c.363.052.686.706.686.706a12.57,12.57,0,0,0,.475,2.15,5.268,5.268,0,0,0,3.22,2.83c2.027.775,4.833,1.393,6.923.4,1.784-.844,1.787-1.742,2.092-3.478a.805.805,0,0,1,1.044-.628c1.862.619,6.074,2.255,6.037,4.383-.367,21.159,1.43,30.8-2.561,37.13-10.921,17.325-11.232,25.871-10.9,28.641A.8.8,0,0,1,292.6,245.818Z" transform="translate(-236.27 -110.552)" fill="#cf571b"/>
              <path id="Trazado_71428" data-name="Trazado 71428" d="M312.552,175.579c7.5.586,6.584,13.355,6.369,18.441-.839,19.921.415,39.92-1.295,59.784" transform="translate(-248.807 -111.745)" fill="none" stroke="#1d6569" stroke-miterlimit="10" stroke-width="3.65"/>
              <path id="Trazado_71429" data-name="Trazado 71429" d="M285.735,227.088s.919-18.942.521-27.691c-.411-9.036-.521-29.161,8.149-27.643" transform="translate(-243.124 -110.343)" fill="none" stroke="#1d6569" stroke-miterlimit="10" stroke-width="3.65"/>
              <path id="Trazado_71430" data-name="Trazado 71430" d="M270.818,172.508c-.113-.485-4.978,3.051-5.216,3.259a63.374,63.374,0,0,0-8.1,8.727A153.533,153.533,0,0,0,245.893,202.3c-2.54,4.352-5.511,8.706-7.386,13.482-1.4,3.564-3.965,12.126.946,14.059,3.085,1.214,6.451-.853,7.836-3.607,3.672-7.3,22.825-33.483,24.289-38.819S270.818,172.508,270.818,172.508Z" transform="translate(-232.707 -110.581)" fill="#cf571b"/>
              <path id="Trazado_71431" data-name="Trazado 71431" d="M317.78,99.125c6.411,2.265,10.359,7.057,12.371,13.42a19.643,19.643,0,0,1,.978,9.658c-.468,2.735-1.119,4.44-1.136,7.141-.022,3.529.754,7.635-.941,10.867-1.775,3.382-5.66,6.11-8.674,8.882-4.811,4.425-10.395.665-14.547-2.657a50.16,50.16,0,0,1-6.3-6.153,39.182,39.182,0,0,1-8.786-15.854,21.652,21.652,0,0,1,.3-12.527A20.949,20.949,0,0,1,317.78,99.125Z" transform="translate(-244.022 -91.096)" fill="#ffb88f"/>
              <path id="Trazado_71432" data-name="Trazado 71432" d="M323.794,107.469c-.552-.8-11.825,17.964-31.961,20.2-1.477.164-8.47.479-8.054-.208-1.006-4.413,2.3-16.99,3.833-21.315,4.271-12.092,15.965-18.531,28.351-16.351,17.686,3.113,29.942,36.673,14.247,31.087C326.393,118.672,326.481,111.339,323.794,107.469Z" transform="translate(-242.67 -89.285)" fill="#1d6569"/>
              <g id="Grupo_28650" data-name="Grupo 28650" transform="translate(65.978 35.409)">
                <path id="Trazado_71433" data-name="Trazado 71433" d="M319.04,136.7a1.864,1.864,0,1,1-1.222-2.433A1.928,1.928,0,0,1,319.04,136.7Z" transform="translate(-315.386 -134.191)" fill="#1d6569" style="mix-blend-mode: multiply;isolation: isolate"/>
              </g>
              <g id="Grupo_28651" data-name="Grupo 28651" transform="translate(80.499 36.189)">
                <path id="Trazado_71434" data-name="Trazado 71434" d="M337.179,137.489a1.718,1.718,0,1,1-1.125-2.242A1.777,1.777,0,0,1,337.179,137.489Z" transform="translate(-333.811 -135.181)" fill="#1d6569" style="mix-blend-mode: multiply;isolation: isolate"/>
              </g>
              <path id="Trazado_71435" data-name="Trazado 71435" d="M309.729,142.175c-.258,1.548,1.942,3.205,4.915,3.7s5.591-.357,5.849-1.906-1.942-3.205-4.914-3.7S309.988,140.626,309.729,142.175Z" transform="translate(-248.205 -100.04)" fill="#ff894a" opacity="0.26"/>
              <path id="Trazado_71436" data-name="Trazado 71436" d="M331.141,142.589c-.246,1.474,1.274,2.955,3.393,3.309s4.039-.554,4.285-2.028-1.274-2.955-3.394-3.308S331.387,141.116,331.141,142.589Z" transform="translate(-252.741 -100.116)" fill="#ff894a" opacity="0.26"/>
              <path id="Trazado_71437" data-name="Trazado 71437" d="M325.124,151.228a2.519,2.519,0,0,1,1.271.752c.508-.385.731-.227,1.246.046,1.113.592,1.758.959,1.758.959a5.405,5.405,0,0,1-2.2,1.873,3.659,3.659,0,0,1-3.988-1.134,5.812,5.812,0,0,1-1.488-2.7A11.7,11.7,0,0,1,325.124,151.228Z" transform="translate(-250.752 -102.336)" fill="#ff894a"/>
              <path id="Trazado_71438" data-name="Trazado 71438" d="M329.273,135.437q1.041,5.082,2.084,10.164a2.541,2.541,0,0,1-1.646-.392" transform="translate(-252.351 -99.046)" fill="none" stroke="#cf571b" stroke-linecap="round" stroke-linejoin="round" stroke-width="1.08"/>
              <path id="Trazado_71439" data-name="Trazado 71439" d="M320.1,131.169l-12.951-.6A15.786,15.786,0,0,1,320.1,131.169Z" transform="translate(-247.663 -97.779)" fill="#1d6569"/>
              <path id="Trazado_71440" data-name="Trazado 71440" d="M340.109,130.5l-7.618-.478S337.332,127.452,340.109,130.5Z" transform="translate(-253.032 -97.684)" fill="#1d6569"/>
              <path id="Trazado_71441" data-name="Trazado 71441" d="M329.322,153.2c-1.993.882-5.912.359-7.391-1.8" transform="translate(-250.795 -102.429)" fill="none" stroke="#cf571b" stroke-linecap="round" stroke-linejoin="round" stroke-width="1.08" opacity="0.58" style="mix-blend-mode: multiply;isolation: isolate"/>
              <path id="Trazado_71442" data-name="Trazado 71442" d="M323.857,91.295c8.5,1.5,14.963,8.381,20,15.391,1.849,2.571,3.641,5.312,4.205,8.428s-.392,6.71-3.059,8.416" transform="translate(-251.203 -89.692)" fill="none" stroke="#1d6569" stroke-miterlimit="10" stroke-width="1.08"/>
              <path id="Trazado_71443" data-name="Trazado 71443" d="M330.108,104.778a10.519,10.519,0,0,1-5.85,17.807" transform="translate(-251.288 -92.549)" fill="none" stroke="#1d6569" stroke-miterlimit="10" stroke-width="1.08"/>
              <path id="Trazado_71444" data-name="Trazado 71444" d="M329.7,144.809l-1.878-8.583-.529,7.983Z" transform="translate(-251.931 -99.213)" fill="#ffb88f" opacity="0.3" style="mix-blend-mode: multiply;isolation: isolate"/>
              <path id="Trazado_71445" data-name="Trazado 71445" d="M322.773,106.874c-1.341,6.461-9.078,17.073-25.378,21.627" transform="translate(-245.595 -92.993)" fill="none" stroke="#1d6569" stroke-miterlimit="10" stroke-width="1.08" opacity="0.54" style="mix-blend-mode: multiply;isolation: isolate"/>
              <path id="Trazado_71446" data-name="Trazado 71446" d="M326.115,106.576a13.852,13.852,0,0,1-3.075,6.613" transform="translate(-251.03 -92.93)" fill="none" stroke="#1d6569" stroke-miterlimit="10" stroke-width="1.08" opacity="0.54" style="mix-blend-mode: multiply;isolation: isolate"/>
              <path id="Trazado_71447" data-name="Trazado 71447" d="M345.576,128.538c3.321,10.258,3.971,21.771-.672,29.731" transform="translate(-255.663 -97.584)" fill="none" stroke="#1d6569" stroke-miterlimit="10" stroke-width="0.736"/>
              <g id="Grupo_28653" data-name="Grupo 28653" transform="translate(49.639 246.648)">
                <path id="Trazado_71448" data-name="Trazado 71448" d="M297.312,431.585s1.754-4.41,2.984-7.064,2.256-5.5,2.256-5.5l5.131,1.457s1.363,8.837,3.011,12.594,5.883,7.663,5.883,7.663,1.107,6.99-8.395,2.4-9.96-7.447-9.96-7.447Z" transform="translate(-295.217 -419.02)" fill="#ffb88f"/>
                <g id="Grupo_28652" data-name="Grupo 28652" transform="translate(0 9.734)">
                  <path id="Trazado_71449" data-name="Trazado 71449" d="M297.9,431.371s-4.156,7.971-3.065,9.567c.814,1.191,3.824,1.995,5.409,2.515s2.553,4.435,5.238,5.967,12.769,4.676,14.68,4.868,4.777,1.286,3.9-1.132-8.053-9.8-8.053-9.8-.628,2.058-6.42.479a13.886,13.886,0,0,1-9.346-7.589C299.493,434.273,298.684,431.663,297.9,431.371Z" transform="translate(-294.653 -431.371)" fill="#1d6569"/>
                </g>
              </g>
              <g id="Grupo_28655" data-name="Grupo 28655" transform="translate(104.967 242.827)">
                <path id="Trazado_71450" data-name="Trazado 71450" d="M366.046,428.823s-.492-4.721-.634-7.643-.554-5.919-.554-5.919l5.222-1.089s5.307,7.2,8.51,9.76,8.767,4.059,8.767,4.059,4.223,5.68-6.322,6.023-12.278-1.978-12.278-1.978Z" transform="translate(-364.858 -414.172)" fill="#ffb88f"/>
                <g id="Grupo_28654" data-name="Grupo 28654" transform="translate(0.895 11.604)">
                  <path id="Trazado_71451" data-name="Trazado 71451" d="M365.994,428.9s.016,8.99,1.723,9.9c1.274.677,4.313-.006,5.96-.281s4.319,2.744,7.409,2.857,13.481-1.782,15.262-2.5,4.829-1.077,2.933-2.813-11.683-4.95-11.683-4.95.4,2.114-5.465,3.4a13.882,13.882,0,0,1-11.8-2.387C368.752,430.732,366.823,428.8,365.994,428.9Z" transform="translate(-365.994 -428.897)" fill="#1d6569"/>
                </g>
              </g>
              <path id="Trazado_71452" data-name="Trazado 71452" d="M259.792,240.291s-27.368,19.566-28.119,41.259c0,0-.95,17.655,19.81,24.119,0,0,41.647,19.6,39.8-26.049l-1.051-29.5S262.083,241.6,259.792,240.291Z" transform="translate(-231.667 -128.316)" fill="#1d6569"/>
              <g id="Grupo_28656" data-name="Grupo 28656" transform="translate(4.236 108.324)">
                <path id="Trazado_71453" data-name="Trazado 71453" d="M320.4,240.082l2.691,2.55s1.116,6.376-1.4,8.3-3.373-3.513-3.373-3.513,0-4.114.257-6.65A1.086,1.086,0,0,1,320.4,240.082Z" transform="translate(-254.265 -234.939)" fill="#ffb88f"/>
                <path id="Trazado_71454" data-name="Trazado 71454" d="M299.089,241.755c.519.05,8.275-4.634,8.275-4.634l7.693-3.484.482,1.205-5.971,4.557,4.642,1.348,5.2.793-.177,1.832-5.2.1,5.327,1.107-.233,1.471-4.972.064,5.1.4-.285,1.4-4.815-.024,3.9.935-.162,1.865-9.036-1.542-10.192-3.87Z" transform="translate(-250.099 -233.637)" fill="#ffb88f"/>
                <path id="Trazado_71455" data-name="Trazado 71455" d="M289.451,240.7c.655,2.308,3.563,4.561,2.828,6.374-8.122.388-33.379-.868-39.237-1.143a34.528,34.528,0,0,1-16-5.373l.993-2.06a8.3,8.3,0,0,1,9.271-4.511c3.126.691,7.177,1.488,11.63,2.118C260.24,236.288,271.526,238.069,289.451,240.7Z" transform="translate(-237.042 -233.669)" fill="#ffb88f"/>
              </g>
              <path id="Trazado_71456" data-name="Trazado 71456" d="M242.391,308.759a12.931,12.931,0,0,1-5.562-12.914c1.144-6.742,4.245-15.4,12.62-15.89,0,0,10.4-3.4,29.2,13.316,0,0,20.008,15.485,21.972,23.175,0,0-2.374,15.164-20.329,6.9C280.293,323.342,257.745,319.087,242.391,308.759Z" transform="translate(-232.722 -137.656)" fill="#1d6569"/>
              <path id="Trazado_71457" data-name="Trazado 71457" d="M288.3,381.229s-6.141-37.263,3.886-49.031c0,0,9.147-14.863,16.791-3.662L306.643,364.2l.185,42.969-11.955-1.281Z" transform="translate(-243.274 -152.312)" fill="#1d6569"/>
              <path id="Trazado_71458" data-name="Trazado 71458" d="M281.264,316.111a12.93,12.93,0,0,1-8.094-11.494c-.266-6.834.991-15.945,9.087-18.146,0,0,9.478-5.469,31.312,7.034,0,0,19.263,9.346,25.075,16.387a4.822,4.822,0,0,1,1.068,3.744c-.555,3.985-3.468,12.362-18.356,8.961C321.355,322.6,298.413,323.064,281.264,316.111Z" transform="translate(-240.455 -138.821)" fill="#1d6569"/>
              <path id="Trazado_71459" data-name="Trazado 71459" d="M343.948,374.869s-13.826-35.288-7.913-50.15c0,0,5.258-16.138,14.063-9.909.971.687,2.717,1.119,3.036,5.434l5.263,34.19,9.009,42.014-11.963,1.2Z" transform="translate(-253.472 -149.986)" fill="#1d6569"/>
              <path id="Trazado_71460" data-name="Trazado 71460" d="M305.261,324.605c1.323-4.418-.35-9.3-3.226-12.9s-6.822-6.172-10.71-8.651q-8.914-5.684-17.934-11.2" transform="translate(-240.508 -140.312)" fill="none" stroke="#1d6569" stroke-miterlimit="10" stroke-width="1.217" style="mix-blend-mode: multiply;isolation: isolate"/>
              <path id="Trazado_71461" data-name="Trazado 71461" d="M291.89,297.969c-.1.664,1.018.855,1.456.347a3.968,3.968,0,0,0,.548-1.907c.13-.658.627-1.39,1.288-1.274" transform="translate(-244.427 -140.301)" fill="none" stroke="#1d6569" stroke-miterlimit="10" stroke-width="1.217" style="mix-blend-mode: multiply;isolation: isolate"/>
              <path id="Trazado_71462" data-name="Trazado 71462" d="M287.727,258.22a119.993,119.993,0,0,0-3.237,22.368" transform="translate(-242.86 -131.577)" fill="none" stroke="#1d6569" stroke-miterlimit="10" stroke-width="1.217" style="mix-blend-mode: multiply;isolation: isolate"/>
              <path id="Trazado_71463" data-name="Trazado 71463" d="M277.189,254.232a53.078,53.078,0,0,0,20.477,3.71" transform="translate(-241.313 -130.168)" fill="none" stroke="#1d6569" stroke-miterlimit="10" stroke-width="1.217" style="mix-blend-mode: multiply;isolation: isolate"/>
              <path id="Trazado_71464" data-name="Trazado 71464" d="M299.118,422.06h7.671" transform="translate(-245.96 -173.017)" fill="none" stroke="#1d6569" stroke-miterlimit="10" stroke-width="1.217" style="mix-blend-mode: multiply;isolation: isolate"/>
              <path id="Trazado_71465" data-name="Trazado 71465" d="M364.007,413.949h5.753" transform="translate(-259.711 -171.298)" fill="none" stroke="#1d6569" stroke-miterlimit="10" stroke-width="1.217" style="mix-blend-mode: multiply;isolation: isolate"/>
              <path id="Trazado_71466" data-name="Trazado 71466" d="M244.82,232.933l17.627,2.869L259,245.5s-17.392,2.52-22.216-4.6a3.949,3.949,0,0,1,.162-4.491A7.725,7.725,0,0,1,244.82,232.933Z" transform="translate(-232.616 -125.034)" fill="#cf571b"/>
              <path id="Trazado_71467" data-name="Trazado 71467" d="M295.6,137.666a3.877,3.877,0,1,0,.741,6.274Z" transform="translate(-244.008 -99.425)" fill="#ffb88f"/>
              <path id="Trazado_71468" data-name="Trazado 71468" d="M294.961,145.267" transform="translate(-245.079 -101.129)" fill="none" stroke="#cf571b" stroke-miterlimit="10" stroke-width="7.3"/>
              <path id="Trazado_71469" data-name="Trazado 71469" d="M296.1,127.819a24.752,24.752,0,0,1,3.939-26.206c6.232-6.969,18.44-8.914,27.316-5.976" transform="translate(-244.872 -90.332)" fill="none" stroke="#cf571b" stroke-miterlimit="10" stroke-width="1.217"/>
            </g>
          </g>
        </g>
        <g id="Grupo_28663" data-name="Grupo 28663" transform="translate(186.273 42.929)">
          <g id="Grupo_28661" data-name="Grupo 28661" transform="translate(6.817 0)">
            <path id="Trazado_71470" data-name="Trazado 71470" d="M490.761,160.652c5.1-.187,7.034,3.483,7.3,10.744.5,13.506.269,23.128.538,39,.13,7.718,1.086,18.261-2.421,22.859-2.7,3.537-12.032,4.508-17.341,4.031-7.057-.633-80.746-.356-80.819-1.342l-1.076-14.522a9.809,9.809,0,0,1,3.226-8.605c3.5-3.228,3.991-4.018,6.8-5.327,4.22-1.963,8.255-1.129,12.688-1.129h32.682s7.8,1.883,6.723-12.371a27.145,27.145,0,0,0-.975-7.5,7.907,7.907,0,0,0-6.8-5.65,60.6,60.6,0,0,0-16.368.351,5.493,5.493,0,0,0-4.3,4.183l-1.415,6.193s.269,3.227-5.648,3.765H408.508c-3.4,0-4.625-16.582-5.108-19.095-.66-3.428-.97-7,.96-10.135,3.852-6.253,12.91-5.255,19.17-5.126C430.423,161.116,490.5,160.662,490.761,160.652Z" transform="translate(-396.854 -147.317)" fill="#fff"/>
            <circle id="Elipse_973" data-name="Elipse 973" cx="8.949" cy="8.949" r="8.949" transform="translate(72.411 42.881) rotate(-80.783)" fill="#cf571b" opacity="0.71"/>
            <circle id="Elipse_974" data-name="Elipse 974" cx="6.143" cy="6.143" r="6.143" transform="translate(76.588 29.513)" fill="#cf571b"/>
            <circle id="Elipse_975" data-name="Elipse 975" cx="8.949" cy="8.949" r="8.949" transform="translate(73.729 55.761)" fill="none" stroke="#cf571b" stroke-miterlimit="10" stroke-width="1.217" opacity="0.71"/>
            <circle id="Elipse_976" data-name="Elipse 976" cx="6.143" cy="6.143" r="6.143" transform="translate(75.683 69.965) rotate(-80.783)" fill="#cf571b"/>
            <rect id="Rectángulo_29983" data-name="Rectángulo 29983" width="17.898" height="6.392" transform="translate(30.259 22.696)" fill="none" stroke="#cf571b" stroke-miterlimit="10" stroke-width="1.217"/>
            <path id="Trazado_71471" data-name="Trazado 71471" d="M413.954,221.2l-8.31,5.753,26.208.32,4.475-6.073Z" transform="translate(-398.717 -160.149)" fill="#cf571b" opacity="0.67"/>
            <path id="Trazado_71472" data-name="Trazado 71472" d="M417.021,222.718l-3.722,2.577,8.23.181,2-2.72Z" transform="translate(-400.339 -160.47)" fill="#cf571b"/>
            <rect id="Rectángulo_29984" data-name="Rectángulo 29984" width="2.08" height="15.517" transform="translate(18.368 47.93)" fill="#cf571b"/>
            <rect id="Rectángulo_29985" data-name="Rectángulo 29985" width="6.627" height="1.273" transform="translate(16.316 51.308)" fill="#cf571b"/>
            <rect id="Rectángulo_29986" data-name="Rectángulo 29986" width="1.438" height="2.717" transform="translate(21.789 50.583)" fill="#cf571b"/>
            <line id="Línea_399" data-name="Línea 399" y2="34.343" transform="translate(24.665 13.587)" fill="none" stroke="#cf571b" stroke-miterlimit="10" stroke-width="1.217"/>
            <path id="Trazado_71473" data-name="Trazado 71473" d="M421.96,174.3a3.6,3.6,0,1,1-3.6-3.6A3.6,3.6,0,0,1,421.96,174.3Z" transform="translate(-400.651 -149.449)" fill="none" stroke="#cf571b" stroke-miterlimit="10" stroke-width="1.217"/>
            <path id="Trazado_71474" data-name="Trazado 71474" d="M439.6,160.984c0-.037,0-.073,0-.11a3.6,3.6,0,0,0-7.191,0c0,.037,0,.073.005.11Z" transform="translate(-404.389 -146.603)" fill="#cf571b"/>
            <line id="Línea_400" data-name="Línea 400" y1="19.177" transform="translate(48.157 68.721)" fill="none" stroke="#cf571b" stroke-miterlimit="10" stroke-width="1.217"/>
            <rect id="Rectángulo_29987" data-name="Rectángulo 29987" width="6.396" height="24.186" transform="translate(101.21 24.079)" fill="#fff"/>
            <path id="Trazado_71475" data-name="Trazado 71475" d="M408.977,184.774c0,3.178-2.289,5.753-5.114,5.753s-5.114-2.575-5.114-5.753,2.289-5.753,5.114-5.753S408.977,181.6,408.977,184.774Z" transform="translate(-397.256 -151.211)" fill="#fff" stroke="#fff" stroke-miterlimit="10" stroke-width="1.217"/>
            <g id="Grupo_28660" data-name="Grupo 28660" transform="translate(78.116)">
              <rect id="Rectángulo_29988" data-name="Rectángulo 29988" width="7.289" height="12.663" transform="translate(1.109 1.084)" fill="#cf571b"/>
              <path id="Trazado_71476" data-name="Trazado 71476" d="M500.289,145.108h-2.906V147.1A14.35,14.35,0,0,0,500.289,145.108Z" transform="translate(-496.274 -144.024)" fill="#cf571b" opacity="0.57" style="mix-blend-mode: multiply;isolation: isolate"/>
              <path id="Trazado_71477" data-name="Trazado 71477" d="M504.012,145.108h-2.527a14.956,14.956,0,0,1-4.1,2.911v1.4A25.661,25.661,0,0,0,504.012,145.108Z" transform="translate(-496.274 -144.024)" fill="#cf571b" opacity="0.57" style="mix-blend-mode: multiply;isolation: isolate"/>
              <path id="Trazado_71478" data-name="Trazado 71478" d="M504.671,146.923V145.76a26.5,26.5,0,0,1-7.288,4.7v2.144A20.52,20.52,0,0,0,504.671,146.923Z" transform="translate(-496.274 -144.162)" fill="#cf571b" opacity="0.57" style="mix-blend-mode: multiply;isolation: isolate"/>
              <path id="Trazado_71479" data-name="Trazado 71479" d="M504.671,155.933v-2.357a18.21,18.21,0,0,1-7.288,5.115v.874h3.368A21.466,21.466,0,0,0,504.671,155.933Z" transform="translate(-496.274 -145.819)" fill="#cf571b" opacity="0.57" style="mix-blend-mode: multiply;isolation: isolate"/>
              <path id="Trazado_71480" data-name="Trazado 71480" d="M503.382,160.532h2.56v-2.4A22.568,22.568,0,0,1,503.382,160.532Z" transform="translate(-497.545 -146.785)" fill="#cf571b" opacity="0.57" style="mix-blend-mode: multiply;isolation: isolate"/>
              <path id="Trazado_71481" data-name="Trazado 71481" d="M504.671,151.191v-2.349a21.447,21.447,0,0,1-7.288,5.318V156.8A16.564,16.564,0,0,0,504.671,151.191Z" transform="translate(-496.274 -144.815)" fill="#cf571b" opacity="0.57" style="mix-blend-mode: multiply;isolation: isolate"/>
              <rect id="Rectángulo_29989" data-name="Rectángulo 29989" width="1.837" height="9.07" transform="translate(0 1.837) rotate(-90)" fill="#cf571b"/>
              <rect id="Rectángulo_29990" data-name="Rectángulo 29990" width="1.837" height="9.07" transform="translate(0 14.625) rotate(-90)" fill="#cf571b"/>
            </g>
          </g>
          <g id="Grupo_28662" data-name="Grupo 28662" transform="translate(0 84.176)">
            <path id="Trazado_71482" data-name="Trazado 71482" d="M494.072,267.333v46.992s3.3,79.044-35.268,89.625c-3.006.824-24.479,1.233-28.016,1.156" transform="translate(-397.228 -267.333)" fill="none" stroke="#cf571b" stroke-miterlimit="10" stroke-width="1.284" opacity="0.52"/>
            <path id="Trazado_71483" data-name="Trazado 71483" d="M425.6,447.987l-.959-23.62L388.2,447.987Z" transform="translate(-388.205 -300.61)" fill="#cf571b" stroke="#cf571b" stroke-miterlimit="10" stroke-width="1.233"/>
          </g>
        </g>
        <g id="Grupo_28664" data-name="Grupo 28664" transform="translate(142.189 92.947)">
          <path id="Trazado_71484" data-name="Trazado 71484" d="M320.071,238.114s28.126-1.917,40.91-18.537l23.012,3.835s-23.651,23.652-44.746,23.013Z" transform="translate(-311.007 -214.767)" fill="#fff"/>
          <path id="Trazado_71485" data-name="Trazado 71485" d="M320.468,242.805c-3.336-.527-13.923.92-11.557,5.09a6.351,6.351,0,0,0,5.514,3.579c2.572.122,5.965.135,8.537.263a76.884,76.884,0,0,0,14.711-.788" transform="translate(-308.57 -219.668)" fill="none" stroke="#fff" stroke-miterlimit="10" stroke-width="1.217"/>
          <path id="Trazado_71486" data-name="Trazado 71486" d="M375.468,218.66c5.9-2.592,13.027-6.231,19.333-4.9,2.225.469,3.847,1.285,4.072,3.546.307,3.078-3.044,5.545-6.042,6.3" transform="translate(-322.746 -213.474)" fill="none" stroke="#fff" stroke-miterlimit="10" stroke-width="1.217"/>
          <path id="Trazado_71487" data-name="Trazado 71487" d="M333.761,241.052c11.9-3.438,24.234-7.69,32.524-16.888" transform="translate(-313.908 -215.74)" fill="none" stroke="#e9c3ad" stroke-miterlimit="10" stroke-width="1.217" style="mix-blend-mode: multiply;isolation: isolate"/>
          <path id="Trazado_71488" data-name="Trazado 71488" d="M339.845,243.486c11.9-3.439,24.234-7.691,32.524-16.888" transform="translate(-315.197 -216.255)" fill="none" stroke="#e9c3ad" stroke-miterlimit="10" stroke-width="1.217" style="mix-blend-mode: multiply;isolation: isolate"/>
          <path id="Trazado_71489" data-name="Trazado 71489" d="M346.841,245.007c11.9-3.439,24.234-7.691,32.524-16.888" transform="translate(-316.68 -216.578)" fill="none" stroke="#e9c3ad" stroke-miterlimit="10" stroke-width="1.217" style="mix-blend-mode: multiply;isolation: isolate"/>
        </g>
        <g id="Grupo_28671" data-name="Grupo 28671" transform="translate(42.115 76.291)">
          <g id="Grupo_28669" data-name="Grupo 28669" transform="translate(0 25.351)">
            <path id="Trazado_71490" data-name="Trazado 71490" d="M150.2,234.883h-2.085a14.6,14.6,0,0,0-14.6,14.6H164.8A14.6,14.6,0,0,0,150.2,234.883Z" transform="translate(-133.514 -226.123)" fill="#fff"/>
            <g id="Grupo_28665" data-name="Grupo 28665" transform="translate(15.663)">
              <line id="Línea_401" data-name="Línea 401" y1="10.481" transform="translate(1.797 1.198)" fill="none" stroke="#cf571b" stroke-miterlimit="10" stroke-width="0.57"/>
              <path id="Trazado_71491" data-name="Trazado 71491" d="M156.683,225.415a1.647,1.647,0,1,1-1.647-1.647A1.647,1.647,0,0,1,156.683,225.415Z" transform="translate(-153.389 -223.768)" fill="#cf571b"/>
            </g>
            <g id="Grupo_28666" data-name="Grupo 28666" transform="translate(8.689 0.124)">
              <line id="Línea_402" data-name="Línea 402" x1="2.315" y1="10.223" transform="translate(1.694 1.176)" fill="none" stroke="#cf571b" stroke-miterlimit="10" stroke-width="0.57"/>
              <path id="Trazado_71492" data-name="Trazado 71492" d="M147.793,225.21a1.647,1.647,0,1,1-1.97-1.243A1.647,1.647,0,0,1,147.793,225.21Z" transform="translate(-144.54 -223.926)" fill="#cf571b"/>
            </g>
            <g id="Grupo_28667" data-name="Grupo 28667" transform="translate(22.696 3.695)">
              <line id="Línea_403" data-name="Línea 403" y1="10.058" x2="2.948" transform="translate(0 1.259)" fill="none" stroke="#cf571b" stroke-miterlimit="10" stroke-width="0.57"/>
              <path id="Trazado_71493" data-name="Trazado 71493" d="M166.849,230.567a1.647,1.647,0,1,1-1.117-2.044A1.647,1.647,0,0,1,166.849,230.567Z" transform="translate(-162.59 -228.457)" fill="#cf571b"/>
            </g>
            <g id="Grupo_28668" data-name="Grupo 28668" transform="translate(0.77 6.242)">
              <line id="Línea_404" data-name="Línea 404" x1="7.301" y1="7.521" transform="translate(1.442 1.22)" fill="none" stroke="#cf571b" stroke-miterlimit="10" stroke-width="0.57"/>
              <path id="Trazado_71494" data-name="Trazado 71494" d="M137.32,232.189a1.647,1.647,0,1,1-2.329-.035A1.647,1.647,0,0,1,137.32,232.189Z" transform="translate(-134.491 -231.689)" fill="#cf571b"/>
            </g>
          </g>
          <g id="Grupo_28670" data-name="Grupo 28670" transform="translate(253.982)">
            <path id="Trazado_71495" data-name="Trazado 71495" d="M561.422,244.424l6.6-37.122H580.4l8.249,37.123Z" transform="translate(-561.422 -194.928)" fill="#cf571b"/>
            <rect id="Rectángulo_29991" data-name="Rectángulo 29991" width="7.631" height="2.475" transform="translate(9.281 9.899)" fill="#cf571b"/>
            <path id="Trazado_71496" data-name="Trazado 71496" d="M595.485,241.929l8.25-46.4H619.2l10.311,46.4Z" transform="translate(-568.64 -192.433)" fill="#cf571b" opacity="0.62"/>
            <rect id="Rectángulo_29992" data-name="Rectángulo 29992" width="9.538" height="3.094" transform="translate(38.446)" fill="#cf571b" opacity="0.62"/>
          </g>
        </g>
        <g id="Grupo_28675" data-name="Grupo 28675" transform="translate(255.471 170.667)">
          <g id="Grupo_28672" data-name="Grupo 28672" transform="translate(6.575 7.606)">
            <path id="Trazado_71497" data-name="Trazado 71497" d="M529.438,355.781s28.126-1.918,40.91-18.538l23.013,3.836s-23.652,23.651-44.747,23.012Z" transform="translate(-520.593 -333.316)" fill="#fff"/>
            <path id="Trazado_71498" data-name="Trazado 71498" d="M528.112,360.293c-2.608-.413-5.462-.783-7.734.562s-3.085,5.177-.812,6.519a5.563,5.563,0,0,0,2.363.584,82.331,82.331,0,0,0,18.529-.426" transform="translate(-518.214 -338.12)" fill="none" stroke="#e9c3ad" stroke-miterlimit="10" stroke-width="1.217"/>
            <path id="Trazado_71499" data-name="Trazado 71499" d="M582,336.192c5.9-2.592,14.524-4.87,20.83-3.542,2.225.469,4.163,1.281,4.389,3.542.307,3.078-2.719,3.83-5.92,6.094" transform="translate(-531.731 -332.26)" fill="none" stroke="#fff" stroke-miterlimit="10" stroke-width="1.217"/>
            <path id="Trazado_71500" data-name="Trazado 71500" d="M543.129,358.719c11.895-3.438,24.234-7.69,32.524-16.888" transform="translate(-523.494 -334.288)" fill="none" stroke="#e9c3ad" stroke-miterlimit="10" stroke-width="1.217" style="mix-blend-mode: multiply;isolation: isolate"/>
            <path id="Trazado_71501" data-name="Trazado 71501" d="M549.212,361.152c11.9-3.438,24.234-7.69,32.524-16.887" transform="translate(-524.783 -334.804)" fill="none" stroke="#e9c3ad" stroke-miterlimit="10" stroke-width="1.217" style="mix-blend-mode: multiply;isolation: isolate"/>
            <path id="Trazado_71502" data-name="Trazado 71502" d="M556.208,362.673c11.895-3.438,24.234-7.69,32.524-16.888" transform="translate(-526.265 -335.126)" fill="none" stroke="#e9c3ad" stroke-miterlimit="10" stroke-width="1.217" style="mix-blend-mode: multiply;isolation: isolate"/>
          </g>
          <g id="Grupo_28673" data-name="Grupo 28673" transform="translate(5.223)">
            <path id="Trazado_71503" data-name="Trazado 71503" d="M584.6,360.974s-28.288-1.7-42.916-30.854l-22.536,8.345s26.265,41.143,47.247,38.677Z" transform="translate(-517.059 -324.2)" fill="#fff"/>
            <path id="Trazado_71504" data-name="Trazado 71504" d="M597.726,368.434c2.557-.906,5.363-1.75,7.782.531s3.662,9.135,1.544,11.7a3.769,3.769,0,0,1-2.293,1.2,46.008,46.008,0,0,1-18.541.387" transform="translate(-531.273 -332.122)" fill="none" stroke="#e9c3ad" stroke-miterlimit="10" stroke-width="1.217" style="mix-blend-mode: multiply;isolation: isolate"/>
            <path id="Trazado_71505" data-name="Trazado 71505" d="M538.419,329.378c-6.18-4.3-12.855-8.679-19-5.893-2.168.983-2.95,2.238-2.92,6.328.04,5.566,4.334,8.669,5.532,10.94" transform="translate(-516.499 -322.609)" fill="none" stroke="#fff" stroke-miterlimit="10" stroke-width="1.217"/>
            <path id="Trazado_71506" data-name="Trazado 71506" d="M579.573,366.98c-12.26-5.455-25.052-12.348-34.361-28.4" transform="translate(-522.584 -325.993)" fill="none" stroke="#e9c3ad" stroke-miterlimit="10" stroke-width="1.217" style="mix-blend-mode: multiply;isolation: isolate"/>
            <path id="Trazado_71507" data-name="Trazado 71507" d="M573.775,371.743c-12.259-5.454-25.052-12.347-34.361-28.4" transform="translate(-521.355 -327.002)" fill="none" stroke="#e9c3ad" stroke-miterlimit="10" stroke-width="1.217" style="mix-blend-mode: multiply;isolation: isolate"/>
            <path id="Trazado_71508" data-name="Trazado 71508" d="M566.963,374.92c-12.259-5.455-25.052-12.348-34.36-28.4" transform="translate(-519.912 -327.675)" fill="none" stroke="#e9c3ad" stroke-miterlimit="10" stroke-width="1.217" style="mix-blend-mode: multiply;isolation: isolate"/>
          </g>
          <g id="Grupo_28674" data-name="Grupo 28674" transform="translate(69.466 0.497)">
            <path id="Trazado_71509" data-name="Trazado 71509" d="M616.454,397.066S615.1,368.76,642.51,351.079l-10.722-21.507s-38.078,30.541-33.368,51.135Z" transform="translate(-598.017 -324.581)" fill="#fff"/>
            <path id="Trazado_71510" data-name="Trazado 71510" d="M617.787,411.109c1.175,2.445,2.317,5.144.309,7.795s-8.688,4.624-11.462,2.793a3.771,3.771,0,0,1-1.44-2.15,46.026,46.026,0,0,1-2.38-18.392" transform="translate(-599.007 -339.75)" fill="none" stroke="#e9c3ad" stroke-miterlimit="10" stroke-width="1.217" style="mix-blend-mode: multiply;isolation: isolate"/>
            <path id="Trazado_71511" data-name="Trazado 71511" d="M650.112,347.144c3.613-6.607,7.246-13.714,3.814-19.523-1.211-2.049-.148-4.55-4.234-4.373-4.65.2-7.332,3.564-10.442,7.881" transform="translate(-606.755 -323.239)" fill="none" stroke="#fff" stroke-miterlimit="10" stroke-width="1.217"/>
            <path id="Trazado_71512" data-name="Trazado 71512" d="M614.655,392.477c4.1-12.775,9.579-26.235,24.54-37.217" transform="translate(-601.543 -330.024)" fill="none" stroke="#e9c3ad" stroke-miterlimit="10" stroke-width="1.217" style="mix-blend-mode: multiply;isolation: isolate"/>
            <path id="Trazado_71513" data-name="Trazado 71513" d="M609.295,387.226c4.1-12.775,9.579-26.235,24.54-37.218" transform="translate(-600.407 -328.911)" fill="none" stroke="#e9c3ad" stroke-miterlimit="10" stroke-width="1.217" style="mix-blend-mode: multiply;isolation: isolate"/>
            <path id="Trazado_71514" data-name="Trazado 71514" d="M605.4,380.8c4.1-12.775,9.579-26.235,24.54-37.217" transform="translate(-599.582 -327.549)" fill="none" stroke="#e9c3ad" stroke-miterlimit="10" stroke-width="1.217" style="mix-blend-mode: multiply;isolation: isolate"/>
          </g>
          <rect id="Rectángulo_29993" data-name="Rectángulo 29993" width="133.112" height="79.485" transform="translate(0 27.433)" fill="#ffb88f"/>
          <rect id="Rectángulo_29994" data-name="Rectángulo 29994" width="95.094" height="79.485" transform="translate(38.018 27.433)" fill="#ffb88f" opacity="0.78" style="mix-blend-mode: multiply;isolation: isolate"/>
        </g>
        <g id="Grupo_28676" data-name="Grupo 28676" transform="translate(0 116.637)">
          <path id="Trazado_71515" data-name="Trazado 71515" d="M102.686,360.124l22.221-98.911-14.863,1.242L80.074,417.194l11.056-.137,9.323-45.937Z" transform="translate(-80.074 -255.568)" fill="#ffb88f"/>
          <path id="Trazado_71516" data-name="Trazado 71516" d="M214.941,265.809l-14.863-1.242,33.777,155.845,11.056.137Z" transform="translate(-123.982 -256.279)" fill="#ffb88f"/>
          <path id="Trazado_71517" data-name="Trazado 71517" d="M538.2,360.124l22.221-98.911-14.863,1.242L515.588,417.194l11.056-.137,9.323-45.937Z" transform="translate(-239.424 -255.568)" fill="#ffb88f"/>
          <path id="Trazado_71518" data-name="Trazado 71518" d="M635.581,262.455l-14.864-1.242,33.777,155.845,11.056.137Z" transform="translate(-277.89 -255.568)" fill="#ffb88f"/>
          <rect id="Rectángulo_29995" data-name="Rectángulo 29995" width="372.84" height="12.541" transform="translate(13.076 0.259)" fill="#cf571b"/>
          <rect id="Rectángulo_29996" data-name="Rectángulo 29996" width="123.573" height="12.8" transform="translate(13.076)" fill="#cf571b" opacity="0.67" style="mix-blend-mode: multiply;isolation: isolate"/>
          <rect id="Rectángulo_29997" data-name="Rectángulo 29997" width="372.84" height="2.677" transform="translate(13.076 0.259)" fill="#cf571b" opacity="0.71" style="mix-blend-mode: multiply;isolation: isolate"/>
        </g>
      </g>
    </g>
  </g>
</svg>
