<svg xmlns="http://www.w3.org/2000/svg" xmlns:xlink="http://www.w3.org/1999/xlink" width="191" height="407" viewBox="0 0 191 407">
  <defs>
    <clipPath id="clip-path">
      <rect id="Rectángulo_29256" data-name="Rectángulo 29256" width="164.946" height="398.773" fill="none"/>
    </clipPath>
  </defs>
  <g id="Grupo_28497" data-name="Grupo 28497" transform="translate(-197 -7095)">
    <ellipse id="Elipse_947" data-name="Elipse 947" cx="95.5" cy="17" rx="95.5" ry="17" transform="translate(197 7468)" fill="#aed3f2"/>
    <g id="Grupo_27006" data-name="Grupo 27006" transform="translate(-74 -16)">
      <g id="Grupo_27005" data-name="Grupo 27005" transform="translate(281 7111)" clip-path="url(#clip-path)">
        <path id="Trazado_69004" data-name="Trazado 69004" d="M64.238,306.836s-1.863,11.9-4.184,17.542c-1.782,4.334-1.845,7.167.094,8.323,4.919,2.931,8.975,3.694,10.619,3.245,2.737-.748,1.827-5.445,1.658-7.792-.293-4.059.039-6.4-.142-8.247a82.014,82.014,0,0,1-.189-12.715c-.062-4.209-7.709-5.332-7.857-.356" transform="translate(11.136 57.579)" fill="#ffbb94"/>
        <path id="Trazado_69005" data-name="Trazado 69005" d="M83.568,306.836s1.863,11.9,4.184,17.542c1.782,4.334,1.845,7.167-.094,8.323-4.918,2.931-8.975,3.694-10.619,3.245-2.737-.748-1.827-5.445-1.658-7.792.293-4.059-.039-6.4.142-8.247a82.265,82.265,0,0,0,.19-12.715c.061-4.209,7.709-5.332,7.856-.356" transform="translate(14.246 57.579)" fill="#ffbb94"/>
        <path id="Trazado_69006" data-name="Trazado 69006" d="M70.929,251.549c-.059,5.354,2.72,66.988,2.326,68.314s-6.951,3.36-7.707.131c-8.305-35.481-14.774-49.863-12.5-71.949,1.8-17.486,18.065-13.385,17.877,3.5" transform="translate(9.976 44.908)" fill="#ffbb94"/>
        <path id="Trazado_69007" data-name="Trazado 69007" d="M41.446,155.453c-.109.393-2.1,13.89-1.284,21.786.807,7.85,14.733,80.435,15.029,85.023.757,11.734,14.275,19.08,17.638,7.52,2.4-8.242.426-18.774.143-47.43-.239-24.079.3-41.723.224-44.559-.366-14.691-28.15-35.247-31.75-22.34" transform="translate(7.581 28.714)" fill="#ffbb94"/>
        <path id="Trazado_69008" data-name="Trazado 69008" d="M74.749,252.24c.321,5.345.553,67.041,1.011,68.346s7.106,3.017,7.7-.245c6.565-35.844,12.324-50.526,8.971-72.473-2.654-17.377-18.7-12.487-17.686,4.372" transform="translate(14.17 44.953)" fill="#ffbb94"/>
        <path id="Trazado_69009" data-name="Trazado 69009" d="M101.782,154.836c.128.387,2.771,13.771,2.345,21.7-.422,7.88-10.79,81.059-10.862,85.656-.183,11.756-13.327,19.755-17.25,8.371-2.8-8.114-1.342-18.729-2.457-47.365-.936-24.064-2.331-41.659-2.4-44.493-.351-14.694,26.4-36.579,30.623-23.864" transform="translate(13.497 28.646)" fill="#ffbb94"/>
        <path id="Trazado_69010" data-name="Trazado 69010" d="M55.021,124.589c-3.392,10.692-11.811,29.648-13.233,35.557S39.962,173.824,45.28,179.3c1.867,1.923,3.207,7.92,28.564,7.92,14.419,0,20.946-1.832,27.613-9.634,1.222-1.429,8.516-9.782,5.241-18.81-3.19-8.788-11.484-28.11-13.24-34.057-4.256-14.425-33.452-15.843-38.436-.128" transform="translate(7.752 21.5)" fill="#ffbb94"/>
        <path id="Trazado_69011" data-name="Trazado 69011" d="M41.645,74.341C29.6,100.227,21.983,128.658,21.356,130.978s5.158,9.378,11.776,6.217c1.862-.89,12.882-35.62,14.48-39.4,8.463-20.047-1.738-32.533-5.966-23.451" transform="translate(4.042 13.53)" fill="#ffbb94"/>
        <path id="Trazado_69012" data-name="Trazado 69012" d="M100.6,74.336c13.336,25.248,22.37,53.26,23.112,55.545s-4.68,9.626-11.448,6.8c-1.9-.8-14.657-34.927-16.443-38.626-9.462-19.6.1-32.578,4.779-23.721" transform="translate(17.412 13.563)" fill="#ffbb94"/>
        <path id="Trazado_69013" data-name="Trazado 69013" d="M66.221,61.962C59.168,63.429,46.2,69.244,40.429,73.795c-.276.219,1.713,21.147,6.358,35.077,6.241,18.726,8.228,28.513,10.116,31.067,9.376,12.677,31.849,15.736,35.563-.71,2.648-11.727,7.8-30.216,7.8-30.216l6.076-35.844c-5.511-3.874-14.631-9.033-23.669-11.3a41.032,41.032,0,0,0-16.453.09" transform="translate(7.664 11.588)" fill="#ffbb94"/>
        <path id="Trazado_69014" data-name="Trazado 69014" d="M52.147,128.253c-.453-.173-8.91,22.447-10.839,32.528s-2.71,19.864-.516,26.747,67.4,3.125,69.688-1.651S112.3,169.685,108.11,155c-1.717-6.023-10.1-26.04-10.1-26.04s-26.108,6.819-45.866-.708" transform="translate(7.486 24.328)" fill="#634540"/>
        <path id="Trazado_69015" data-name="Trazado 69015" d="M39.48,170.75s.281,8.763,2.373,23.482,7.739,40.591,12.292,67.541c1.227,7.267,19.533,10.484,21.1-1.411s-.048-83.671-.45-92.542-36.152-21.157-35.315,2.93" transform="translate(7.486 29.722)" fill="#634540"/>
        <path id="Trazado_69016" data-name="Trazado 69016" d="M51.844,245.028c.012,7.621-1.18,13.71,1.569,30.445s9.2,38.1,9.2,38.1,7.842,3.83,12.751-.807c0,0-1.367-56.251-2.422-69.96s-21.122-12.357-21.1,2.216" transform="translate(9.787 44.248)" fill="#634540"/>
        <path id="Trazado_69017" data-name="Trazado 69017" d="M105.895,168.964s.145,8.768-1.233,23.57-6.161,48.418-9,68.058c-1.054,7.293-19,11.419-21.143-.388s-4.009-83.574-4.037-92.454,35.084-22.886,35.415,1.213" transform="translate(13.369 29.507)" fill="#634540"/>
        <path id="Trazado_69018" data-name="Trazado 69018" d="M94.944,243.772c.357,7.613,1.843,13.637-.092,30.485s-7.343,38.507-7.343,38.507-7.647,4.206-12.775-.187c0,0-1.362-56.251-.973-70s20.5-13.365,21.182,1.192" transform="translate(13.978 44.112)" fill="#634540"/>
        <path id="Trazado_69019" data-name="Trazado 69019" d="M69.567,132.538a1.614,1.614,0,0,0,0,3.225,1.614,1.614,0,0,0,0-3.225" transform="translate(12.9 25.141)" fill="#543832"/>
        <path id="Trazado_69020" data-name="Trazado 69020" d="M81.737,134.828,96.365,151.2v-1.639L84.728,133.216Z" transform="translate(15.504 25.269)" fill="#543832"/>
        <path id="Trazado_69021" data-name="Trazado 69021" d="M60.078,134.828,45.449,151.2v-1.639l11.638-16.349Z" transform="translate(8.621 25.269)" fill="#543832"/>
        <path id="Trazado_69022" data-name="Trazado 69022" d="M46.355,70.047c-.827.194-3.532.5-7.343,6.978S20.377,126.25,20.736,131.645c.074,1.106,13.386,6.486,14.289,5.117,0,0,17.8-39.12,20.074-48.415s-2.836-19.68-8.744-18.3" transform="translate(3.932 13.263)" fill="#f4ece8"/>
        <path id="Trazado_69023" data-name="Trazado 69023" d="M96.113,70.322c.838.143,3.556.289,7.746,6.528s20.209,47.89,21.5,53.432c.5,2.158-13.314,7.225-13.953,6.272-4.86-7.249-20.1-38.3-22.93-47.445S90.134,69.3,96.113,70.322" transform="translate(16.618 13.326)" fill="#f4ece8"/>
        <path id="Trazado_69024" data-name="Trazado 69024" d="M62.034,61.827c-.136-.865-12.993,4.967-19.706,9.13a124.017,124.017,0,0,0,0,17.792,139.228,139.228,0,0,0,4.3,26.378c1.745,6.981,2.954,11.61,2.82,16.008s-3.4,19.883-3.4,19.883,16.905,5.594,29.754,5.459,26.948-6.949,26.948-6.949-6.38-15.016-5.607-19.944,3.944-21.512,5.2-29.528c1.108-7.049,2.408-28.7,2.408-28.7s-13.113-7.381-19.037-9.529L73.462,99.661Z" transform="translate(7.972 11.711)" fill="#fcf2ed"/>
        <path id="Trazado_69025" data-name="Trazado 69025" d="M44.008,69.961s-5.492,4.816-9.087,14.571S19.4,129.22,18.465,135.191s12.925,17.993,19.568,4.88,13.725-36.44,15.836-43.587S54.24,67.3,44.008,69.961" transform="translate(3.494 13.229)" fill="#ebbea9"/>
        <path id="Trazado_69026" data-name="Trazado 69026" d="M57.991,63.031s-8.523,3.7-17.629,8.128c0,0,1.188,19.8,1.913,38.115s-3.537,69.13-3.537,82.507-.857,24.427-.857,24.427,19.566,2.69,33.847,0c0,0-3.156-79.951-4.648-108.514s-9.089-44.663-9.089-44.663" transform="translate(7.186 11.956)" fill="#f7cdb9"/>
        <path id="Trazado_69027" data-name="Trazado 69027" d="M55.682,63.031s-7.64,8.675-5.113,20.385,8.975,30.7,11.842,45.7,4.38,22.962,4.38,22.962-.852-39.219-3.04-56.226a168.994,168.994,0,0,0-8.07-32.822" transform="translate(9.495 11.956)" fill="#ebbea9"/>
        <path id="Trazado_69028" data-name="Trazado 69028" d="M41.615,139.738s12.031,2,17.743.858v-1.857s-10.169-.287-18-1.462Z" transform="translate(7.845 26.04)" fill="#ebbea9"/>
        <path id="Trazado_69029" data-name="Trazado 69029" d="M61.261,145.552c2.277,0,2.281-4.285,0-4.285s-2.281,4.285,0,4.285" transform="translate(11.296 26.796)" fill="#ebbea9"/>
        <path id="Trazado_69030" data-name="Trazado 69030" d="M61.261,152.443c-2.277,0-2.281,4.285,0,4.285s2.281-4.285,0-4.285" transform="translate(11.296 28.916)" fill="#ebbea9"/>
        <path id="Trazado_69031" data-name="Trazado 69031" d="M99.348,68.88s5.641,4.639,9.545,14.275,16.929,44.171,18.056,50.111-12.347,18.394-19.4,5.5S92.67,102.778,90.334,95.7s-1.3-29.163,9.014-26.823" transform="translate(16.938 13.033)" fill="#ebbea9"/>
        <path id="Trazado_69032" data-name="Trazado 69032" d="M84.607,62.12s8.549,3.642,17.686,8c0,0-1.049,19.8-1.645,38.127s5.051,67.922,5.145,81.3,0,25.6,0,25.6-19.547,2.827-33.847.238c0,0,2.595-79.972,3.887-108.543S84.607,62.12,84.607,62.12" transform="translate(13.647 11.783)" fill="#f7cdb9"/>
        <path id="Trazado_69033" data-name="Trazado 69033" d="M84.259,62.12s7.7,8.62,5.257,20.348S80.758,113.236,78,128.251s-4.219,22.993-4.219,22.993S74.353,112.019,76.42,95A169.03,169.03,0,0,1,84.259,62.12" transform="translate(13.995 11.783)" fill="#ebbea9"/>
        <path id="Trazado_69034" data-name="Trazado 69034" d="M99.165,138.734s-12.017,2.084-17.737.981l-.013-1.856s10.167-.359,17.992-1.589Z" transform="translate(15.443 25.849)" fill="#ebbea9"/>
        <path id="Trazado_69035" data-name="Trazado 69035" d="M62.109,53.213v11.6c0,1.01,8.344,13.279,17.076-.56l.231-11.858Z" transform="translate(11.781 9.938)" fill="#ffa378"/>
        <path id="Trazado_69036" data-name="Trazado 69036" d="M80.547,36.054s4.084-1.833,5.037-1.112.415,9.993-.412,11.327-5.737,1.9-5.737,1.9a44.545,44.545,0,0,0,1.111-12.117" transform="translate(15.068 6.596)" fill="#ffa378"/>
        <path id="Trazado_69037" data-name="Trazado 69037" d="M57.37,36.054s-4.084-1.833-5.037-1.112-.415,9.993.412,11.327,5.737,1.9,5.737,1.9A44.545,44.545,0,0,1,57.37,36.054" transform="translate(9.831 6.596)" fill="#ffa378"/>
        <path id="Trazado_69038" data-name="Trazado 69038" d="M86.48,20.936c-.173,0-30.427.567-30.856.995s-1.253,17.135-1.167,19.147,1.867,11.841,2.978,13.449c.949,1.378,10.657,10.2,11.257,10.456s4.674.357,5.445-.156,10.6-9.187,11.373-11.54c.339-1.036,2.108-11.5,2.045-14.976-.08-4.436-1.075-17.375-1.075-17.375" transform="translate(10.329 3.971)" fill="#ffbb94"/>
        <path id="Trazado_69039" data-name="Trazado 69039" d="M79.318,39.294a3.744,3.744,0,0,0-5.336-.008l-1.431-1.47a5.721,5.721,0,0,1,8.181-.008Z" transform="translate(13.762 6.842)" fill="#47312a"/>
        <path id="Trazado_69040" data-name="Trazado 69040" d="M64.378,39.294a3.742,3.742,0,0,0-5.335-.008l-1.431-1.47a5.721,5.721,0,0,1,8.181-.008Z" transform="translate(10.928 6.842)" fill="#47312a"/>
        <path id="Trazado_69041" data-name="Trazado 69041" d="M71.4,31.818l.573,2.2A31.625,31.625,0,0,1,82.3,34.18l-2.463-2.168S78,30.7,71.4,31.818" transform="translate(13.543 5.95)" fill="#5c3e36"/>
        <path id="Trazado_69042" data-name="Trazado 69042" d="M57.591,32.23l-2.2,2.141a32.943,32.943,0,0,1,10.518-.326l.358-2.207c-6.847-1.009-8.675.391-8.675.391" transform="translate(10.507 5.97)" fill="#5c3e36"/>
        <path id="Trazado_69043" data-name="Trazado 69043" d="M65.241,49.192a9.071,9.071,0,0,0,7.829-.232l.828,1.647a7.11,7.11,0,0,1-9.277.3Z" transform="translate(12.258 9.287)" fill="#e66767"/>
        <path id="Trazado_69044" data-name="Trazado 69044" d="M68.889,40.993c-.84.07-3.274,3.351-3.3,4.379s2.718,2.918,3.137,2.862,3.282-2.112,3.294-2.626-2.665-4.655-3.135-4.616" transform="translate(12.442 7.776)" fill="#ffa378"/>
        <rect id="Rectángulo_29252" data-name="Rectángulo 29252" width="2.755" height="2.337" transform="translate(71.253 44.526)" fill="#47312a"/>
        <rect id="Rectángulo_29253" data-name="Rectángulo 29253" width="2.754" height="2.337" transform="translate(89.027 44.526)" fill="#47312a"/>
        <path id="Trazado_69045" data-name="Trazado 69045" d="M64.8,16.516c-6.095-1.65-8.2-12.079-2-15.015,7.51-3.556,17.811-.38,18.171,5.186s-4.33,9.809-7.143,10.825-1.712.984-9.027-1" transform="translate(11.204 0)" fill="#583830"/>
        <path id="Trazado_69046" data-name="Trazado 69046" d="M54.98,39.765s.783-6.709,3.532-10.075a15.157,15.157,0,0,1,8.568-5.576c3.129-.809,8.386-.842,11.016,0s5.2,4.314,6.6,6.523,3.2,12.8,3.2,12.8,1.785-3.185,3.464-5.888.311-10.475-1.267-14.619-4.42-6.628-6.84-8.626-6.1-3.975-12.943-3.869S59.148,12.644,56.1,17.694s-3.463,8.523-4.239,12.943c-.786,4.486.839,9.313,3.122,9.128" transform="translate(9.799 1.979)" fill="#5c3e36"/>
        <path id="Trazado_69047" data-name="Trazado 69047" d="M59.4,13.768s-6.95,5.129-9.418,16.688c-1.549,7.258-.335,10.2,1.067,12.959,2,3.925,1.633,3.876,1.876,8.679a9.439,9.439,0,0,0,4.314,7.193,9.136,9.136,0,0,1-.3-5.8,12.711,12.711,0,0,0,.3-7.069c-1.3-5.174,2.849-11.283,5.094-12.527,4.367-2.419,9.562-10.908,13.077-10.934,0,0-3.52-14.857-16.011-9.19" transform="translate(9.345 2.367)" fill="#5c3e36"/>
        <path id="Trazado_69048" data-name="Trazado 69048" d="M77.634,46.253a6.814,6.814,0,0,1-7.1-5.921,3.969,3.969,0,0,1,.631-3.249c.932-1.19,2.672-1.806,5.818-2.055,1.3-.1,3.733-.067,5.349,1.321a4.31,4.31,0,0,1,1.465,3.08,6.753,6.753,0,0,1-1.654,5.023,5.966,5.966,0,0,1-4.509,1.8m.219-10.307c-.316,0-.589.015-.794.031-2.816.224-4.4.745-5.145,1.693a3.081,3.081,0,0,0-.441,2.508A5.9,5.9,0,0,0,77.634,45.3a4.972,4.972,0,0,0,3.812-1.5,5.786,5.786,0,0,0,1.4-4.308,3.385,3.385,0,0,0-1.136-2.427,6.083,6.083,0,0,0-3.859-1.124" transform="translate(13.363 6.638)" fill="#c23846"/>
        <path id="Trazado_69049" data-name="Trazado 69049" d="M75.973,35.007s1.851-.215,8.424.735v2.006s-.937.257-1.181.629-.484,3.181-1.2,4.009,1.188-3.141-.208-4.639-5.839-2.741-5.839-2.741" transform="translate(14.411 6.636)" fill="#c23846"/>
        <path id="Trazado_69050" data-name="Trazado 69050" d="M61.492,46.253a5.96,5.96,0,0,1-4.508-1.8,6.738,6.738,0,0,1-1.654-5.023,4.3,4.3,0,0,1,1.465-3.08c1.614-1.387,4.043-1.42,5.346-1.321,3.147.249,4.886.865,5.819,2.055a3.969,3.969,0,0,1,.632,3.249,6.816,6.816,0,0,1-7.1,5.921m-.218-10.307a6.09,6.09,0,0,0-3.862,1.124A3.393,3.393,0,0,0,56.278,39.5a5.786,5.786,0,0,0,1.4,4.308,4.974,4.974,0,0,0,3.812,1.5,5.9,5.9,0,0,0,6.161-5.125,3.085,3.085,0,0,0-.44-2.509c-.744-.947-2.329-1.468-5.147-1.692-.2-.015-.477-.031-.792-.031" transform="translate(10.492 6.638)" fill="#c23846"/>
        <path id="Trazado_69051" data-name="Trazado 69051" d="M62.365,35.007s-1.851-.215-8.424.735v2.006s.935.257,1.183.629.483,3.181,1.194,4.009-1.19-3.141.208-4.639,5.839-2.741,5.839-2.741" transform="translate(10.232 6.636)" fill="#c23846"/>
        <path id="Trazado_69052" data-name="Trazado 69052" d="M65.247,36.164a24.878,24.878,0,0,1,3.871-.475,9.655,9.655,0,0,1,4.082.93l-1.291,1.625s-3.72-1.075-5.592.163Z" transform="translate(12.376 6.769)" fill="#c23846"/>
        <rect id="Rectángulo_29254" data-name="Rectángulo 29254" width="153.781" height="84.614" transform="translate(5.553 101.14)" fill="#a66d58"/>
        <rect id="Rectángulo_29255" data-name="Rectángulo 29255" width="145.866" height="76.92" transform="translate(9.607 104.957)" fill="#f2f0ed"/>
        <path id="Trazado_69053" data-name="Trazado 69053" d="M.24,123.67c.265-2.127.7-6.113,1.789-8.387s1.374-6.73,2.263-7.4,1.964,1.08,1.961,2.392-.616,2.5-.363,3.693.6,3.654,1.147,8.473-.1,8.052-3,8.855-4.633-.949-3.8-7.625" transform="translate(0.006 20.436)" fill="#ffa378"/>
        <path id="Trazado_69054" data-name="Trazado 69054" d="M0,129.326c-.069-2.489.817-10.9,2.458-13.1s7.157-3.412,7.378-2.131c.368,2.139,1.586,9.03.669,10.485a42.83,42.83,0,0,0-4.035,6.935C5.2,134.56.142,134.416,0,129.326" transform="translate(0 21.542)" fill="#ffbb94"/>
        <path id="Trazado_69055" data-name="Trazado 69055" d="M4.959,114.18c1.617-.644,3.178-.774,6.923-.738s7.875.647,8.024,1.494c.13.751-.094,1.382-1.912,1.512s-6.4-.133-9.094.3-4.178,1.213-4.628.074-.761-2.066.686-2.642" transform="translate(0.739 21.518)" fill="#ffbb94"/>
        <path id="Trazado_69056" data-name="Trazado 69056" d="M6.543,116.3a63.466,63.466,0,0,0,6.782-.284c3.731-.322,7.773.419,7.919,1.269.158.935-.093,1.379-1.909,1.513s-6.053.031-8.749.464-4.523,1.047-4.973-.093a2,2,0,0,1,.93-2.87" transform="translate(1.015 21.992)" fill="#ffbb94"/>
        <path id="Trazado_69057" data-name="Trazado 69057" d="M5.246,118.937c1.838-.274,3.205.151,6.96-.137,3.733-.287,7.608.38,7.757,1.227.118.663-.109,1.275-1.925,1.409s-6.053.032-8.75.465-4.524,1.047-4.974-.092a2,2,0,0,1,.933-2.872" transform="translate(0.769 22.522)" fill="#ffbb94"/>
        <path id="Trazado_69058" data-name="Trazado 69058" d="M4.626,121.685s2.642-.228,5.966-.322c3.944-.113,6.916.438,7.077,1.278.081.415-.4,1.021-2.015,1.155a29.988,29.988,0,0,0-7.449.842c-2.337.684-4.016,1.058-4.413-.081a2.125,2.125,0,0,1,.833-2.872" transform="translate(0.676 23.018)" fill="#ffbb94"/>
        <path id="Trazado_69059" data-name="Trazado 69059" d="M139.551,122.669c-.265-2.127-.7-6.113-1.789-8.387s-1.374-6.73-2.263-7.4-1.964,1.08-1.962,2.392.616,2.5.364,3.693-.606,3.654-1.147,8.473.094,8.052,3,8.855,4.633-.949,3.8-7.625" transform="translate(25.149 20.246)" fill="#ffa378"/>
        <path id="Trazado_69060" data-name="Trazado 69060" d="M140.373,128.326c.069-2.489-.817-10.9-2.458-13.106s-7.157-3.412-7.38-2.13c-.368,2.138-1.586,9.029-.669,10.484a42.893,42.893,0,0,1,4.037,6.936c1.273,3.048,6.33,2.905,6.47-2.184" transform="translate(24.57 21.353)" fill="#ffbb94"/>
        <path id="Trazado_69061" data-name="Trazado 69061" d="M136.245,113.18c-1.617-.644-3.178-.774-6.923-.738s-7.875.647-8.024,1.494c-.13.751.1,1.382,1.912,1.512s6.4-.133,9.094.3,4.179,1.213,4.629.074.761-2.066-.688-2.642" transform="translate(23.003 21.328)" fill="#ffbb94"/>
        <path id="Trazado_69062" data-name="Trazado 69062" d="M134.644,115.3a63.32,63.32,0,0,1-6.782-.286c-3.731-.321-7.773.42-7.919,1.271-.158.935.092,1.379,1.909,1.512s6.053.032,8.749.465,4.523,1.047,4.973-.093a2,2,0,0,0-.93-2.87" transform="translate(22.744 21.802)" fill="#ffbb94"/>
        <path id="Trazado_69063" data-name="Trazado 69063" d="M135.941,117.936c-1.838-.274-3.205.15-6.96-.137-3.733-.287-7.608.38-7.757,1.227-.118.663.111,1.275,1.925,1.409s6.053.032,8.751.465,4.523,1.047,4.973-.092a2,2,0,0,0-.933-2.872" transform="translate(22.99 22.332)" fill="#ffbb94"/>
        <path id="Trazado_69064" data-name="Trazado 69064" d="M136.271,120.684s-2.642-.228-5.966-.322c-3.945-.113-6.916.438-7.077,1.278-.081.415.4,1.021,2.015,1.155a30.038,30.038,0,0,1,7.449.841c2.337.685,4.016,1.058,4.413-.08a2.126,2.126,0,0,0-.833-2.872" transform="translate(23.373 22.828)" fill="#ffbb94"/>
        <path id="Trazado_69065" data-name="Trazado 69065" d="M75.073,323.156c.089.3-.527,5.682-.01,7.851s6.585,7.123,8.818,6.729,5.484-7.194,5.682-10.052a14.367,14.367,0,0,0-1.281-6.011s-2.661,4.236-7,4.04-6.213-2.557-6.213-2.557" transform="translate(14.199 61.017)" fill="#352723"/>
        <path id="Trazado_69066" data-name="Trazado 69066" d="M74.935,321.858c.09.3-.526,5.682-.01,7.851s6.585,7.123,8.818,6.729,5.484-7.194,5.682-10.052a14.367,14.367,0,0,0-1.281-6.012s-2.661,4.238-7,4.04-6.213-2.557-6.213-2.557" transform="translate(14.173 60.771)" fill="#c23846"/>
        <path id="Trazado_69067" data-name="Trazado 69067" d="M73.135,323.156c-.09.3.526,5.682.01,7.851s-6.585,7.123-8.818,6.729-5.484-7.194-5.682-10.052a14.367,14.367,0,0,1,1.281-6.011s2.661,4.236,7,4.04,6.213-2.557,6.213-2.557" transform="translate(11.121 61.017)" fill="#352723"/>
        <path id="Trazado_69068" data-name="Trazado 69068" d="M73.273,321.858c-.09.3.526,5.682.008,7.851s-6.584,7.123-8.817,6.729-5.484-7.194-5.682-10.052a14.347,14.347,0,0,1,1.281-6.012s2.661,4.238,7,4.04,6.213-2.557,6.213-2.557" transform="translate(11.147 60.771)" fill="#c23846"/>
      </g>
      <text id="Normas" transform="translate(303 7237)" fill="#6595bf" font-size="24" font-family="Helvetica-Bold, Helvetica" font-weight="700"><tspan x="17.816" y="18">Normas</tspan></text>
    </g>
  </g>
</svg>
