<svg xmlns="http://www.w3.org/2000/svg" xmlns:xlink="http://www.w3.org/1999/xlink" width="1542.592" height="697.991" viewBox="0 0 1542.592 697.991">
  <defs>
    <linearGradient id="linear-gradient" x1="0.815" y1="0.289" x2="0.12" y2="0.316" gradientUnits="objectBoundingBox">
      <stop offset="0" stop-color="#6fd8d8"/>
      <stop offset="1" stop-color="#6caaed"/>
    </linearGradient>
  </defs>
  <g id="Grupo_30663" data-name="Grupo 30663" transform="translate(843.592 7640.23)">
    <path id="Trazado_77032" data-name="Trazado 77032" d="M0-29.347H1542.592V668.645H0Z" transform="translate(699 -6971.586) rotate(180)" fill="url(#linear-gradient)"/>
    <g id="Grupo_28610" data-name="Grupo 28610" transform="translate(-701.592 -7625)" opacity="0.54">
      <g id="Grupo_28541" data-name="Grupo 28541" transform="translate(0 39.862)">
        <g id="Grupo_28538" data-name="Grupo 28538">
          <rect id="Rectángulo_29932" data-name="Rectángulo 29932" width="2" height="2" fill="#fff"/>
        </g>
        <g id="Grupo_28539" data-name="Grupo 28539" transform="translate(5.982 0)">
          <path id="Trazado_71259" data-name="Trazado 71259" d="M934.291,567.595H930.31v-2h3.981Zm-7.964,0h-3.982v-2h3.982Zm-7.965,0H914.38v-2h3.982Zm-7.965,0h-3.982v-2H910.4Zm-7.964,0H898.45v-2h3.983Zm-7.965,0h-3.983v-2h3.983Zm-7.965,0H882.52v-2H886.5Zm-7.965,0h-3.982v-2h3.982Zm-7.965,0h-3.982v-2h3.982Zm-7.965,0h-3.982v-2h3.982Zm-7.964,0h-3.983v-2h3.983Zm-7.965,0H842.7v-2h3.983Zm-7.964,0h-3.983v-2h3.983Zm-7.965,0h-3.982v-2h3.982Zm-7.965,0H818.8v-2h3.982Zm-7.965,0h-3.982v-2h3.982Zm-7.965,0h-3.982v-2h3.982Zm-7.964,0h-3.983v-2h3.983Zm-7.965,0h-3.983v-2h3.983Zm-7.965,0h-3.983v-2h3.983Zm-7.965,0h-3.982v-2H775Zm-7.965,0h-3.982v-2h3.982Zm-7.965,0h-3.982v-2h3.982Zm-7.964,0h-3.983v-2H751.1Zm-7.965,0h-3.983v-2h3.983Zm-7.965,0H731.19v-2h3.982Zm-7.964,0h-3.982v-2h3.982Zm-7.965,0h-3.982v-2h3.982Zm-7.965,0H707.3v-2h3.982Zm-7.965,0h-3.982v-2h3.982Zm-7.964,0h-3.983v-2h3.983Zm-7.965,0H683.4v-2h3.983Zm-7.965,0h-3.983v-2h3.983Zm-7.965,0h-3.982v-2h3.982Zm-7.965,0h-3.982v-2h3.982Zm-7.965,0h-3.982v-2h3.982Zm-7.964,0h-3.983v-2h3.983Zm-7.964,0h-3.983v-2H639.6Zm-7.965,0h-3.983v-2h3.983Zm-7.965,0h-3.982v-2h3.982Zm-7.965,0h-3.982v-2H615.7Zm-7.965,0h-3.982v-2h3.982Zm-7.965,0h-3.982v-2h3.982Zm-7.964,0h-3.983v-2h3.983Zm-7.965,0h-3.983v-2h3.983Zm-7.965,0h-3.983v-2h3.983Zm-7.965,0H563.93v-2h3.982Zm-7.965,0h-3.982v-2h3.982Zm-7.965,0H548v-2h3.982Zm-7.964,0h-3.983v-2h3.983Zm-7.964,0h-3.983v-2h3.983Zm-7.965,0h-3.983v-2h3.983Zm-7.965,0h-3.982v-2h3.982Zm-7.965,0h-3.982v-2h3.982Zm-7.965,0h-3.982v-2h3.982Zm-7.965,0h-3.982v-2h3.982Zm-7.964,0h-3.983v-2h3.983Zm-7.965,0h-3.982v-2H480.3Zm-7.965,0h-3.982v-2h3.982Zm-7.964,0h-3.983v-2h3.983Zm-7.965,0h-3.983v-2h3.983Zm-7.965,0h-3.982v-2h3.982Zm-7.964,0h-3.983v-2h3.983Zm-7.965,0h-3.983v-2h3.983Zm-7.965,0h-3.983v-2h3.983Zm-7.965,0H412.6v-2h3.982Zm-7.964,0h-3.983v-2h3.983Zm-7.965,0H396.67v-2h3.983Zm-7.965,0h-3.982v-2h3.982Zm-7.964,0h-3.983v-2h3.983Zm-7.965,0h-3.983v-2h3.983Zm-7.965,0h-3.983v-2h3.983Zm-7.965,0h-3.982v-2h3.982Zm-7.964,0h-3.983v-2h3.983Zm-7.965,0h-3.983v-2H344.9Zm-7.965,0h-3.982v-2h3.982Zm-7.964,0h-3.983v-2h3.983Zm-7.965,0h-3.983v-2h3.983Zm-7.965,0h-3.982v-2h3.982Zm-7.965,0h-3.982v-2h3.982Zm-7.964,0h-3.983v-2h3.983Zm-7.965,0h-3.982v-2h3.982Zm-7.965,0H277.2v-2h3.982Zm-7.965,0h-3.982v-2h3.982Zm-7.964,0H261.27v-2h3.983Zm-7.965,0h-3.982v-2h3.982Zm-7.965,0h-3.982v-2h3.982Zm-7.965,0h-3.982v-2h3.982Zm-7.964,0h-3.982v-2h3.982Zm-7.965,0h-3.982v-2h3.982Zm-7.965,0h-3.982v-2h3.982Zm-7.965,0h-3.981v-2H209.5Zm-7.964,0h-3.982v-2h3.982Zm-7.965,0h-3.982v-2h3.982Zm-7.965,0h-3.982v-2H185.6Zm-7.964,0h-3.982v-2h3.982Zm-7.965,0h-3.982v-2h3.982Zm-7.965,0h-3.982v-2h3.982Zm-7.964,0h-3.983v-2h3.983Zm-7.965,0H141.8v-2h3.982Zm-7.965,0h-3.982v-2h3.982Zm-7.965,0H125.87v-2h3.982Zm-7.964,0H117.9v-2h3.983Zm-7.965,0h-3.982v-2h3.982Zm-7.965,0h-3.982v-2h3.982Zm-7.964,0H94.011v-2h3.983Zm-7.965,0H86.046v-2h3.983Zm-7.964,0H78.082v-2h3.983Zm-7.965,0H70.117v-2H74.1Z" transform="translate(-70.117 -565.595)" fill="#fff"/>
        </g>
        <g id="Grupo_28540" data-name="Grupo 28540" transform="translate(874.138)">
          <rect id="Rectángulo_29933" data-name="Rectángulo 29933" width="2" height="2" fill="#fff"/>
        </g>
      </g>
      <g id="Grupo_28545" data-name="Grupo 28545" transform="translate(48.487 0.261)">
        <g id="Grupo_28542" data-name="Grupo 28542" transform="translate(0 668.105)">
          <rect id="Rectángulo_29934" data-name="Rectángulo 29934" width="2" height="2" fill="#fff"/>
        </g>
        <g id="Grupo_28543" data-name="Grupo 28543" transform="translate(0 5.994)">
          <path id="Trazado_71260" data-name="Trazado 71260" d="M114.622,1190.1h-2v-7.394h2Zm0-14.789h-2v-7.394h2Zm0-14.791h-2v-7.395h2Zm0-14.789h-2v-7.395h2Zm0-14.787h-2v-7.395h2Zm0-14.789h-2v-7.4h2Zm0-14.791h-2v-7.395h2Zm0-14.789h-2v-7.394h2Zm0-14.789h-2v-7.4h2Zm0-14.791h-2v-7.394h2Zm0-14.789h-2v-7.395h2Zm0-14.789h-2v-7.394h2Zm0-14.789h-2v-7.394h2Zm0-14.789h-2v-7.394h2Zm0-14.789h-2v-7.394h2Zm0-14.789h-2v-7.394h2Zm0-14.791h-2v-7.394h2Zm0-14.789h-2v-7.395h2Zm0-14.789h-2V916.5h2Zm0-14.789h-2v-7.4h2Zm0-14.789h-2v-7.394h2Zm0-14.789h-2v-7.394h2Zm0-14.789h-2v-7.395h2Zm0-14.791h-2v-7.394h2Zm0-14.789h-2V827.77h2Zm0-14.789h-2v-7.394h2Zm0-14.789h-2v-7.4h2Zm0-14.791h-2V783.4h2Zm0-14.787h-2v-7.394h2Zm0-14.789h-2v-7.395h2Zm0-14.791h-2v-7.394h2Zm0-14.789h-2v-7.394h2Zm0-14.789h-2v-7.394h2Zm0-14.789h-2v-7.4h2Zm0-14.791h-2v-7.394h2Zm0-14.789h-2v-7.393h2Zm0-14.787h-2V650.3h2Zm0-14.791h-2v-7.394h2Zm0-14.789h-2v-7.394h2Zm0-14.789h-2v-7.394h2Zm0-14.789h-2v-7.394h2Zm0-14.791h-2v-7.394h2Zm0-14.789h-2v-7.394h2Zm0-14.787h-2v-7.394h2Zm0-14.791h-2v-7.394h2Z" transform="translate(-112.622 -531.987)" fill="#fff"/>
        </g>
        <g id="Grupo_28544" data-name="Grupo 28544" transform="translate(0)">
          <rect id="Rectángulo_29935" data-name="Rectángulo 29935" width="2" height="2" fill="#fff"/>
        </g>
      </g>
      <g id="Grupo_28549" data-name="Grupo 28549" transform="translate(119.079 0.261)">
        <g id="Grupo_28546" data-name="Grupo 28546" transform="translate(0 668.105)">
          <rect id="Rectángulo_29936" data-name="Rectángulo 29936" width="2" height="2" fill="#fff"/>
        </g>
        <g id="Grupo_28547" data-name="Grupo 28547" transform="translate(0 5.994)">
          <path id="Trazado_71261" data-name="Trazado 71261" d="M185.214,1190.1h-2v-7.394h2Zm0-14.789h-2v-7.394h2Zm0-14.791h-2v-7.395h2Zm0-14.789h-2v-7.395h2Zm0-14.787h-2v-7.395h2Zm0-14.789h-2v-7.4h2Zm0-14.791h-2v-7.395h2Zm0-14.789h-2v-7.394h2Zm0-14.789h-2v-7.4h2Zm0-14.791h-2v-7.394h2Zm0-14.789h-2v-7.395h2Zm0-14.789h-2v-7.394h2Zm0-14.789h-2v-7.394h2Zm0-14.789h-2v-7.394h2Zm0-14.789h-2v-7.394h2Zm0-14.789h-2v-7.394h2Zm0-14.791h-2v-7.394h2Zm0-14.789h-2v-7.395h2Zm0-14.789h-2V916.5h2Zm0-14.789h-2v-7.4h2Zm0-14.789h-2v-7.394h2Zm0-14.789h-2v-7.394h2Zm0-14.789h-2v-7.395h2Zm0-14.791h-2v-7.394h2Zm0-14.789h-2V827.77h2Zm0-14.789h-2v-7.394h2Zm0-14.789h-2v-7.4h2Zm0-14.791h-2V783.4h2Zm0-14.787h-2v-7.394h2Zm0-14.789h-2v-7.395h2Zm0-14.791h-2v-7.394h2Zm0-14.789h-2v-7.394h2Zm0-14.789h-2v-7.394h2Zm0-14.789h-2v-7.4h2Zm0-14.791h-2v-7.394h2Zm0-14.789h-2v-7.393h2Zm0-14.787h-2V650.3h2Zm0-14.791h-2v-7.394h2Zm0-14.789h-2v-7.394h2Zm0-14.789h-2v-7.394h2Zm0-14.789h-2v-7.394h2Zm0-14.791h-2v-7.394h2Zm0-14.789h-2v-7.394h2Zm0-14.787h-2v-7.394h2Zm0-14.791h-2v-7.394h2Z" transform="translate(-183.214 -531.987)" fill="#fff"/>
        </g>
        <g id="Grupo_28548" data-name="Grupo 28548" transform="translate(0)">
          <rect id="Rectángulo_29937" data-name="Rectángulo 29937" width="2" height="2" fill="#fff"/>
        </g>
      </g>
      <g id="Grupo_28553" data-name="Grupo 28553" transform="translate(189.672 0.261)">
        <g id="Grupo_28550" data-name="Grupo 28550" transform="translate(0 668.105)">
          <rect id="Rectángulo_29938" data-name="Rectángulo 29938" width="2" height="2" fill="#fff"/>
        </g>
        <g id="Grupo_28551" data-name="Grupo 28551" transform="translate(0 5.994)">
          <path id="Trazado_71262" data-name="Trazado 71262" d="M255.807,1190.1h-2v-7.394h2Zm0-14.789h-2v-7.394h2Zm0-14.791h-2v-7.395h2Zm0-14.789h-2v-7.395h2Zm0-14.787h-2v-7.395h2Zm0-14.789h-2v-7.4h2Zm0-14.791h-2v-7.395h2Zm0-14.789h-2v-7.394h2Zm0-14.789h-2v-7.4h2Zm0-14.791h-2v-7.394h2Zm0-14.789h-2v-7.395h2Zm0-14.789h-2v-7.394h2Zm0-14.789h-2v-7.394h2Zm0-14.789h-2v-7.394h2Zm0-14.789h-2v-7.394h2Zm0-14.789h-2v-7.394h2Zm0-14.791h-2v-7.394h2Zm0-14.789h-2v-7.395h2Zm0-14.789h-2V916.5h2Zm0-14.789h-2v-7.4h2Zm0-14.789h-2v-7.394h2Zm0-14.789h-2v-7.394h2Zm0-14.789h-2v-7.395h2Zm0-14.791h-2v-7.394h2Zm0-14.789h-2V827.77h2Zm0-14.789h-2v-7.394h2Zm0-14.789h-2v-7.4h2Zm0-14.791h-2V783.4h2Zm0-14.787h-2v-7.394h2Zm0-14.789h-2v-7.395h2Zm0-14.791h-2v-7.394h2Zm0-14.789h-2v-7.394h2Zm0-14.789h-2v-7.394h2Zm0-14.789h-2v-7.4h2Zm0-14.791h-2v-7.394h2Zm0-14.789h-2v-7.393h2Zm0-14.787h-2V650.3h2Zm0-14.791h-2v-7.394h2Zm0-14.789h-2v-7.394h2Zm0-14.789h-2v-7.394h2Zm0-14.789h-2v-7.394h2Zm0-14.791h-2v-7.394h2Zm0-14.789h-2v-7.394h2Zm0-14.787h-2v-7.394h2Zm0-14.791h-2v-7.394h2Z" transform="translate(-253.807 -531.987)" fill="#fff"/>
        </g>
        <g id="Grupo_28552" data-name="Grupo 28552">
          <rect id="Rectángulo_29939" data-name="Rectángulo 29939" width="2" height="2" fill="#fff"/>
        </g>
      </g>
      <g id="Grupo_28557" data-name="Grupo 28557" transform="translate(260.264 0.261)">
        <g id="Grupo_28554" data-name="Grupo 28554" transform="translate(0 668.105)">
          <rect id="Rectángulo_29940" data-name="Rectángulo 29940" width="2" height="2" fill="#fff"/>
        </g>
        <g id="Grupo_28555" data-name="Grupo 28555" transform="translate(0 5.994)">
          <path id="Trazado_71263" data-name="Trazado 71263" d="M326.4,1190.1h-2v-7.394h2Zm0-14.789h-2v-7.394h2Zm0-14.791h-2v-7.395h2Zm0-14.789h-2v-7.395h2Zm0-14.787h-2v-7.395h2Zm0-14.789h-2v-7.4h2Zm0-14.791h-2v-7.395h2Zm0-14.789h-2v-7.394h2Zm0-14.789h-2v-7.4h2Zm0-14.791h-2v-7.394h2Zm0-14.789h-2v-7.395h2Zm0-14.789h-2v-7.394h2Zm0-14.789h-2v-7.394h2Zm0-14.789h-2v-7.394h2Zm0-14.789h-2v-7.394h2Zm0-14.789h-2v-7.394h2Zm0-14.791h-2v-7.394h2Zm0-14.789h-2v-7.395h2Zm0-14.789h-2V916.5h2Zm0-14.789h-2v-7.4h2Zm0-14.789h-2v-7.394h2Zm0-14.789h-2v-7.394h2Zm0-14.789h-2v-7.395h2Zm0-14.791h-2v-7.394h2Zm0-14.789h-2V827.77h2Zm0-14.789h-2v-7.394h2Zm0-14.789h-2v-7.4h2Zm0-14.791h-2V783.4h2Zm0-14.787h-2v-7.394h2Zm0-14.789h-2v-7.395h2Zm0-14.791h-2v-7.394h2Zm0-14.789h-2v-7.394h2Zm0-14.789h-2v-7.394h2Zm0-14.789h-2v-7.4h2Zm0-14.791h-2v-7.394h2Zm0-14.789h-2v-7.393h2Zm0-14.787h-2V650.3h2Zm0-14.791h-2v-7.394h2Zm0-14.789h-2v-7.394h2Zm0-14.789h-2v-7.394h2Zm0-14.789h-2v-7.394h2Zm0-14.791h-2v-7.394h2Zm0-14.789h-2v-7.394h2Zm0-14.787h-2v-7.394h2Zm0-14.791h-2v-7.394h2Z" transform="translate(-324.399 -531.987)" fill="#fff"/>
        </g>
        <g id="Grupo_28556" data-name="Grupo 28556">
          <rect id="Rectángulo_29941" data-name="Rectángulo 29941" width="2" height="2" fill="#fff"/>
        </g>
      </g>
      <g id="Grupo_28561" data-name="Grupo 28561" transform="translate(330.856 0.261)">
        <g id="Grupo_28558" data-name="Grupo 28558" transform="translate(0 668.105)">
          <rect id="Rectángulo_29942" data-name="Rectángulo 29942" width="2" height="2" fill="#fff"/>
        </g>
        <g id="Grupo_28559" data-name="Grupo 28559" transform="translate(0 5.994)">
          <path id="Trazado_71264" data-name="Trazado 71264" d="M396.991,1190.1h-2v-7.394h2Zm0-14.789h-2v-7.394h2Zm0-14.791h-2v-7.395h2Zm0-14.789h-2v-7.395h2Zm0-14.787h-2v-7.395h2Zm0-14.789h-2v-7.4h2Zm0-14.791h-2v-7.395h2Zm0-14.789h-2v-7.394h2Zm0-14.789h-2v-7.4h2Zm0-14.791h-2v-7.394h2Zm0-14.789h-2v-7.395h2Zm0-14.789h-2v-7.394h2Zm0-14.789h-2v-7.394h2Zm0-14.789h-2v-7.394h2Zm0-14.789h-2v-7.394h2Zm0-14.789h-2v-7.394h2Zm0-14.791h-2v-7.394h2Zm0-14.789h-2v-7.395h2Zm0-14.789h-2V916.5h2Zm0-14.789h-2v-7.4h2Zm0-14.789h-2v-7.394h2Zm0-14.789h-2v-7.394h2Zm0-14.789h-2v-7.395h2Zm0-14.791h-2v-7.394h2Zm0-14.789h-2V827.77h2Zm0-14.789h-2v-7.394h2Zm0-14.789h-2v-7.4h2Zm0-14.791h-2V783.4h2Zm0-14.787h-2v-7.394h2Zm0-14.789h-2v-7.395h2Zm0-14.791h-2v-7.394h2Zm0-14.789h-2v-7.394h2Zm0-14.789h-2v-7.394h2Zm0-14.789h-2v-7.4h2Zm0-14.791h-2v-7.394h2Zm0-14.789h-2v-7.393h2Zm0-14.787h-2V650.3h2Zm0-14.791h-2v-7.394h2Zm0-14.789h-2v-7.394h2Zm0-14.789h-2v-7.394h2Zm0-14.789h-2v-7.394h2Zm0-14.791h-2v-7.394h2Zm0-14.789h-2v-7.394h2Zm0-14.787h-2v-7.394h2Zm0-14.791h-2v-7.394h2Z" transform="translate(-394.991 -531.987)" fill="#fff"/>
        </g>
        <g id="Grupo_28560" data-name="Grupo 28560" transform="translate(0)">
          <rect id="Rectángulo_29943" data-name="Rectángulo 29943" width="2" height="2" fill="#fff"/>
        </g>
      </g>
      <g id="Grupo_28565" data-name="Grupo 28565" transform="translate(401.448 0.261)">
        <g id="Grupo_28562" data-name="Grupo 28562" transform="translate(0 668.105)">
          <rect id="Rectángulo_29944" data-name="Rectángulo 29944" width="2" height="2" fill="#fff"/>
        </g>
        <g id="Grupo_28563" data-name="Grupo 28563" transform="translate(0 5.994)">
          <path id="Trazado_71265" data-name="Trazado 71265" d="M467.583,1190.1h-2v-7.394h2Zm0-14.789h-2v-7.394h2Zm0-14.791h-2v-7.395h2Zm0-14.789h-2v-7.395h2Zm0-14.787h-2v-7.395h2Zm0-14.789h-2v-7.4h2Zm0-14.791h-2v-7.395h2Zm0-14.789h-2v-7.394h2Zm0-14.789h-2v-7.4h2Zm0-14.791h-2v-7.394h2Zm0-14.789h-2v-7.395h2Zm0-14.789h-2v-7.394h2Zm0-14.789h-2v-7.394h2Zm0-14.789h-2v-7.394h2Zm0-14.789h-2v-7.394h2Zm0-14.789h-2v-7.394h2Zm0-14.791h-2v-7.394h2Zm0-14.789h-2v-7.395h2Zm0-14.789h-2V916.5h2Zm0-14.789h-2v-7.4h2Zm0-14.789h-2v-7.394h2Zm0-14.789h-2v-7.394h2Zm0-14.789h-2v-7.395h2Zm0-14.791h-2v-7.394h2Zm0-14.789h-2V827.77h2Zm0-14.789h-2v-7.394h2Zm0-14.789h-2v-7.4h2Zm0-14.791h-2V783.4h2Zm0-14.787h-2v-7.394h2Zm0-14.789h-2v-7.395h2Zm0-14.791h-2v-7.394h2Zm0-14.789h-2v-7.394h2Zm0-14.789h-2v-7.394h2Zm0-14.789h-2v-7.4h2Zm0-14.791h-2v-7.394h2Zm0-14.789h-2v-7.393h2Zm0-14.787h-2V650.3h2Zm0-14.791h-2v-7.394h2Zm0-14.789h-2v-7.394h2Zm0-14.789h-2v-7.394h2Zm0-14.789h-2v-7.394h2Zm0-14.791h-2v-7.394h2Zm0-14.789h-2v-7.394h2Zm0-14.787h-2v-7.394h2Zm0-14.791h-2v-7.394h2Z" transform="translate(-465.583 -531.987)" fill="#fff"/>
        </g>
        <g id="Grupo_28564" data-name="Grupo 28564" transform="translate(0)">
          <rect id="Rectángulo_29945" data-name="Rectángulo 29945" width="2" height="2" fill="#fff"/>
        </g>
      </g>
      <g id="Grupo_28569" data-name="Grupo 28569" transform="translate(472.041 0.261)">
        <g id="Grupo_28566" data-name="Grupo 28566" transform="translate(0 668.105)">
          <rect id="Rectángulo_29946" data-name="Rectángulo 29946" width="2" height="2" fill="#fff"/>
        </g>
        <g id="Grupo_28567" data-name="Grupo 28567" transform="translate(0 5.994)">
          <path id="Trazado_71266" data-name="Trazado 71266" d="M538.176,1190.1h-2v-7.394h2Zm0-14.789h-2v-7.394h2Zm0-14.791h-2v-7.395h2Zm0-14.789h-2v-7.395h2Zm0-14.787h-2v-7.395h2Zm0-14.789h-2v-7.4h2Zm0-14.791h-2v-7.395h2Zm0-14.789h-2v-7.394h2Zm0-14.789h-2v-7.4h2Zm0-14.791h-2v-7.394h2Zm0-14.789h-2v-7.395h2Zm0-14.789h-2v-7.394h2Zm0-14.789h-2v-7.394h2Zm0-14.789h-2v-7.394h2Zm0-14.789h-2v-7.394h2Zm0-14.789h-2v-7.394h2Zm0-14.791h-2v-7.394h2Zm0-14.789h-2v-7.395h2Zm0-14.789h-2V916.5h2Zm0-14.789h-2v-7.4h2Zm0-14.789h-2v-7.394h2Zm0-14.789h-2v-7.394h2Zm0-14.789h-2v-7.395h2Zm0-14.791h-2v-7.394h2Zm0-14.789h-2V827.77h2Zm0-14.789h-2v-7.394h2Zm0-14.789h-2v-7.4h2Zm0-14.791h-2V783.4h2Zm0-14.787h-2v-7.394h2Zm0-14.789h-2v-7.395h2Zm0-14.791h-2v-7.394h2Zm0-14.789h-2v-7.394h2Zm0-14.789h-2v-7.394h2Zm0-14.789h-2v-7.4h2Zm0-14.791h-2v-7.394h2Zm0-14.789h-2v-7.393h2Zm0-14.787h-2V650.3h2Zm0-14.791h-2v-7.394h2Zm0-14.789h-2v-7.394h2Zm0-14.789h-2v-7.394h2Zm0-14.789h-2v-7.394h2Zm0-14.791h-2v-7.394h2Zm0-14.789h-2v-7.394h2Zm0-14.787h-2v-7.394h2Zm0-14.791h-2v-7.394h2Z" transform="translate(-536.176 -531.987)" fill="#fff"/>
        </g>
        <g id="Grupo_28568" data-name="Grupo 28568">
          <rect id="Rectángulo_29947" data-name="Rectángulo 29947" width="2" height="2" fill="#fff"/>
        </g>
      </g>
      <g id="Grupo_28573" data-name="Grupo 28573" transform="translate(542.633 0.261)">
        <g id="Grupo_28570" data-name="Grupo 28570" transform="translate(0 668.105)">
          <rect id="Rectángulo_29948" data-name="Rectángulo 29948" width="2" height="2" fill="#fff"/>
        </g>
        <g id="Grupo_28571" data-name="Grupo 28571" transform="translate(0 5.994)">
          <path id="Trazado_71267" data-name="Trazado 71267" d="M608.768,1190.1h-2v-7.394h2Zm0-14.789h-2v-7.394h2Zm0-14.791h-2v-7.395h2Zm0-14.789h-2v-7.395h2Zm0-14.787h-2v-7.395h2Zm0-14.789h-2v-7.4h2Zm0-14.791h-2v-7.395h2Zm0-14.789h-2v-7.394h2Zm0-14.789h-2v-7.4h2Zm0-14.791h-2v-7.394h2Zm0-14.789h-2v-7.395h2Zm0-14.789h-2v-7.394h2Zm0-14.789h-2v-7.394h2Zm0-14.789h-2v-7.394h2Zm0-14.789h-2v-7.394h2Zm0-14.789h-2v-7.394h2Zm0-14.791h-2v-7.394h2Zm0-14.789h-2v-7.395h2Zm0-14.789h-2V916.5h2Zm0-14.789h-2v-7.4h2Zm0-14.789h-2v-7.394h2Zm0-14.789h-2v-7.394h2Zm0-14.789h-2v-7.395h2Zm0-14.791h-2v-7.394h2Zm0-14.789h-2V827.77h2Zm0-14.789h-2v-7.394h2Zm0-14.789h-2v-7.4h2Zm0-14.791h-2V783.4h2Zm0-14.787h-2v-7.394h2Zm0-14.789h-2v-7.395h2Zm0-14.791h-2v-7.394h2Zm0-14.789h-2v-7.394h2Zm0-14.789h-2v-7.394h2Zm0-14.789h-2v-7.4h2Zm0-14.791h-2v-7.394h2Zm0-14.789h-2v-7.393h2Zm0-14.787h-2V650.3h2Zm0-14.791h-2v-7.394h2Zm0-14.789h-2v-7.394h2Zm0-14.789h-2v-7.394h2Zm0-14.789h-2v-7.394h2Zm0-14.791h-2v-7.394h2Zm0-14.789h-2v-7.394h2Zm0-14.787h-2v-7.394h2Zm0-14.791h-2v-7.394h2Z" transform="translate(-606.768 -531.987)" fill="#fff"/>
        </g>
        <g id="Grupo_28572" data-name="Grupo 28572">
          <rect id="Rectángulo_29949" data-name="Rectángulo 29949" width="2" height="2" fill="#fff"/>
        </g>
      </g>
      <g id="Grupo_28577" data-name="Grupo 28577" transform="translate(613.224 0.261)">
        <g id="Grupo_28574" data-name="Grupo 28574" transform="translate(0 668.105)">
          <rect id="Rectángulo_29950" data-name="Rectángulo 29950" width="2" height="2" fill="#fff"/>
        </g>
        <g id="Grupo_28575" data-name="Grupo 28575" transform="translate(0 5.994)">
          <path id="Trazado_71268" data-name="Trazado 71268" d="M679.359,1190.1h-2v-7.394h2Zm0-14.789h-2v-7.394h2Zm0-14.791h-2v-7.395h2Zm0-14.789h-2v-7.395h2Zm0-14.787h-2v-7.395h2Zm0-14.789h-2v-7.4h2Zm0-14.791h-2v-7.395h2Zm0-14.789h-2v-7.394h2Zm0-14.789h-2v-7.4h2Zm0-14.791h-2v-7.394h2Zm0-14.789h-2v-7.395h2Zm0-14.789h-2v-7.394h2Zm0-14.789h-2v-7.394h2Zm0-14.789h-2v-7.394h2Zm0-14.789h-2v-7.394h2Zm0-14.789h-2v-7.394h2Zm0-14.791h-2v-7.394h2Zm0-14.789h-2v-7.395h2Zm0-14.789h-2V916.5h2Zm0-14.789h-2v-7.4h2Zm0-14.789h-2v-7.394h2Zm0-14.789h-2v-7.394h2Zm0-14.789h-2v-7.395h2Zm0-14.791h-2v-7.394h2Zm0-14.789h-2V827.77h2Zm0-14.789h-2v-7.394h2Zm0-14.789h-2v-7.4h2Zm0-14.791h-2V783.4h2Zm0-14.787h-2v-7.394h2Zm0-14.789h-2v-7.395h2Zm0-14.791h-2v-7.394h2Zm0-14.789h-2v-7.394h2Zm0-14.789h-2v-7.394h2Zm0-14.789h-2v-7.4h2Zm0-14.791h-2v-7.394h2Zm0-14.789h-2v-7.393h2Zm0-14.787h-2V650.3h2Zm0-14.791h-2v-7.394h2Zm0-14.789h-2v-7.394h2Zm0-14.789h-2v-7.394h2Zm0-14.789h-2v-7.394h2Zm0-14.791h-2v-7.394h2Zm0-14.789h-2v-7.394h2Zm0-14.787h-2v-7.394h2Zm0-14.791h-2v-7.394h2Z" transform="translate(-677.359 -531.987)" fill="#fff"/>
        </g>
        <g id="Grupo_28576" data-name="Grupo 28576" transform="translate(0)">
          <rect id="Rectángulo_29951" data-name="Rectángulo 29951" width="2" height="2" fill="#fff"/>
        </g>
      </g>
      <g id="Grupo_28581" data-name="Grupo 28581" transform="translate(683.816 0.261)">
        <g id="Grupo_28578" data-name="Grupo 28578" transform="translate(0 668.105)">
          <rect id="Rectángulo_29952" data-name="Rectángulo 29952" width="2" height="2" fill="#fff"/>
        </g>
        <g id="Grupo_28579" data-name="Grupo 28579" transform="translate(0 5.994)">
          <path id="Trazado_71269" data-name="Trazado 71269" d="M749.951,1190.1h-2v-7.394h2Zm0-14.789h-2v-7.394h2Zm0-14.791h-2v-7.395h2Zm0-14.789h-2v-7.395h2Zm0-14.787h-2v-7.395h2Zm0-14.789h-2v-7.4h2Zm0-14.791h-2v-7.395h2Zm0-14.789h-2v-7.394h2Zm0-14.789h-2v-7.4h2Zm0-14.791h-2v-7.394h2Zm0-14.789h-2v-7.395h2Zm0-14.789h-2v-7.394h2Zm0-14.789h-2v-7.394h2Zm0-14.789h-2v-7.394h2Zm0-14.789h-2v-7.394h2Zm0-14.789h-2v-7.394h2Zm0-14.791h-2v-7.394h2Zm0-14.789h-2v-7.395h2Zm0-14.789h-2V916.5h2Zm0-14.789h-2v-7.4h2Zm0-14.789h-2v-7.394h2Zm0-14.789h-2v-7.394h2Zm0-14.789h-2v-7.395h2Zm0-14.791h-2v-7.394h2Zm0-14.789h-2V827.77h2Zm0-14.789h-2v-7.394h2Zm0-14.789h-2v-7.4h2Zm0-14.791h-2V783.4h2Zm0-14.787h-2v-7.394h2Zm0-14.789h-2v-7.395h2Zm0-14.791h-2v-7.394h2Zm0-14.789h-2v-7.394h2Zm0-14.789h-2v-7.394h2Zm0-14.789h-2v-7.4h2Zm0-14.791h-2v-7.394h2Zm0-14.789h-2v-7.393h2Zm0-14.787h-2V650.3h2Zm0-14.791h-2v-7.394h2Zm0-14.789h-2v-7.394h2Zm0-14.789h-2v-7.394h2Zm0-14.789h-2v-7.394h2Zm0-14.791h-2v-7.394h2Zm0-14.789h-2v-7.394h2Zm0-14.787h-2v-7.394h2Zm0-14.791h-2v-7.394h2Z" transform="translate(-747.951 -531.987)" fill="#fff"/>
        </g>
        <g id="Grupo_28580" data-name="Grupo 28580" transform="translate(0)">
          <rect id="Rectángulo_29953" data-name="Rectángulo 29953" width="2" height="2" fill="#fff"/>
        </g>
      </g>
      <g id="Grupo_28585" data-name="Grupo 28585" transform="translate(754.408 0.261)">
        <g id="Grupo_28582" data-name="Grupo 28582" transform="translate(0 668.105)">
          <rect id="Rectángulo_29954" data-name="Rectángulo 29954" width="2" height="2" fill="#fff"/>
        </g>
        <g id="Grupo_28583" data-name="Grupo 28583" transform="translate(0 5.994)">
          <path id="Trazado_71270" data-name="Trazado 71270" d="M820.543,1190.1h-2v-7.394h2Zm0-14.789h-2v-7.394h2Zm0-14.791h-2v-7.395h2Zm0-14.789h-2v-7.395h2Zm0-14.787h-2v-7.395h2Zm0-14.789h-2v-7.4h2Zm0-14.791h-2v-7.395h2Zm0-14.789h-2v-7.394h2Zm0-14.789h-2v-7.4h2Zm0-14.791h-2v-7.394h2Zm0-14.789h-2v-7.395h2Zm0-14.789h-2v-7.394h2Zm0-14.789h-2v-7.394h2Zm0-14.789h-2v-7.394h2Zm0-14.789h-2v-7.394h2Zm0-14.789h-2v-7.394h2Zm0-14.791h-2v-7.394h2Zm0-14.789h-2v-7.395h2Zm0-14.789h-2V916.5h2Zm0-14.789h-2v-7.4h2Zm0-14.789h-2v-7.394h2Zm0-14.789h-2v-7.394h2Zm0-14.789h-2v-7.395h2Zm0-14.791h-2v-7.394h2Zm0-14.789h-2V827.77h2Zm0-14.789h-2v-7.394h2Zm0-14.789h-2v-7.4h2Zm0-14.791h-2V783.4h2Zm0-14.787h-2v-7.394h2Zm0-14.789h-2v-7.395h2Zm0-14.791h-2v-7.394h2Zm0-14.789h-2v-7.394h2Zm0-14.789h-2v-7.394h2Zm0-14.789h-2v-7.4h2Zm0-14.791h-2v-7.394h2Zm0-14.789h-2v-7.393h2Zm0-14.787h-2V650.3h2Zm0-14.791h-2v-7.394h2Zm0-14.789h-2v-7.394h2Zm0-14.789h-2v-7.394h2Zm0-14.789h-2v-7.394h2Zm0-14.791h-2v-7.394h2Zm0-14.789h-2v-7.394h2Zm0-14.787h-2v-7.394h2Zm0-14.791h-2v-7.394h2Z" transform="translate(-818.543 -531.987)" fill="#fff"/>
        </g>
        <g id="Grupo_28584" data-name="Grupo 28584">
          <rect id="Rectángulo_29955" data-name="Rectángulo 29955" width="2" height="2" fill="#fff"/>
        </g>
      </g>
      <g id="Grupo_28589" data-name="Grupo 28589" transform="translate(825 0)">
        <g id="Grupo_28586" data-name="Grupo 28586" transform="translate(0 668.366)">
          <rect id="Rectángulo_29956" data-name="Rectángulo 29956" width="2" height="2" fill="#fff"/>
        </g>
        <g id="Grupo_28587" data-name="Grupo 28587" transform="translate(0 6.255)">
          <path id="Trazado_71271" data-name="Trazado 71271" d="M891.135,1190.1h-2v-7.394h2Zm0-14.789h-2v-7.394h2Zm0-14.791h-2v-7.395h2Zm0-14.789h-2v-7.395h2Zm0-14.787h-2v-7.395h2Zm0-14.789h-2v-7.4h2Zm0-14.791h-2v-7.395h2Zm0-14.789h-2v-7.394h2Zm0-14.789h-2v-7.4h2Zm0-14.791h-2v-7.394h2Zm0-14.789h-2v-7.395h2Zm0-14.789h-2v-7.394h2Zm0-14.789h-2v-7.394h2Zm0-14.789h-2v-7.394h2Zm0-14.789h-2v-7.394h2Zm0-14.789h-2v-7.394h2Zm0-14.791h-2v-7.394h2Zm0-14.789h-2v-7.395h2Zm0-14.789h-2V916.5h2Zm0-14.789h-2v-7.4h2Zm0-14.789h-2v-7.394h2Zm0-14.789h-2v-7.394h2Zm0-14.789h-2v-7.395h2Zm0-14.791h-2v-7.394h2Zm0-14.789h-2V827.77h2Zm0-14.789h-2v-7.394h2Zm0-14.789h-2v-7.4h2Zm0-14.791h-2V783.4h2Zm0-14.787h-2v-7.394h2Zm0-14.789h-2v-7.395h2Zm0-14.791h-2v-7.394h2Zm0-14.789h-2v-7.394h2Zm0-14.789h-2v-7.394h2Zm0-14.789h-2v-7.4h2Zm0-14.791h-2v-7.394h2Zm0-14.789h-2v-7.393h2Zm0-14.787h-2V650.3h2Zm0-14.791h-2v-7.394h2Zm0-14.789h-2v-7.394h2Zm0-14.789h-2v-7.394h2Zm0-14.789h-2v-7.394h2Zm0-14.791h-2v-7.394h2Zm0-14.789h-2v-7.394h2Zm0-14.787h-2v-7.394h2Zm0-14.791h-2v-7.394h2Z" transform="translate(-889.135 -531.987)" fill="#fff"/>
        </g>
        <g id="Grupo_28588" data-name="Grupo 28588" transform="translate(0.592)">
          <rect id="Rectángulo_29957" data-name="Rectángulo 29957" width="2" height="2" transform="translate(0 0)" fill="#fff"/>
        </g>
      </g>
      <g id="Grupo_28593" data-name="Grupo 28593" transform="translate(0 179.6)">
        <g id="Grupo_28590" data-name="Grupo 28590">
          <rect id="Rectángulo_29958" data-name="Rectángulo 29958" width="2" height="2" fill="#fff"/>
        </g>
        <g id="Grupo_28591" data-name="Grupo 28591" transform="translate(5.982 0)">
          <path id="Trazado_71272" data-name="Trazado 71272" d="M934.291,626.092H930.31v-2h3.981Zm-7.964,0h-3.982v-2h3.982Zm-7.965,0H914.38v-2h3.982Zm-7.965,0h-3.982v-2H910.4Zm-7.964,0H898.45v-2h3.983Zm-7.965,0h-3.983v-2h3.983Zm-7.965,0H882.52v-2H886.5Zm-7.965,0h-3.982v-2h3.982Zm-7.965,0h-3.982v-2h3.982Zm-7.965,0h-3.982v-2h3.982Zm-7.964,0h-3.983v-2h3.983Zm-7.965,0H842.7v-2h3.983Zm-7.964,0h-3.983v-2h3.983Zm-7.965,0h-3.982v-2h3.982Zm-7.965,0H818.8v-2h3.982Zm-7.965,0h-3.982v-2h3.982Zm-7.965,0h-3.982v-2h3.982Zm-7.964,0h-3.983v-2h3.983Zm-7.965,0h-3.983v-2h3.983Zm-7.965,0h-3.983v-2h3.983Zm-7.965,0h-3.982v-2H775Zm-7.965,0h-3.982v-2h3.982Zm-7.965,0h-3.982v-2h3.982Zm-7.964,0h-3.983v-2H751.1Zm-7.965,0h-3.983v-2h3.983Zm-7.965,0H731.19v-2h3.982Zm-7.964,0h-3.982v-2h3.982Zm-7.965,0h-3.982v-2h3.982Zm-7.965,0H707.3v-2h3.982Zm-7.965,0h-3.982v-2h3.982Zm-7.964,0h-3.983v-2h3.983Zm-7.965,0H683.4v-2h3.983Zm-7.965,0h-3.983v-2h3.983Zm-7.965,0h-3.982v-2h3.982Zm-7.965,0h-3.982v-2h3.982Zm-7.965,0h-3.982v-2h3.982Zm-7.964,0h-3.983v-2h3.983Zm-7.964,0h-3.983v-2H639.6Zm-7.965,0h-3.983v-2h3.983Zm-7.965,0h-3.982v-2h3.982Zm-7.965,0h-3.982v-2H615.7Zm-7.965,0h-3.982v-2h3.982Zm-7.965,0h-3.982v-2h3.982Zm-7.964,0h-3.983v-2h3.983Zm-7.965,0h-3.983v-2h3.983Zm-7.965,0h-3.983v-2h3.983Zm-7.965,0H563.93v-2h3.982Zm-7.965,0h-3.982v-2h3.982Zm-7.965,0H548v-2h3.982Zm-7.964,0h-3.983v-2h3.983Zm-7.964,0h-3.983v-2h3.983Zm-7.965,0h-3.983v-2h3.983Zm-7.965,0h-3.982v-2h3.982Zm-7.965,0h-3.982v-2h3.982Zm-7.965,0h-3.982v-2h3.982Zm-7.965,0h-3.982v-2h3.982Zm-7.964,0h-3.983v-2h3.983Zm-7.965,0h-3.982v-2H480.3Zm-7.965,0h-3.982v-2h3.982Zm-7.964,0h-3.983v-2h3.983Zm-7.965,0h-3.983v-2h3.983Zm-7.965,0h-3.982v-2h3.982Zm-7.964,0h-3.983v-2h3.983Zm-7.965,0h-3.983v-2h3.983Zm-7.965,0h-3.983v-2h3.983Zm-7.965,0H412.6v-2h3.982Zm-7.964,0h-3.983v-2h3.983Zm-7.965,0H396.67v-2h3.983Zm-7.965,0h-3.982v-2h3.982Zm-7.964,0h-3.983v-2h3.983Zm-7.965,0h-3.983v-2h3.983Zm-7.965,0h-3.983v-2h3.983Zm-7.965,0h-3.982v-2h3.982Zm-7.964,0h-3.983v-2h3.983Zm-7.965,0h-3.983v-2H344.9Zm-7.965,0h-3.982v-2h3.982Zm-7.964,0h-3.983v-2h3.983Zm-7.965,0h-3.983v-2h3.983Zm-7.965,0h-3.982v-2h3.982Zm-7.965,0h-3.982v-2h3.982Zm-7.964,0h-3.983v-2h3.983Zm-7.965,0h-3.982v-2h3.982Zm-7.965,0H277.2v-2h3.982Zm-7.965,0h-3.982v-2h3.982Zm-7.964,0H261.27v-2h3.983Zm-7.965,0h-3.982v-2h3.982Zm-7.965,0h-3.982v-2h3.982Zm-7.965,0h-3.982v-2h3.982Zm-7.964,0h-3.982v-2h3.982Zm-7.965,0h-3.982v-2h3.982Zm-7.965,0h-3.982v-2h3.982Zm-7.965,0h-3.981v-2H209.5Zm-7.964,0h-3.982v-2h3.982Zm-7.965,0h-3.982v-2h3.982Zm-7.965,0h-3.982v-2H185.6Zm-7.964,0h-3.982v-2h3.982Zm-7.965,0h-3.982v-2h3.982Zm-7.965,0h-3.982v-2h3.982Zm-7.964,0h-3.983v-2h3.983Zm-7.965,0H141.8v-2h3.982Zm-7.965,0h-3.982v-2h3.982Zm-7.965,0H125.87v-2h3.982Zm-7.964,0H117.9v-2h3.983Zm-7.965,0h-3.982v-2h3.982Zm-7.965,0h-3.982v-2h3.982Zm-7.964,0H94.011v-2h3.983Zm-7.965,0H86.046v-2h3.983Zm-7.964,0H78.082v-2h3.983Zm-7.965,0H70.117v-2H74.1Z" transform="translate(-70.117 -624.092)" fill="#fff"/>
        </g>
        <g id="Grupo_28592" data-name="Grupo 28592" transform="translate(874.138)">
          <rect id="Rectángulo_29959" data-name="Rectángulo 29959" width="2" height="2" fill="#fff"/>
        </g>
      </g>
      <g id="Grupo_28597" data-name="Grupo 28597" transform="translate(0 286.539)">
        <g id="Grupo_28594" data-name="Grupo 28594">
          <rect id="Rectángulo_29960" data-name="Rectángulo 29960" width="2" height="2" fill="#fff"/>
        </g>
        <g id="Grupo_28595" data-name="Grupo 28595" transform="translate(5.982 0)">
          <path id="Trazado_71273" data-name="Trazado 71273" d="M934.291,684.589H930.31v-2h3.981Zm-7.964,0h-3.982v-2h3.982Zm-7.965,0H914.38v-2h3.982Zm-7.965,0h-3.982v-2H910.4Zm-7.964,0H898.45v-2h3.983Zm-7.965,0h-3.983v-2h3.983Zm-7.965,0H882.52v-2H886.5Zm-7.965,0h-3.982v-2h3.982Zm-7.965,0h-3.982v-2h3.982Zm-7.965,0h-3.982v-2h3.982Zm-7.964,0h-3.983v-2h3.983Zm-7.965,0H842.7v-2h3.983Zm-7.964,0h-3.983v-2h3.983Zm-7.965,0h-3.982v-2h3.982Zm-7.965,0H818.8v-2h3.982Zm-7.965,0h-3.982v-2h3.982Zm-7.965,0h-3.982v-2h3.982Zm-7.964,0h-3.983v-2h3.983Zm-7.965,0h-3.983v-2h3.983Zm-7.965,0h-3.983v-2h3.983Zm-7.965,0h-3.982v-2H775Zm-7.965,0h-3.982v-2h3.982Zm-7.965,0h-3.982v-2h3.982Zm-7.964,0h-3.983v-2H751.1Zm-7.965,0h-3.983v-2h3.983Zm-7.965,0H731.19v-2h3.982Zm-7.964,0h-3.982v-2h3.982Zm-7.965,0h-3.982v-2h3.982Zm-7.965,0H707.3v-2h3.982Zm-7.965,0h-3.982v-2h3.982Zm-7.964,0h-3.983v-2h3.983Zm-7.965,0H683.4v-2h3.983Zm-7.965,0h-3.983v-2h3.983Zm-7.965,0h-3.982v-2h3.982Zm-7.965,0h-3.982v-2h3.982Zm-7.965,0h-3.982v-2h3.982Zm-7.964,0h-3.983v-2h3.983Zm-7.964,0h-3.983v-2H639.6Zm-7.965,0h-3.983v-2h3.983Zm-7.965,0h-3.982v-2h3.982Zm-7.965,0h-3.982v-2H615.7Zm-7.965,0h-3.982v-2h3.982Zm-7.965,0h-3.982v-2h3.982Zm-7.964,0h-3.983v-2h3.983Zm-7.965,0h-3.983v-2h3.983Zm-7.965,0h-3.983v-2h3.983Zm-7.965,0H563.93v-2h3.982Zm-7.965,0h-3.982v-2h3.982Zm-7.965,0H548v-2h3.982Zm-7.964,0h-3.983v-2h3.983Zm-7.964,0h-3.983v-2h3.983Zm-7.965,0h-3.983v-2h3.983Zm-7.965,0h-3.982v-2h3.982Zm-7.965,0h-3.982v-2h3.982Zm-7.965,0h-3.982v-2h3.982Zm-7.965,0h-3.982v-2h3.982Zm-7.964,0h-3.983v-2h3.983Zm-7.965,0h-3.982v-2H480.3Zm-7.965,0h-3.982v-2h3.982Zm-7.964,0h-3.983v-2h3.983Zm-7.965,0h-3.983v-2h3.983Zm-7.965,0h-3.982v-2h3.982Zm-7.964,0h-3.983v-2h3.983Zm-7.965,0h-3.983v-2h3.983Zm-7.965,0h-3.983v-2h3.983Zm-7.965,0H412.6v-2h3.982Zm-7.964,0h-3.983v-2h3.983Zm-7.965,0H396.67v-2h3.983Zm-7.965,0h-3.982v-2h3.982Zm-7.964,0h-3.983v-2h3.983Zm-7.965,0h-3.983v-2h3.983Zm-7.965,0h-3.983v-2h3.983Zm-7.965,0h-3.982v-2h3.982Zm-7.964,0h-3.983v-2h3.983Zm-7.965,0h-3.983v-2H344.9Zm-7.965,0h-3.982v-2h3.982Zm-7.964,0h-3.983v-2h3.983Zm-7.965,0h-3.983v-2h3.983Zm-7.965,0h-3.982v-2h3.982Zm-7.965,0h-3.982v-2h3.982Zm-7.964,0h-3.983v-2h3.983Zm-7.965,0h-3.982v-2h3.982Zm-7.965,0H277.2v-2h3.982Zm-7.965,0h-3.982v-2h3.982Zm-7.964,0H261.27v-2h3.983Zm-7.965,0h-3.982v-2h3.982Zm-7.965,0h-3.982v-2h3.982Zm-7.965,0h-3.982v-2h3.982Zm-7.964,0h-3.982v-2h3.982Zm-7.965,0h-3.982v-2h3.982Zm-7.965,0h-3.982v-2h3.982Zm-7.965,0h-3.981v-2H209.5Zm-7.964,0h-3.982v-2h3.982Zm-7.965,0h-3.982v-2h3.982Zm-7.965,0h-3.982v-2H185.6Zm-7.964,0h-3.982v-2h3.982Zm-7.965,0h-3.982v-2h3.982Zm-7.965,0h-3.982v-2h3.982Zm-7.964,0h-3.983v-2h3.983Zm-7.965,0H141.8v-2h3.982Zm-7.965,0h-3.982v-2h3.982Zm-7.965,0H125.87v-2h3.982Zm-7.964,0H117.9v-2h3.983Zm-7.965,0h-3.982v-2h3.982Zm-7.965,0h-3.982v-2h3.982Zm-7.964,0H94.011v-2h3.983Zm-7.965,0H86.046v-2h3.983Zm-7.964,0H78.082v-2h3.983Zm-7.965,0H70.117v-2H74.1Z" transform="translate(-70.117 -682.589)" fill="#fff"/>
        </g>
        <g id="Grupo_28596" data-name="Grupo 28596" transform="translate(874.138)">
          <rect id="Rectángulo_29961" data-name="Rectángulo 29961" width="2" height="2" fill="#fff"/>
        </g>
      </g>
      <g id="Grupo_28601" data-name="Grupo 28601" transform="translate(0 393.477)">
        <g id="Grupo_28598" data-name="Grupo 28598">
          <rect id="Rectángulo_29962" data-name="Rectángulo 29962" width="2" height="2" fill="#fff"/>
        </g>
        <g id="Grupo_28599" data-name="Grupo 28599" transform="translate(5.982 0)">
          <path id="Trazado_71274" data-name="Trazado 71274" d="M934.291,743.086H930.31v-2h3.981Zm-7.964,0h-3.982v-2h3.982Zm-7.965,0H914.38v-2h3.982Zm-7.965,0h-3.982v-2H910.4Zm-7.964,0H898.45v-2h3.983Zm-7.965,0h-3.983v-2h3.983Zm-7.965,0H882.52v-2H886.5Zm-7.965,0h-3.982v-2h3.982Zm-7.965,0h-3.982v-2h3.982Zm-7.965,0h-3.982v-2h3.982Zm-7.964,0h-3.983v-2h3.983Zm-7.965,0H842.7v-2h3.983Zm-7.964,0h-3.983v-2h3.983Zm-7.965,0h-3.982v-2h3.982Zm-7.965,0H818.8v-2h3.982Zm-7.965,0h-3.982v-2h3.982Zm-7.965,0h-3.982v-2h3.982Zm-7.964,0h-3.983v-2h3.983Zm-7.965,0h-3.983v-2h3.983Zm-7.965,0h-3.983v-2h3.983Zm-7.965,0h-3.982v-2H775Zm-7.965,0h-3.982v-2h3.982Zm-7.965,0h-3.982v-2h3.982Zm-7.964,0h-3.983v-2H751.1Zm-7.965,0h-3.983v-2h3.983Zm-7.965,0H731.19v-2h3.982Zm-7.964,0h-3.982v-2h3.982Zm-7.965,0h-3.982v-2h3.982Zm-7.965,0H707.3v-2h3.982Zm-7.965,0h-3.982v-2h3.982Zm-7.964,0h-3.983v-2h3.983Zm-7.965,0H683.4v-2h3.983Zm-7.965,0h-3.983v-2h3.983Zm-7.965,0h-3.982v-2h3.982Zm-7.965,0h-3.982v-2h3.982Zm-7.965,0h-3.982v-2h3.982Zm-7.964,0h-3.983v-2h3.983Zm-7.964,0h-3.983v-2H639.6Zm-7.965,0h-3.983v-2h3.983Zm-7.965,0h-3.982v-2h3.982Zm-7.965,0h-3.982v-2H615.7Zm-7.965,0h-3.982v-2h3.982Zm-7.965,0h-3.982v-2h3.982Zm-7.964,0h-3.983v-2h3.983Zm-7.965,0h-3.983v-2h3.983Zm-7.965,0h-3.983v-2h3.983Zm-7.965,0H563.93v-2h3.982Zm-7.965,0h-3.982v-2h3.982Zm-7.965,0H548v-2h3.982Zm-7.964,0h-3.983v-2h3.983Zm-7.964,0h-3.983v-2h3.983Zm-7.965,0h-3.983v-2h3.983Zm-7.965,0h-3.982v-2h3.982Zm-7.965,0h-3.982v-2h3.982Zm-7.965,0h-3.982v-2h3.982Zm-7.965,0h-3.982v-2h3.982Zm-7.964,0h-3.983v-2h3.983Zm-7.965,0h-3.982v-2H480.3Zm-7.965,0h-3.982v-2h3.982Zm-7.964,0h-3.983v-2h3.983Zm-7.965,0h-3.983v-2h3.983Zm-7.965,0h-3.982v-2h3.982Zm-7.964,0h-3.983v-2h3.983Zm-7.965,0h-3.983v-2h3.983Zm-7.965,0h-3.983v-2h3.983Zm-7.965,0H412.6v-2h3.982Zm-7.964,0h-3.983v-2h3.983Zm-7.965,0H396.67v-2h3.983Zm-7.965,0h-3.982v-2h3.982Zm-7.964,0h-3.983v-2h3.983Zm-7.965,0h-3.983v-2h3.983Zm-7.965,0h-3.983v-2h3.983Zm-7.965,0h-3.982v-2h3.982Zm-7.964,0h-3.983v-2h3.983Zm-7.965,0h-3.983v-2H344.9Zm-7.965,0h-3.982v-2h3.982Zm-7.964,0h-3.983v-2h3.983Zm-7.965,0h-3.983v-2h3.983Zm-7.965,0h-3.982v-2h3.982Zm-7.965,0h-3.982v-2h3.982Zm-7.964,0h-3.983v-2h3.983Zm-7.965,0h-3.982v-2h3.982Zm-7.965,0H277.2v-2h3.982Zm-7.965,0h-3.982v-2h3.982Zm-7.964,0H261.27v-2h3.983Zm-7.965,0h-3.982v-2h3.982Zm-7.965,0h-3.982v-2h3.982Zm-7.965,0h-3.982v-2h3.982Zm-7.964,0h-3.982v-2h3.982Zm-7.965,0h-3.982v-2h3.982Zm-7.965,0h-3.982v-2h3.982Zm-7.965,0h-3.981v-2H209.5Zm-7.964,0h-3.982v-2h3.982Zm-7.965,0h-3.982v-2h3.982Zm-7.965,0h-3.982v-2H185.6Zm-7.964,0h-3.982v-2h3.982Zm-7.965,0h-3.982v-2h3.982Zm-7.965,0h-3.982v-2h3.982Zm-7.964,0h-3.983v-2h3.983Zm-7.965,0H141.8v-2h3.982Zm-7.965,0h-3.982v-2h3.982Zm-7.965,0H125.87v-2h3.982Zm-7.964,0H117.9v-2h3.983Zm-7.965,0h-3.982v-2h3.982Zm-7.965,0h-3.982v-2h3.982Zm-7.964,0H94.011v-2h3.983Zm-7.965,0H86.046v-2h3.983Zm-7.964,0H78.082v-2h3.983Zm-7.965,0H70.117v-2H74.1Z" transform="translate(-70.117 -741.086)" fill="#fff"/>
        </g>
        <g id="Grupo_28600" data-name="Grupo 28600" transform="translate(874.138)">
          <rect id="Rectángulo_29963" data-name="Rectángulo 29963" width="2" height="2" fill="#fff"/>
        </g>
      </g>
      <g id="Grupo_28605" data-name="Grupo 28605" transform="translate(0 500.416)">
        <g id="Grupo_28602" data-name="Grupo 28602">
          <rect id="Rectángulo_29964" data-name="Rectángulo 29964" width="2" height="2" fill="#fff"/>
        </g>
        <g id="Grupo_28603" data-name="Grupo 28603" transform="translate(5.982)">
          <path id="Trazado_71275" data-name="Trazado 71275" d="M934.291,801.583H930.31v-2h3.981Zm-7.964,0h-3.982v-2h3.982Zm-7.965,0H914.38v-2h3.982Zm-7.965,0h-3.982v-2H910.4Zm-7.964,0H898.45v-2h3.983Zm-7.965,0h-3.983v-2h3.983Zm-7.965,0H882.52v-2H886.5Zm-7.965,0h-3.982v-2h3.982Zm-7.965,0h-3.982v-2h3.982Zm-7.965,0h-3.982v-2h3.982Zm-7.964,0h-3.983v-2h3.983Zm-7.965,0H842.7v-2h3.983Zm-7.964,0h-3.983v-2h3.983Zm-7.965,0h-3.982v-2h3.982Zm-7.965,0H818.8v-2h3.982Zm-7.965,0h-3.982v-2h3.982Zm-7.965,0h-3.982v-2h3.982Zm-7.964,0h-3.983v-2h3.983Zm-7.965,0h-3.983v-2h3.983Zm-7.965,0h-3.983v-2h3.983Zm-7.965,0h-3.982v-2H775Zm-7.965,0h-3.982v-2h3.982Zm-7.965,0h-3.982v-2h3.982Zm-7.964,0h-3.983v-2H751.1Zm-7.965,0h-3.983v-2h3.983Zm-7.965,0H731.19v-2h3.982Zm-7.964,0h-3.982v-2h3.982Zm-7.965,0h-3.982v-2h3.982Zm-7.965,0H707.3v-2h3.982Zm-7.965,0h-3.982v-2h3.982Zm-7.964,0h-3.983v-2h3.983Zm-7.965,0H683.4v-2h3.983Zm-7.965,0h-3.983v-2h3.983Zm-7.965,0h-3.982v-2h3.982Zm-7.965,0h-3.982v-2h3.982Zm-7.965,0h-3.982v-2h3.982Zm-7.964,0h-3.983v-2h3.983Zm-7.964,0h-3.983v-2H639.6Zm-7.965,0h-3.983v-2h3.983Zm-7.965,0h-3.982v-2h3.982Zm-7.965,0h-3.982v-2H615.7Zm-7.965,0h-3.982v-2h3.982Zm-7.965,0h-3.982v-2h3.982Zm-7.964,0h-3.983v-2h3.983Zm-7.965,0h-3.983v-2h3.983Zm-7.965,0h-3.983v-2h3.983Zm-7.965,0H563.93v-2h3.982Zm-7.965,0h-3.982v-2h3.982Zm-7.965,0H548v-2h3.982Zm-7.964,0h-3.983v-2h3.983Zm-7.964,0h-3.983v-2h3.983Zm-7.965,0h-3.983v-2h3.983Zm-7.965,0h-3.982v-2h3.982Zm-7.965,0h-3.982v-2h3.982Zm-7.965,0h-3.982v-2h3.982Zm-7.965,0h-3.982v-2h3.982Zm-7.964,0h-3.983v-2h3.983Zm-7.965,0h-3.982v-2H480.3Zm-7.965,0h-3.982v-2h3.982Zm-7.964,0h-3.983v-2h3.983Zm-7.965,0h-3.983v-2h3.983Zm-7.965,0h-3.982v-2h3.982Zm-7.964,0h-3.983v-2h3.983Zm-7.965,0h-3.983v-2h3.983Zm-7.965,0h-3.983v-2h3.983Zm-7.965,0H412.6v-2h3.982Zm-7.964,0h-3.983v-2h3.983Zm-7.965,0H396.67v-2h3.983Zm-7.965,0h-3.982v-2h3.982Zm-7.964,0h-3.983v-2h3.983Zm-7.965,0h-3.983v-2h3.983Zm-7.965,0h-3.983v-2h3.983Zm-7.965,0h-3.982v-2h3.982Zm-7.964,0h-3.983v-2h3.983Zm-7.965,0h-3.983v-2H344.9Zm-7.965,0h-3.982v-2h3.982Zm-7.964,0h-3.983v-2h3.983Zm-7.965,0h-3.983v-2h3.983Zm-7.965,0h-3.982v-2h3.982Zm-7.965,0h-3.982v-2h3.982Zm-7.964,0h-3.983v-2h3.983Zm-7.965,0h-3.982v-2h3.982Zm-7.965,0H277.2v-2h3.982Zm-7.965,0h-3.982v-2h3.982Zm-7.964,0H261.27v-2h3.983Zm-7.965,0h-3.982v-2h3.982Zm-7.965,0h-3.982v-2h3.982Zm-7.965,0h-3.982v-2h3.982Zm-7.964,0h-3.982v-2h3.982Zm-7.965,0h-3.982v-2h3.982Zm-7.965,0h-3.982v-2h3.982Zm-7.965,0h-3.981v-2H209.5Zm-7.964,0h-3.982v-2h3.982Zm-7.965,0h-3.982v-2h3.982Zm-7.965,0h-3.982v-2H185.6Zm-7.964,0h-3.982v-2h3.982Zm-7.965,0h-3.982v-2h3.982Zm-7.965,0h-3.982v-2h3.982Zm-7.964,0h-3.983v-2h3.983Zm-7.965,0H141.8v-2h3.982Zm-7.965,0h-3.982v-2h3.982Zm-7.965,0H125.87v-2h3.982Zm-7.964,0H117.9v-2h3.983Zm-7.965,0h-3.982v-2h3.982Zm-7.965,0h-3.982v-2h3.982Zm-7.964,0H94.011v-2h3.983Zm-7.965,0H86.046v-2h3.983Zm-7.964,0H78.082v-2h3.983Zm-7.965,0H70.117v-2H74.1Z" transform="translate(-70.117 -799.583)" fill="#fff"/>
        </g>
        <g id="Grupo_28604" data-name="Grupo 28604" transform="translate(874.138)">
          <rect id="Rectángulo_29965" data-name="Rectángulo 29965" width="2" height="2" fill="#fff"/>
        </g>
      </g>
      <g id="Grupo_28609" data-name="Grupo 28609" transform="translate(0 634.992)">
        <g id="Grupo_28606" data-name="Grupo 28606" transform="translate(0 0)">
          <rect id="Rectángulo_29966" data-name="Rectángulo 29966" width="2" height="2" fill="#fff"/>
        </g>
        <g id="Grupo_28607" data-name="Grupo 28607" transform="translate(5.982)">
          <path id="Trazado_71276" data-name="Trazado 71276" d="M934.291,860.08H930.31v-2h3.981Zm-7.964,0h-3.982v-2h3.982Zm-7.965,0H914.38v-2h3.982Zm-7.965,0h-3.982v-2H910.4Zm-7.964,0H898.45v-2h3.983Zm-7.965,0h-3.983v-2h3.983Zm-7.965,0H882.52v-2H886.5Zm-7.965,0h-3.982v-2h3.982Zm-7.965,0h-3.982v-2h3.982Zm-7.965,0h-3.982v-2h3.982Zm-7.964,0h-3.983v-2h3.983Zm-7.965,0H842.7v-2h3.983Zm-7.964,0h-3.983v-2h3.983Zm-7.965,0h-3.982v-2h3.982Zm-7.965,0H818.8v-2h3.982Zm-7.965,0h-3.982v-2h3.982Zm-7.965,0h-3.982v-2h3.982Zm-7.964,0h-3.983v-2h3.983Zm-7.965,0h-3.983v-2h3.983Zm-7.965,0h-3.983v-2h3.983Zm-7.965,0h-3.982v-2H775Zm-7.965,0h-3.982v-2h3.982Zm-7.965,0h-3.982v-2h3.982Zm-7.964,0h-3.983v-2H751.1Zm-7.965,0h-3.983v-2h3.983Zm-7.965,0H731.19v-2h3.982Zm-7.964,0h-3.982v-2h3.982Zm-7.965,0h-3.982v-2h3.982Zm-7.965,0H707.3v-2h3.982Zm-7.965,0h-3.982v-2h3.982Zm-7.964,0h-3.983v-2h3.983Zm-7.965,0H683.4v-2h3.983Zm-7.965,0h-3.983v-2h3.983Zm-7.965,0h-3.982v-2h3.982Zm-7.965,0h-3.982v-2h3.982Zm-7.965,0h-3.982v-2h3.982Zm-7.964,0h-3.983v-2h3.983Zm-7.964,0h-3.983v-2H639.6Zm-7.965,0h-3.983v-2h3.983Zm-7.965,0h-3.982v-2h3.982Zm-7.965,0h-3.982v-2H615.7Zm-7.965,0h-3.982v-2h3.982Zm-7.965,0h-3.982v-2h3.982Zm-7.964,0h-3.983v-2h3.983Zm-7.965,0h-3.983v-2h3.983Zm-7.965,0h-3.983v-2h3.983Zm-7.965,0H563.93v-2h3.982Zm-7.965,0h-3.982v-2h3.982Zm-7.965,0H548v-2h3.982Zm-7.964,0h-3.983v-2h3.983Zm-7.964,0h-3.983v-2h3.983Zm-7.965,0h-3.983v-2h3.983Zm-7.965,0h-3.982v-2h3.982Zm-7.965,0h-3.982v-2h3.982Zm-7.965,0h-3.982v-2h3.982Zm-7.965,0h-3.982v-2h3.982Zm-7.964,0h-3.983v-2h3.983Zm-7.965,0h-3.982v-2H480.3Zm-7.965,0h-3.982v-2h3.982Zm-7.964,0h-3.983v-2h3.983Zm-7.965,0h-3.983v-2h3.983Zm-7.965,0h-3.982v-2h3.982Zm-7.964,0h-3.983v-2h3.983Zm-7.965,0h-3.983v-2h3.983Zm-7.965,0h-3.983v-2h3.983Zm-7.965,0H412.6v-2h3.982Zm-7.964,0h-3.983v-2h3.983Zm-7.965,0H396.67v-2h3.983Zm-7.965,0h-3.982v-2h3.982Zm-7.964,0h-3.983v-2h3.983Zm-7.965,0h-3.983v-2h3.983Zm-7.965,0h-3.983v-2h3.983Zm-7.965,0h-3.982v-2h3.982Zm-7.964,0h-3.983v-2h3.983Zm-7.965,0h-3.983v-2H344.9Zm-7.965,0h-3.982v-2h3.982Zm-7.964,0h-3.983v-2h3.983Zm-7.965,0h-3.983v-2h3.983Zm-7.965,0h-3.982v-2h3.982Zm-7.965,0h-3.982v-2h3.982Zm-7.964,0h-3.983v-2h3.983Zm-7.965,0h-3.982v-2h3.982Zm-7.965,0H277.2v-2h3.982Zm-7.965,0h-3.982v-2h3.982Zm-7.964,0H261.27v-2h3.983Zm-7.965,0h-3.982v-2h3.982Zm-7.965,0h-3.982v-2h3.982Zm-7.965,0h-3.982v-2h3.982Zm-7.964,0h-3.982v-2h3.982Zm-7.965,0h-3.982v-2h3.982Zm-7.965,0h-3.982v-2h3.982Zm-7.965,0h-3.981v-2H209.5Zm-7.964,0h-3.982v-2h3.982Zm-7.965,0h-3.982v-2h3.982Zm-7.965,0h-3.982v-2H185.6Zm-7.964,0h-3.982v-2h3.982Zm-7.965,0h-3.982v-2h3.982Zm-7.965,0h-3.982v-2h3.982Zm-7.964,0h-3.983v-2h3.983Zm-7.965,0H141.8v-2h3.982Zm-7.965,0h-3.982v-2h3.982Zm-7.965,0H125.87v-2h3.982Zm-7.964,0H117.9v-2h3.983Zm-7.965,0h-3.982v-2h3.982Zm-7.965,0h-3.982v-2h3.982Zm-7.964,0H94.011v-2h3.983Zm-7.965,0H86.046v-2h3.983Zm-7.964,0H78.082v-2h3.983Zm-7.965,0H70.117v-2H74.1Z" transform="translate(-70.117 -858.08)" fill="#fff"/>
        </g>
        <g id="Grupo_28608" data-name="Grupo 28608" transform="translate(874.138 0)">
          <rect id="Rectángulo_29967" data-name="Rectángulo 29967" width="2" height="2" fill="#fff"/>
        </g>
      </g>
    </g>
  </g>
</svg>
